<?xml version="1.0" encoding="utf-8" standalone="yes"?>
<!DOCTYPE svg PUBLIC "-//W3C//DTD SVG 1.1//EN" "http://www.w3.org/Graphics/SVG/1.1/DTD/svg11.dtd">
<svg style="fill:none;stroke:none;fill-rule:evenodd;clip-rule:evenodd;stroke-linecap:round;stroke-linejoin:round;stroke-miterlimit:1.5;" version="1.1" xmlns="http://www.w3.org/2000/svg" xmlns:xlink="http://www.w3.org/1999/xlink" width="1070" height="494" viewBox="0 0 1070 494"><style class="text-font-style fontImports" data-font-family="Shantell Sans">@import url(https://fonts.googleapis.com/css2?family=Shantell+Sans:wght@300..800&amp;amp;display=block);</style><g id="items" style="isolation: isolate"><g id="blend" style="mix-blend-mode: normal"><g id="g-root-cp_start_g-start_8xs4kuehzocp-fill" data-item-order="999511419" transform="translate(51, 76)"></g><g id="g-root-cp_1_g-1_4il3jiehzlz6-fill" data-item-order="999511443" transform="translate(243, 76)"></g><g id="g-root-cp_2_g-2_1uo259qehzmkr-fill" data-item-order="999511469" transform="translate(435, 76)"></g><g id="g-root-cp_3_g-3_1uo259qehzmks-fill" data-item-order="999511495" transform="translate(627, 76)"></g><g id="g-root-cp_end_g-end_1q88n5aehznd1-fill" data-item-order="999511521" transform="translate(819, 76)"></g><g id="g-root-cp_0_g-0_1hclmweehzo5q-fill" data-item-order="999511545" transform="translate(15, 244)"></g><g id="g-root-cp_0_g-0_1_1cxelv2ehzls7-fill" data-item-order="999511553" transform="translate(257.669921875, 325.029296875)"></g><g id="g-root-tx_aievolut_1cxelv2ehzls8-fill" data-item-order="1000000000" transform="translate(447, 3)"><g id="tx_aievolut_1cxelv2ehzls8-fill-merged" stroke="none" fill="#484848" fill-opacity="1"><g><text style="font: 25px &quot;Shantell Sans&quot;, cursive; white-space: pre;" transform="translate(88, 28)" font-size="25px" font-family="'Shantell Sans', cursive"><tspan x="-75.59" y="16.5" dominant-baseline="ideographic">AI Evolution</tspan></text></g></g></g><g id="g-root-tx_chatbot_zly3hqehznd5-fill" data-item-order="1000000000" transform="translate(93, 135)"><g id="tx_chatbot_zly3hqehznd5-fill-merged" stroke="none" fill="#484848" fill-opacity="1"><g><text style="font: bold 20px &quot;Shantell Sans&quot;, cursive; white-space: pre;" transform="translate(58, 22)" font-weight="bold" font-size="20px" font-family="'Shantell Sans', cursive"><tspan x="-42.14" y="13.5" dominant-baseline="ideographic">Chatbot</tspan></text></g></g></g><g id="g-root-tx_assistan_v64ldaehzo5f-fill" data-item-order="1000000000" transform="translate(279, 135)"><g id="tx_assistan_v64ldaehzo5f-fill-merged" stroke="none" fill="#484848" fill-opacity="1"><g><text style="font: bold 20px &quot;Shantell Sans&quot;, cursive; white-space: pre;" transform="translate(64, 22)" font-weight="bold" font-size="20px" font-family="'Shantell Sans', cursive"><tspan x="-49.54" y="13.5" dominant-baseline="ideographic">Assistant</tspan></text></g></g></g><g id="g-root-tx_connecte_hvak32ehzmkl-fill" data-item-order="1000000000" transform="translate(465, 135)"><g id="tx_connecte_hvak32ehzmkl-fill-merged" stroke="none" fill="#484848" fill-opacity="1"><g><text style="font: bold 20px &quot;Shantell Sans&quot;, cursive; white-space: pre;" transform="translate(70, 34)" font-weight="bold" font-size="20px" font-family="'Shantell Sans', cursive"><tspan x="-57.93" y="1.5" dominant-baseline="ideographic">Connected </tspan><tspan x="-52.99" y="25.5" dominant-baseline="ideographic">Assistant</tspan></text></g></g></g><g id="g-root-tx_capablec_8znju6ehzndb-fill" data-item-order="1000000000" transform="translate(645, 135)"><g id="tx_capablec_8znju6ehzndb-fill-merged" stroke="none" fill="#484848" fill-opacity="1"><g><text style="font: bold 20px &quot;Shantell Sans&quot;, cursive; white-space: pre;" transform="translate(82, 34)" font-weight="bold" font-size="20px" font-family="'Shantell Sans', cursive"><tspan x="-41.51" y="1.5" dominant-baseline="ideographic">Capable </tspan><tspan x="-66.9" y="25.5" dominant-baseline="ideographic">Collaborator</tspan></text></g></g></g><g id="g-root-tx_autonomo_4n0oeehzls1-fill" data-item-order="1000000000" transform="translate(837, 135)"><g id="tx_autonomo_4n0oeehzls1-fill-merged" stroke="none" fill="#484848" fill-opacity="1"><g><text style="font: bold 20px &quot;Shantell Sans&quot;, cursive; white-space: pre;" transform="translate(82, 34)" font-weight="bold" font-size="20px" font-family="'Shantell Sans', cursive"><tspan x="-68.76" y="1.5" dominant-baseline="ideographic">Autonomous </tspan><tspan x="-35.04" y="25.5" dominant-baseline="ideographic">Agent</tspan></text></g></g></g><g id="g-root-tx_basictex_zly3hqehznd6-fill" data-item-order="1000000000" transform="translate(81, 171)"><g id="tx_basictex_zly3hqehznd6-fill-merged" stroke="none" fill="#484848" fill-opacity="1"><g><text style="font: 15px &quot;Shantell Sans&quot;, cursive; white-space: pre;" transform="translate(70, 28)" font-size="15px" font-family="'Shantell Sans', cursive"><tspan x="-35.43" y="1" dominant-baseline="ideographic">Basic text </tspan><tspan x="-52.68" y="19" dominant-baseline="ideographic">understanding</tspan></text></g></g></g><g id="g-root-tx_gainingb_mb427iehzlsc-fill" data-item-order="1000000000" transform="translate(279, 171)"><g id="tx_gainingb_mb427iehzlsc-fill-merged" stroke="none" fill="#484848" fill-opacity="1"><g><text style="font: 15px &quot;Shantell Sans&quot;, cursive; white-space: pre;" transform="translate(64, 28)" font-size="15px" font-family="'Shantell Sans', cursive"><tspan x="-51.44" y="1" dominant-baseline="ideographic">Gaining basic </tspan><tspan x="-30.84" y="19" dominant-baseline="ideographic">abilities</tspan></text></g></g></g><g id="g-root-tx_integrat_8znju6ehznda-fill" data-item-order="1000000000" transform="translate(459, 195)"><g id="tx_integrat_8znju6ehznda-fill-merged" stroke="none" fill="#484848" fill-opacity="1"><g><text style="font: 15px &quot;Shantell Sans&quot;, cursive; white-space: pre;" transform="translate(76, 28)" font-size="15px" font-family="'Shantell Sans', cursive"><tspan x="-63.52" y="1" dominant-baseline="ideographic">Integrating with </tspan><tspan x="-53.74" y="19" dominant-baseline="ideographic">other systems</tspan></text></g></g></g><g id="g-root-tx_workinga_4ju1pqehzo5k-fill" data-item-order="1000000000" transform="translate(645, 195)"><g id="tx_workinga_4ju1pqehzo5k-fill-merged" stroke="none" fill="#484848" fill-opacity="1"><g><text style="font: 15px &quot;Shantell Sans&quot;, cursive; white-space: pre;" transform="translate(82, 28)" font-size="15px" font-family="'Shantell Sans', cursive"><tspan x="-69.94" y="1" dominant-baseline="ideographic">Working alongside </tspan><tspan x="-30.77" y="19" dominant-baseline="ideographic">humans</tspan></text></g></g></g><g id="g-root-tx_handling_4n0oeehzls2-fill" data-item-order="1000000000" transform="translate(837, 195)"><g id="tx_handling_4n0oeehzls2-fill-merged" stroke="none" fill="#484848" fill-opacity="1"><g><text style="font: 15px &quot;Shantell Sans&quot;, cursive; white-space: pre;" transform="translate(82, 28)" font-size="15px" font-family="'Shantell Sans', cursive"><tspan x="-66.96" y="1" dominant-baseline="ideographic">Handling complex </tspan><tspan x="-31.04" y="19" dominant-baseline="ideographic">projects</tspan></text></g></g></g><g id="g-root-cp_start_g-start_8xs4kuehzocp-stroke" data-item-order="999511419" transform="translate(51, 76)"><g id="cp_start_g-start_8xs4kuehzocp-stroke" fill="none" stroke-linecap="round" stroke-linejoin="round" stroke-miterlimit="4" stroke="#484848" stroke-width="4" stroke-opacity="1"><g><path d="M 190 46L 190 34C 190 27.6348 187.4714 21.5303 182.9706 17.0294C 178.4697 12.5286 172.3652 10 166 10L 34 10C 27.6348 10 21.5303 12.5286 17.0294 17.0294C 12.5286 21.5303 10 27.6348 10 34L 10 46M 190 214L 190 46M 10 46L 10 214M 190 214L 190 347.7143C 190 353.6248 187.4714 359.2933 182.9706 363.4727C 178.4697 367.652 172.3652 370 166 370L 34 370C 27.6348 370 21.5303 367.652 17.0294 363.4727C 12.5286 359.2933 10 353.6248 10 347.7143L 10 214M 190 46C 191.1 42.2 190.4 38 190 34C 189.3 27.7 188 21 183 17C 178 13.1 172.4 10.1 166 10C 144.7 9.5 123.3 10.6 102 10C 79.3 9.4 56.7 9.7 34 10C 27.6 10.1 22.2 13.3 17 17C 11.9 20.8 10.5 27.7 10 34C 9.7 38 10.4 42 10 46M 190 214C 188.8 185.3 188.9 156.4 190 127.7C 191 100.5 189 73.2 190 46M 10 46C 11.2 59.8 9.1 73.7 10 87.5C 10.9 102.3 10.1 117.1 10 131.9C 9.9 146.3 9.8 160.6 10 175C 10.2 188 11.5 201.1 10 214M 190 214C 191.1 229.2 188.3 244.6 190 259.8C 191.7 275 189.9 290.4 190 305.7C 190.1 319.7 190 333.7 190 347.7C 190 353.6 187.1 358.9 183 363.5C 178.9 368 172.2 371.4 166 370C 144.3 365.2 121.5 369.8 99.2 370C 77.5 370.2 55.7 368.8 34 370C 27.6 370.4 21 368.2 17 363.5C 13.1 358.8 9.8 353.6 10 347.7C 10.8 327 9.8 306.2 10 285.4C 10.2 261.6 10.4 237.8 10 214M 190 46C 190.3 42 190.4 38 190 34C 189.4 27.7 188.7 19.8 183 17C 177.2 14.3 172.4 9.7 166 10C 156.6 10.5 146.8 12.4 137.7 10C 130 8 121.7 9.2 113.8 10C 105.6 10.8 97.3 8.7 89.2 10C 80.7 11.4 71.8 8.3 63.4 10C 53.8 12 43.3 6.9 34 10C 28 12 22.4 13.7 17 17C 11.6 20.4 11 27.7 10 34C 9.3 37.9 11.3 42.2 10 46M 190 214C 191.6 207.3 190.6 200.2 190 193.4C 189.5 186.6 190.1 179.7 190 172.8C 189.9 165.8 190.5 158.7 190 151.6C 189.6 144.9 189.1 138.2 190 131.5C 191 124 191.8 116.1 190 108.7C 188.4 102.2 190.9 95.2 190 88.6C 189 81.4 190.1 74.2 190 66.9C 189.9 60 191.7 52.8 190 46M 10 46C 9.6 53.9 7.4 62.2 10 69.6C 12.9 77.8 9.5 86.9 10 95.5C 10.5 104 11.1 112.6 10 121C 8.9 129.3 8.1 138 10 146.2C 11.6 153.1 11 160.5 10 167.5C 9 174.4 10 181.4 10 188.4C 10 197 10 205.5 10 214M 190 214C 191.3 222 188.9 230.3 190 238.3C 190.9 244.8 190.4 251.5 190 258.1C 189.6 265.1 190.2 272.1 190 279.1C 189.8 286.2 191 293.4 190 300.4C 189 308 192.5 316.1 190 323.2C 187.3 330.9 192.3 339.9 190 347.7C 188.3 353.4 188.1 360.1 183 363.5C 177.8 366.8 172 372 166 370C 158.5 367.5 149.9 371.7 142.2 370C 133.6 368.1 124.6 369.5 115.9 370C 107.3 370.5 98.1 367.1 90 370C 82 372.9 73 368.9 64.6 370C 54.5 371.4 44.2 370.6 34 370C 27.6 369.6 22.2 366.8 17 363.5C 11.8 360.2 12.2 353.2 10 347.7C 7 340.3 8.1 331.5 10 323.8C 11.7 316.9 11.5 309.4 10 302.4C 8.6 295.7 7.8 288.4 10 282C 12.5 274.7 9.1 266.5 10 258.8C 10.8 251.9 10.1 244.9 10 238C 9.9 230 9.8 222 10 214"></path></g></g></g><g id="g-root-cp_1_g-1_4il3jiehzlz6-stroke" data-item-order="999511443" transform="translate(243, 76)"><g id="cp_1_g-1_4il3jiehzlz6-stroke" fill="none" stroke-linecap="round" stroke-linejoin="round" stroke-miterlimit="4" stroke="#484848" stroke-width="4" stroke-opacity="1"><g><path d="M 190 214L 190 46M 10 46L 10 214M 190 214L 190 347.7143C 190 353.6248 187.4714 359.2933 182.9706 363.4727C 178.4697 367.652 172.3652 370 166 370L 34 370C 27.6348 370 21.5303 367.652 17.0294 363.4727C 12.5286 359.2933 10 353.6248 10 347.7143L 10 214M 190 46L 190 34C 190 27.6348 187.4714 21.5303 182.9706 17.0294C 178.4697 12.5286 172.3652 10 166 10L 34 10C 27.6348 10 21.5303 12.5286 17.0294 17.0294C 12.5286 21.5303 10 27.6348 10 34L 10 46M 190 214C 188.3 185.3 189.5 156.5 190 127.8C 190.5 100.5 190.6 73.3 190 46M 10 46C 9.1 63.1 9 80.2 10 97.2C 11 115.2 11.7 133.4 10 151.4C 8 172.1 10 193.1 10 214M 190 214C 191.3 227.7 188.5 241.7 190 255.4C 191.5 269.2 190.1 283.2 190 297.1C 189.9 314 188.9 330.9 190 347.7C 190.4 353.6 188 359.9 183 363.5C 178 367 172.3 370.8 166 370C 142.3 367 118.2 368.6 94.3 370C 74.3 371.2 54 368.2 34 370C 27.7 370.6 22.5 366.3 17 363.5C 11.6 360.6 10.5 353.6 10 347.7C 8.3 327.2 11 306.4 10 285.8C 8.9 261.9 9.7 237.9 10 214M 190 46C 189.9 42 188.8 37.8 190 34C 191.9 27.9 187.1 21.8 183 17C 178.8 12.2 172.3 9 166 10C 144.1 13.6 121.5 8.6 99.3 10C 77.6 11.4 55.8 9.8 34 10C 27.6 10.1 21.1 12.1 17 17C 13 21.9 8.9 27.7 10 34C 10.7 37.9 9.5 42 10 46M 190 214C 190.5 205.1 192.8 195.8 190 187.4C 187.3 179 190.1 169.8 190 161.1C 189.9 151.3 190.1 141.6 190 131.9C 189.9 123.2 191.5 114.4 190 105.9C 188.3 96.4 193.2 85.9 190 76.8C 186.6 67.1 188.6 56.2 190 46M 10 46C 13.5 54.6 12.6 65 10 74C 7.4 82.8 11.5 92.6 10 101.7C 8.5 110.7 11.5 120.2 10 129.2C 8.4 139.2 8.1 149.6 10 159.5C 11.6 167.5 8.3 176 10 184C 12.1 193.8 11.9 204.2 10 214M 190 214C 188.8 220.6 189.1 227.4 190 234C 190.9 240.6 189.7 247.3 190 253.8C 190.3 260.5 192.1 267.5 190 273.8C 187.8 280.2 191.1 287.4 190 294.1C 189.1 299.8 187.8 306.1 190 311.5C 192.2 317 190.5 323.4 190 329.3C 189.4 335.4 189.3 341.6 190 347.7C 190.7 353.6 187.6 359.5 183 363.5C 178.3 367.5 172.2 371.2 166 370C 157.4 368.3 148.4 371 139.7 370C 131.1 369.1 121.8 366.9 113.7 370C 105.4 373.2 95.9 369.9 87 370C 79 370.1 70.7 367.9 62.9 370C 53.6 372.5 43.6 369.6 34 370C 27.6 370.3 20.9 368.3 17 363.5C 13.2 358.7 10.7 353.6 10 347.7C 9.2 341.5 11.4 335 10 328.8C 8.6 322.6 10.9 316 10 309.8C 9 302.9 11.5 295.8 10 289C 8.8 283.4 9 277.4 10 271.7C 11.1 265.8 11.1 259.6 10 253.7C 8.7 246.7 11.6 239.4 10 232.5C 8.6 226.5 10.6 220.1 10 214M 190 46C 189.6 42 190.6 38 190 34C 189 27.7 185.4 22.9 183 17C 180.5 11.2 171.9 7.7 166 10C 156.2 13.8 144.9 11.6 134.5 10C 124.1 8.3 112.8 13.6 102.8 10C 91.8 6 79.3 10.3 67.6 10C 56.4 9.8 45.2 9.4 34 10C 27.6 10.4 19.8 11.3 17 17C 14.2 22.7 8.4 27.8 10 34C 11 37.9 10.4 42 10 46"></path></g></g></g><g id="g-root-cp_2_g-2_1uo259qehzmkr-stroke" data-item-order="999511469" transform="translate(435, 76)"><g id="cp_2_g-2_1uo259qehzmkr-stroke" fill="none" stroke-linecap="round" stroke-linejoin="round" stroke-miterlimit="4" stroke="#484848" stroke-width="4" stroke-opacity="1"><g><path d="M 190 46L 190 34C 190 27.6348 187.4714 21.5303 182.9706 17.0294C 178.4697 12.5286 172.3652 10 166 10L 34 10C 27.6348 10 21.5303 12.5286 17.0294 17.0294C 12.5286 21.5303 10 27.6348 10 34L 10 46M 190 214L 190 46M 10 46L 10 214M 190 214L 190 347.7143C 190 353.6248 187.4714 359.2933 182.9706 363.4727C 178.4697 367.652 172.3652 370 166 370L 34 370C 27.6348 370 21.5303 367.652 17.0294 363.4727C 12.5286 359.2933 10 353.6248 10 347.7143L 10 214M 190 46C 190.7 42.1 189 37.9 190 34C 191.6 27.8 188.2 20.7 183 17C 177.7 13.4 172.3 10.7 166 10C 142.7 7.5 119.2 10.8 95.8 10C 75.2 9.3 54.6 8.9 34 10C 27.6 10.4 21.5 12.5 17 17C 12.5 21.5 10.3 27.6 10 34C 9.8 38 9.8 42 10 46M 190 214C 189.5 194.6 189.9 175.1 190 155.7C 190.1 136.1 190.8 116.6 190 97.1C 189.3 80.1 188.3 62.9 190 46M 10 46C 8.7 58.6 11.9 71.4 10 83.9C 7.8 98 9.9 112.6 10 126.9C 10.1 141.5 10.9 156.1 10 170.7C 9.1 185.1 10.5 199.6 10 214M 190 214C 188.9 236.5 189.6 259.1 190 281.7C 190.4 303.7 188.5 325.8 190 347.7C 190.4 353.6 188.4 360.7 183 363.5C 177.5 366.3 172.4 369.8 166 370C 143.8 370.8 121.5 371.6 99.4 370C 77.6 368.4 55.7 368.5 34 370C 27.7 370.4 21.4 367.8 17 363.5C 12.7 359.1 10.4 353.6 10 347.7C 8.9 332.4 11.4 317 10 301.8C 8.5 285.9 9.5 269.9 10 254C 10.4 240.7 12 227.2 10 214M 190 46C 189.6 42 190.6 38 190 34C 189.1 27.7 188.5 20.3 183 17C 177.5 13.8 172.1 8 166 10C 160.6 11.7 154.4 8.1 149 10C 144.3 11.6 139.1 9.4 134.1 10C 128.3 10.7 122.3 9.6 116.5 10C 111.2 10.4 105.6 8.3 100.6 10C 94.9 11.9 88.3 8 82.7 10C 78 11.7 72.7 10 67.6 10C 62.2 10 56.9 10.1 51.5 10C 45.7 9.9 39.8 10 34 10C 27.6 10 20 11.4 17 17C 14.1 22.7 11.3 27.8 10 34C 9.2 37.9 9.1 42.1 10 46M 190 214C 190.9 205.4 187.9 196.5 190 188.1C 192.4 178.2 189.6 167.7 190 157.5C 190.3 148.8 189 140 190 131.3C 190.9 122.8 191.4 114.1 190 105.7C 188.3 95.8 186.4 84.9 190 75.5C 193.5 66.3 187.4 55.5 190 46M 10 46C 11.2 50.5 9.6 55.4 10 60C 10.4 64.9 11 70 10 74.8C 9 79.3 10.4 84.1 10 88.7C 9.6 93.6 10.2 98.5 10 103.4C 9.8 107.9 11 112.6 10 117C 9 121.5 10.1 126.3 10 130.9C 9.9 135.9 8.8 141.1 10 145.9C 11.1 150.4 8.4 155.4 10 159.7C 11.5 163.7 9.3 168.3 10 172.5C 10.8 177.2 8.7 182.1 10 186.7C 11.3 191.2 10.5 196.1 10 200.7C 9.5 205.1 10.3 209.6 10 214M 190 214C 190.3 220.6 190.5 227.3 190 233.9C 189.5 240.4 189.8 246.9 190 253.4C 190.2 259.7 188.5 266.2 190 272.3C 191.6 278.9 192 286.2 190 292.7C 188.2 298.6 191.9 305.3 190 311.1C 188.1 316.9 189 323.2 190 329.1C 191 335.2 187.8 341.9 190 347.7C 192.1 353.2 187.4 359.2 183 363.5C 178.6 367.8 172.4 369.8 166 370C 156.9 370.4 147.7 369.7 138.6 370C 129.6 370.3 120.5 369.1 111.5 370C 103.5 370.8 95.2 368.8 87.2 370C 79.2 371.2 71 370.4 62.9 370C 53.3 369.5 43.1 373 34 370C 28 368 19.7 369 17 363.5C 14.3 358 10.6 353.6 10 347.7C 9.2 340 7.1 331.7 10 324.6C 12.6 318.1 9.3 310.6 10 303.7C 10.8 295.6 8.4 287.3 10 279.4C 11.4 272.8 8.1 265.7 10 259.3C 12.1 252 7.4 243.6 10 236.5C 12.6 229.5 8.8 221.4 10 214"></path></g></g></g><g id="g-root-cp_3_g-3_1uo259qehzmks-stroke" data-item-order="999511495" transform="translate(627, 76)"><g id="cp_3_g-3_1uo259qehzmks-stroke" fill="none" stroke-linecap="round" stroke-linejoin="round" stroke-miterlimit="4" stroke="#484848" stroke-width="4" stroke-opacity="1"><g><path d="M 190 46L 190 34C 190 27.6348 187.4714 21.5303 182.9706 17.0294C 178.4697 12.5286 172.3652 10 166 10L 34 10C 27.6348 10 21.5303 12.5286 17.0294 17.0294C 12.5286 21.5303 10 27.6348 10 34L 10 46M 190 214L 190 46M 10 46L 10 214M 190 214L 190 347.7143C 190 353.6248 187.4714 359.2933 182.9706 363.4727C 178.4697 367.652 172.3652 370 166 370L 34 370C 27.6348 370 21.5303 367.652 17.0294 363.4727C 12.5286 359.2933 10 353.6248 10 347.7143L 10 214M 190 46C 190.3 42 189.5 38 190 34C 190.9 27.7 187.8 21.2 183 17C 178.2 12.8 172.4 10.1 166 10C 144.9 9.7 123.8 10.2 102.7 10C 79.8 9.8 56.9 10 34 10C 27.6 10 21.6 12.6 17 17C 12.5 21.5 8.4 27.8 10 34C 11 37.9 11 42.1 10 46M 190 214C 190.6 195.1 189.2 176.3 190 157.4C 190.8 138.8 191.4 120.2 190 101.7C 188.6 83.2 188.6 64.5 190 46M 10 46C 9.6 65.8 10.4 85.7 10 105.6C 9.6 123.7 11.4 141.9 10 160C 8.6 177.9 10.6 196 10 214M 190 214C 191.3 234.3 190.3 254.8 190 275.2C 189.7 299.3 189 323.5 190 347.7C 190.3 353.6 186.7 358.6 183 363.5C 179.3 368.4 172.2 371.6 166 370C 143.8 364.4 120.2 369.1 97.3 370C 76.2 370.8 55 371.6 34 370C 27.7 369.5 21.7 367.5 17 363.5C 12.4 359.5 10.4 353.6 10 347.7C 8.7 327 10.3 306.2 10 285.5C 9.7 261.6 9 237.8 10 214M 190 46C 189.7 42 189.1 37.9 190 34C 191.5 27.8 188.8 19.7 183 17C 177.2 14.4 172.3 10.6 166 10C 159.2 9.3 152.4 10.6 145.6 10C 139.9 9.5 134.1 10.8 128.4 10C 122.5 9.2 116.4 10.8 110.5 10C 104.1 9.2 97.5 11 91.1 10C 85.2 9.1 78.8 8.1 73.2 10C 66.4 12.2 58.7 12.1 51.9 10C 46.2 8.3 39.7 11.7 34 10C 27.9 8.2 21.5 12.5 17 17C 12.5 21.5 8.5 27.8 10 34C 10.9 37.9 9.4 42 10 46M 190 214C 191.3 206.2 190.4 198.2 190 190.4C 189.6 182.3 191.6 174.1 190 166.1C 188.3 157.8 190.4 149.1 190 140.6C 189.6 132.8 189.8 125 190 117.3C 190.2 108.9 188.2 100.4 190 92.3C 191.7 84.2 187.5 75.5 190 67.6C 192.2 60.8 189.4 53.2 190 46M 10 46C 8.8 55.6 9 65.5 10 75.1C 10.9 83.5 9.2 91.9 10 100.2C 10.9 109.6 6.8 119.5 10 128.4C 13.3 137.5 11.5 147.9 10 157.5C 8.7 165.9 9.4 174.6 10 183.2C 10.7 193.4 12.1 203.9 10 214M 190 214C 189.9 219.9 191.1 225.8 190 231.6C 188.9 237.5 188.5 243.8 190 249.5C 191.6 255.7 191.3 262.4 190 268.7C 188.5 275.8 191.3 283.2 190 290.3C 188.9 296.7 190.6 303.2 190 309.6C 189.4 315.9 188.9 322.4 190 328.7C 191.1 334.9 189.5 341.4 190 347.7C 190.5 353.6 187.9 359.9 183 363.5C 178 367.1 171.9 367.6 166 370C 159.8 372.5 152.1 372.5 145.9 370C 138.6 367.1 129.9 372.3 122.4 370C 115.3 367.8 107 367.2 100.1 370C 93 372.9 84.8 369.8 77.1 370C 69.5 370.2 61.9 369.6 54.3 370C 47.6 370.3 40.3 367.5 34 370C 28.1 372.3 21.9 367.2 17 363.5C 12.1 359.8 12.2 353.2 10 347.7C 6 337.9 9.1 326.5 10 315.9C 10.9 305.2 8.9 294.3 10 283.6C 11.2 272.5 14.2 260.4 10 250C 5.5 238.9 10.8 226 10 214"></path></g></g></g><g id="g-root-cp_end_g-end_1q88n5aehznd1-stroke" data-item-order="999511521" transform="translate(819, 76)"><g id="cp_end_g-end_1q88n5aehznd1-stroke" fill="none" stroke-linecap="round" stroke-linejoin="round" stroke-miterlimit="4" stroke="#484848" stroke-width="4" stroke-opacity="1"><g><path d="M 190 46L 190 34C 190 27.6348 187.4714 21.5303 182.9706 17.0294C 178.4697 12.5286 172.3652 10 166 10L 34 10C 27.6348 10 21.5303 12.5286 17.0294 17.0294C 12.5286 21.5303 10 27.6348 10 34L 10 46M 190 214L 190 46M 10 46L 10 214M 190 214L 190 347.7143C 190 353.6248 187.4714 359.2933 182.9706 363.4727C 178.4697 367.652 172.3652 370 166 370L 34 370C 27.6348 370 21.5303 367.652 17.0294 363.4727C 12.5286 359.2933 10 353.6248 10 347.7143L 10 214M 190 46C 190.2 42 189.8 38 190 34C 190.3 27.6 187.3 21.7 183 17C 178.6 12.4 172.3 9.4 166 10C 144 12 121.9 10.8 99.8 10C 77.9 9.2 55.9 9.6 34 10C 27.6 10.1 22.4 13.5 17 17C 11.7 20.5 8.8 27.8 10 34C 10.8 37.9 10.8 42.1 10 46M 190 214C 189.3 199.1 188 184.1 190 169.3C 191.9 154.9 188.8 140.2 190 125.7C 191.1 112.7 190 99.6 190 86.6C 190 73.1 190.8 59.5 190 46M 10 46C 10.9 66.2 9.1 86.4 10 106.5C 10.8 124.4 9.8 142.2 10 160.1C 10.2 178.1 11 196.1 10 214M 190 214C 190.5 228.8 189.4 243.6 190 258.4C 190.6 274.5 189.4 290.7 190 306.8C 190.5 320.4 191.9 334.2 190 347.7C 189.2 353.6 187.1 358.9 183 363.5C 178.8 368 172.2 368.5 166 370C 145.4 375.1 123.6 369.7 102.3 370C 79.6 370.3 56.7 371.4 34 370C 27.6 369.6 21.2 368 17 363.5C 12.9 359 10.6 353.6 10 347.7C 8.4 332.9 10.4 318 10 303.1C 9.5 287.4 9.3 271.6 10 255.9C 10.6 242 8.3 227.9 10 214M 190 46C 191.1 42.2 190.2 38 190 34C 189.7 27.6 188.7 19.8 183 17C 177.2 14.3 172.1 8.3 166 10C 154.6 13.2 142.3 8.6 130.6 10C 120.8 11.2 110.3 6.6 101.1 10C 90.2 14 77.9 9.9 66.2 10C 55.5 10.1 44.4 7.3 34 10C 27.8 11.6 20.8 11.9 17 17C 13.3 22.2 10.8 27.7 10 34C 9.5 38 9.7 42 10 46M 190 214C 192.5 205.4 190.6 196 190 187C 189.5 178.5 191.9 169.8 190 161.5C 187.9 152.2 192 142.3 190 133C 187.9 123.2 188.6 112.9 190 103.1C 191.3 94.1 187.9 84.7 190 75.9C 192.3 66.2 186.7 55.4 190 46M 10 46C 9.6 52.8 11.7 59.9 10 66.5C 8.3 73 12.2 80.4 10 86.8C 7.5 94.1 8.2 102.4 10 109.9C 11.6 116.3 10 123 10 129.5C 10 136.4 9 143.3 10 150C 11 156.6 9.6 163.3 10 169.9C 10.4 176.8 11.6 183.9 10 190.6C 8.2 198.2 7.5 206.6 10 214M 190 214C 189.9 223.2 187.5 232.7 190 241.6C 192.4 250.2 191.3 259.6 190 268.5C 188.8 277 188.8 285.8 190 294.3C 191.2 303.2 187.9 312.5 190 321.2C 192 329.8 191.5 339 190 347.7C 189 353.5 188.1 360.1 183 363.5C 177.8 366.8 172.2 371.5 166 370C 157.3 367.9 148 368.8 139.1 370C 129.9 371.2 120.3 368.1 111.3 370C 102.3 371.9 92.8 369.4 83.6 370C 75.2 370.6 66.3 372.3 58.1 370C 50.4 367.9 42 369.8 34 370C 27.6 370.2 22.6 366 17 363.5C 11.4 361 11 353.5 10 347.7C 9.1 342.2 9 336.4 10 331C 11.1 325.1 8.6 318.9 10 313.1C 11.4 307.3 9.2 301.2 10 295.4C 10.7 289.9 11.2 284.2 10 278.8C 8.9 273.8 11.4 268.3 10 263.3C 8.7 258.6 10.1 253.4 10 248.5C 9.9 242.6 7.8 236.4 10 230.9C 12.1 225.7 10.3 219.6 10 214"></path></g></g></g><g id="g-root-cp_0_g-0_1hclmweehzo5q-stroke" data-item-order="999511545" transform="translate(15, 244)"><g id="cp_0_g-0_1hclmweehzo5q-stroke" fill="none" stroke-linecap="round" stroke-linejoin="round" stroke-miterlimit="4" stroke="#484848" stroke-width="4" stroke-opacity="1"><g><path d="M 1011 138.999997L 1018 146.999997L 1025 138.999997M 1011 138.999997L 1018 146.999997L 1025 138.999997M 989 116.999997L 982 108.999997L 975 116.999997M 989 116.999997L 982 108.999997L 975 116.999997M 989 128.999997L 982 120.999997L 975 128.999997M 989 128.999997L 982 120.999997L 975 128.999997M 989 140.999997L 982 132.999997L 975 140.999997M 989 140.999997L 982 132.999997L 975 140.999997M 962 94.230597L 946 81.310597L 930 94.230597M 962 94.230597L 946 81.310597L 930 94.230597M 962 113.619397L 946 100.689497L 930 113.619397M 962 113.619397L 946 100.689497L 930 113.619397M 962 133.000097L 946 120.080097L 930 133.000097M 962 133.000097L 946 120.080097L 930 133.000097M 170 94.230597L 154 81.310597L 138 94.230597M 170 94.230597L 154 81.310597L 138 94.230597M 170 113.619397L 154 100.689497L 138 113.619397M 170 113.619397L 154 100.689497L 138 113.619397M 170 133.000097L 154 120.080097L 138 133.000097M 170 133.000097L 154 120.080097L 138 133.000097M 110 94.230597L 94 81.310597L 78 94.230597M 110 94.230597L 94 81.310597L 78 94.230597M 110 113.619397L 94 100.689497L 78 113.619397M 110 113.619397L 94 100.689497L 78 113.619397M 110 133.000097L 94 120.080097L 78 133.000097M 110 133.000097L 94 120.080097L 78 133.000097M 67 119.850997L 57.86 112.460897L 48.71 119.850997M 67 119.850997L 57.86 112.460897L 48.71 119.850997M 67 130.919097L 57.86 123.539097L 48.71 130.919097M 67 130.919097L 57.86 123.539097L 48.71 130.919097M 67 141.999097L 57.86 134.619097L 48.71 141.999097M 67 141.999097L 57.86 134.619097L 48.71 141.999097M 915 138.999997L 922 146.999997L 929 138.999997M 915 138.999997L 922 146.999997L 929 138.999997M 327 138.999997L 334 146.999997L 341 138.999997M 327 138.999997L 334 146.999997L 341 138.999997M 303 138.999997L 310 146.999997L 317 138.999997M 303 138.999997L 310 146.999997L 317 138.999997M 279 138.999997L 286 146.999997L 293 138.999997M 279 138.999997L 286 146.999997L 293 138.999997M 111 138.999997L 118 146.999997L 125 138.999997M 111 138.999997L 118 146.999997L 125 138.999997M 15 138.999997L 22 146.999997L 29 138.999997M 15 138.999997L 22 146.999997L 29 138.999997M 297.0002 134.999997L 276.7603 123.139997C 270.268 119.338997 264.4411 114.501797 259.5102 108.819997L 238.7602 84.889997C 237.5642 83.507397 235.9142 82.596697 234.1069 82.321697C 232.2995 82.046797 230.4533 82.425597 228.9002 83.389997L 220.4202 88.650097C 218.7571 89.680297 216.8931 90.343497 214.953 90.595297C 213.0128 90.847097 211.0413 90.681597 209.1702 90.109997C 207.1875 89.502797 205.0929 89.352897 203.0439 89.671597C 200.9949 89.990297 199.0449 90.769297 197.3402 91.949997L 186.0902 99.720097C 183.9942 101.168697 181.6232 102.171697 179.1239 102.667097C 176.6247 103.162497 174.0503 103.139697 171.5602 102.600097L 169.4902 102.139997M 231.8198 102.819797L 239.3398 98.439797C 240.2838 97.887997 241.338 97.551697 242.4272 97.454897C 243.5163 97.358097 244.6133 97.503197 245.6398 97.879797C 248.4919 98.880797 251.1859 100.284997 253.6398 102.049797M 244.4199 90.999997L 247.4199 91.469997M 781 90.489997L 784 89.999997M 244 81.999997L 244 90.919997L 244.4199 90.999997M 250.2298 144.240897L 239.2298 128.530997C 238.6986 127.775197 237.9026 127.246897 236.9998 127.050897C 234.5282 126.529797 232.1059 125.797097 229.7598 124.860897C 229.0318 124.555697 228.2247 124.493897 227.4587 124.684997C 226.6928 124.875997 226.0092 125.309497 225.5098 125.920897L 218.8198 134.160997M 223.4101 128.489197L 215.9001 124.369197C 214.9274 123.831297 213.812 123.607897 212.7072 123.729697C 211.6023 123.851397 210.5623 124.312397 209.7301 125.049197L 200.6401 133.049197M 808.94 154.000797L 798.94 135.330897C 797.1119 131.901397 794.2006 129.172997 790.66 127.570797L 783.85 124.480797C 780.45 122.948197 777.592 120.424697 775.65 117.240797L 769.65 107.450897C 769.3858 107.016597 769.0245 106.649497 768.5945 106.378297C 768.1645 106.107097 767.6775 105.939297 767.1718 105.887897C 766.666 105.836597 766.1553 105.903097 765.6796 106.082297C 765.2039 106.261497 764.7761 106.548497 764.43 106.920797L 758.65 113.140897C 755.5021 116.531197 752.5981 120.140197 749.96 123.940797C 747.0301 128.169897 744.4387 132.623797 742.21 137.260897L 740 142.000797M 785.4502 138.210897C 785.4502 138.210897 791.3302 132.450897 795.9502 131.210897M 836.3198 116.630297L 848.5998 106.280297C 850.024 105.077497 851.776 104.328797 853.6296 104.130997C 855.4833 103.933097 857.3538 104.295097 858.9998 105.170297L 866.5698 109.170297C 869.8852 110.940597 873.688 111.579597 877.3998 110.990297L 879.7698 110.620297C 884.9374 109.820897 889.9438 108.200397 894.5998 105.820297L 910.6898 97.560297C 911.409 97.189097 912.2275 97.055897 913.0273 97.179897C 913.8271 97.303897 914.5668 97.678697 915.1398 98.250297L 919.8098 102.920297M 770.48 108.699297L 784 90.219297L 797 72.399297C 798.1307 70.853997 799.6543 69.639297 801.4127 68.881497C 803.1711 68.123597 805.1002 67.850097 807 68.089297L 820 69.719297C 821.7403 69.936797 823.5072 69.770097 825.1761 69.231097C 826.8451 68.691997 828.3756 67.793697 829.66 66.599297L 835.66 61.029297C 839.4723 57.476897 843.7276 54.431697 848.32 51.969297L 848.92 51.649297C 850.5719 50.765997 852.4144 50.298897 854.2876 50.288497C 856.1608 50.277997 858.0083 50.724497 859.67 51.589297L 863.32 53.489297C 865.173 54.450897 867.2524 54.890997 869.3361 54.762397C 871.4197 54.633797 873.4294 53.941397 875.15 52.759297L 887.52 44.259297C 889.6295 42.807997 892.1295 42.030497 894.69 42.029297L 909.9 42.029297C 912.8149 42.032297 915.6398 43.038697 917.9 44.879297L 934 57.999297M 898.8599 67.450897L 901.7099 60.800797C 903.0094 57.752297 905.0515 55.077697 907.6499 53.020897L 917.9099 44.880897M 872.3801 94.310697L 864.0001 87.090697C 862.499 85.800797 860.6903 84.920497 858.7491 84.534997C 856.8079 84.149597 854.8 84.272097 852.92 84.890697L 844.6401 87.600697C 842.4701 88.311197 840.1377 88.359697 837.9401 87.739897C 835.7424 87.120197 833.7791 85.860297 832.3 84.120697L 820.0601 69.720697M 10 153.999997L 1030 153.999997M 1018 153.999997L 1018 135.999997M 982 101.999997L 982 153.999997M 946 69.999997L 946 153.999997M 154 69.999997L 154 153.999997M 94 69.999997L 94 153.999997M 57.8599 105.999997L 57.8599 153.999997M 922 153.999997L 922 135.999997M 334 153.999997L 334 135.999997M 310 153.999997L 310 135.999997M 286 153.999997L 286 135.999997M 118 153.999997L 118 135.999997M 22 153.999997L 22 135.999997M 784 81.999997L 784 90.229997M 868.05 27.97L 850 27.97L 850 16L 868.05 16L 865.05 21.99L 868.05 27.97ZM 850 10L 850 51.15M 294.999987 61C 297.209187 61 298.999987 59.2091 298.999987 57C 298.999987 54.7909 297.209187 53 294.999987 53C 292.790887 53 290.999987 54.7909 290.999987 57C 290.999987 59.2091 292.790887 61 294.999987 61ZM 292.939987 64.3594L 292.939987 71.2394C 292.937987 71.4036 292.983487 71.5649 293.071187 71.7038C 293.158887 71.8427 293.284887 71.9532 293.434087 72.0219C 293.583287 72.0907 293.749087 72.1148 293.911687 72.0912C 294.074187 72.0677 294.226487 71.9976 294.349987 71.8894L 299.259987 67.7094M 289.520087 75.2109L 289.520087 77.8209C 289.517387 78.1643 289.609287 78.5017 289.785687 78.7963C 289.962087 79.0908 290.216187 79.3312 290.520087 79.4909C 293.010087 80.7709 299.310087 85.1209 300.520087 96.7909M 288.909887 63.5593C 286.739587 67.0653 285.487687 71.0617 285.269887 75.1793C 285.259187 75.4653 285.181487 75.7449 285.043187 75.9954C 284.904887 76.246 284.709687 76.4606 284.473387 76.622C 284.237087 76.7834 283.966187 76.8872 283.682487 76.9249C 283.398787 76.9627 283.110187 76.9334 282.839887 76.8394C 281.834387 76.5017 280.898987 75.9831 280.079887 75.3093C 279.394687 74.7146 278.916787 73.9171 278.715387 73.0325C 278.513987 72.1478 278.599587 71.222 278.959887 70.3893C 280.119887 67.6693 282.359887 63.1993 285.469887 60.6193C 285.707887 60.4235 286.006587 60.3164 286.314887 60.3164C 286.623087 60.3164 286.921787 60.4235 287.159887 60.6193L 288.639887 61.8693C 288.880087 62.0718 289.039387 62.3539 289.088987 62.6641C 289.138587 62.9743 289.074987 63.2921 288.909887 63.5593ZM 289.520187 83.9297L 282.240187 94.7097M 1011 139C 1013.7 141.3 1016.1 144 1018 147C 1020.4 144.4 1022.8 141.8 1025 139M 1011 139C 1013.7 141.3 1016.6 143.8 1018 147C 1020.5 144.4 1023.5 142.2 1025 139M 989 117C 986.5 114.4 983.4 112.3 982 109C 979.5 111.5 976.7 113.9 975 117M 989 117C 987.1 114 984.2 111.8 982 109C 979.7 111.7 977.8 114.8 975 117M 989 129C 986.5 126.5 985 123 982 121C 979.3 123.3 978 127.1 975 129M 989 129C 987.8 125.7 983.9 124 982 121C 979.8 123.8 978.2 127.4 975 129M 989 141C 986.3 138.7 984.8 135.1 982 133C 980.3 136.1 976.9 138 975 141M 989 141C 986.6 138.4 983.6 136.2 982 133C 979.6 135.6 977.9 139 975 141M 962 94.2C 958 88.7 952.1 84.4 946 81.3C 941 86 935.7 90.4 930 94.2M 962 94.2C 957 89.5 951.3 85.6 946 81.3C 940.1 84.8 935.7 90.3 930 94.2M 962 113.6C 957.1 108.8 950.6 105.8 946 100.7C 940.3 104.6 934.8 108.7 930 113.6M 962 113.6C 956.2 110 950 106.3 946 100.7C 941.5 105.9 935.5 109.6 930 113.6M 962 133C 956.3 129.2 951.6 124 946 120.1C 940.1 123.5 935.1 128.4 930 133M 962 133C 956.6 128.7 951.7 123.9 946 120.1C 940.6 124.3 936.2 130 930 133M 170 94.2C 164.7 89.9 159.7 85.2 154 81.3C 147.9 84.4 142.6 89.2 138 94.2M 170 94.2C 164.8 89.8 160.2 84.3 154 81.3C 148.8 85.7 142.9 89.4 138 94.2M 170 113.6C 164.5 109.5 157.9 106.3 154 100.7C 148.9 105.3 144.1 110.6 138 113.6M 170 113.6C 165 108.9 159.8 104.3 154 100.7C 148.2 104.3 144.3 110.8 138 113.6M 170 133C 164.8 128.5 160.3 122.7 154 120.1C 149.4 125.2 143.6 129.1 138 133M 170 133C 165.7 127.6 159.1 124.7 154 120.1C 149.5 125.3 143.5 128.9 138 133M 110 94.2C 104.7 89.9 98.9 86.1 94 81.3C 89.3 86.3 83.3 89.8 78 94.2M 110 94.2C 104.2 90.6 100.2 84.3 94 81.3C 89 86 83.8 90.6 78 94.2M 110 113.6C 104.7 109.3 99.6 104.7 94 100.7C 88.5 104.8 83.9 110.1 78 113.6M 110 113.6C 105.3 108.6 98.8 105.5 94 100.7C 88.3 104.5 83.3 109.2 78 113.6M 110 133C 105.6 127.8 99.3 124.4 94 120.1C 90.1 125.7 82.4 127.8 78 133M 110 133C 105 128.3 98.4 125.3 94 120.1C 88 123.4 83.3 128.7 78 133M 67 119.9C 64 117.3 59.7 115.9 57.9 112.5C 54.6 114.7 52 117.8 48.7 119.9M 67 119.9C 63.6 117.8 61.3 114.3 57.9 112.5C 55 115.1 51.5 117.1 48.7 119.9M 67 130.9C 64.1 128.3 60.9 126 57.9 123.5C 55.2 126.4 51.5 128.2 48.7 130.9M 67 130.9C 64.3 128.1 61 125.9 57.9 123.5C 55 126.2 52.2 129.1 48.7 130.9M 67 142C 64.6 138.9 61.4 136.2 57.9 134.6C 55.3 137.6 50.7 138.6 48.7 142M 67 142C 64.3 139.2 61.3 136.5 57.9 134.6C 55.1 137.4 50.9 138.8 48.7 142M 915 139C 917.4 141.6 919.7 144.3 922 147C 923.8 144 926.3 141.4 929 139M 915 139C 917.2 141.8 920 144.1 922 147C 925.1 145.3 927.1 142 929 139M 327 139C 328.5 142.2 331.1 144.9 334 147C 335.9 144 338.8 141.8 341 139M 327 139C 330 140.9 331.3 144.7 334 147C 336 144.1 338.8 141.8 341 139M 303 139C 304.7 142.1 307.6 144.4 310 147C 311.9 144 314.7 141.7 317 139M 303 139C 305.5 141.5 307.9 144.2 310 147C 313.1 145.4 314.8 141.7 317 139M 279 139C 281.6 141.4 283.2 144.8 286 147C 287.6 143.9 291.2 142.1 293 139M 279 139C 281.7 141.3 283.2 144.8 286 147C 288.6 144.6 290 140.9 293 139M 111 139C 113.1 141.8 115.2 144.8 118 147C 120.7 144.7 122.4 141.4 125 139M 111 139C 113 141.9 116.1 144 118 147C 119.6 143.9 121.8 140.6 125 139M 15 139C 17.8 141.2 19.6 144.4 22 147C 24.3 144.3 26.9 141.8 29 139M 15 139C 17.8 141.2 19.5 144.5 22 147C 23.8 144 27.4 142.1 29 139M 297 135C 290.3 130.9 283.8 126.6 276.8 123.1C 270 119.8 264.5 114.4 259.5 108.8C 252.5 101 244.1 94 238.8 84.9C 237.8 83.3 235.9 82.6 234.1 82.3C 232.3 82.1 230.5 82.5 228.9 83.4C 226 85.1 223.1 86.6 220.4 88.7C 218.9 89.8 216.9 90.8 215 90.6C 213 90.4 211 90.7 209.2 90.1C 207.2 89.5 204.9 88.7 203 89.7C 201.2 90.7 198.7 90.4 197.3 91.9C 194.4 95.4 190.2 97.8 186.1 99.7C 183.8 100.8 181.4 101.5 179.1 102.7C 176.9 103.9 174 103.4 171.6 102.6C 170.9 102.4 170.2 102.1 169.5 102.1M 231.8 102.8C 234.3 101.3 236.7 99.7 239.3 98.4C 240.3 98 241.4 97.1 242.4 97.5C 243.5 97.8 244.6 97.4 245.6 97.9C 248.6 98.2 251.1 100.5 253.6 102M 244.4 91C 245.4 90.9 246.4 91.3 247.4 91.5M 781 90.5C 782 90.5 783.1 90.4 784 90M 244 82C 244.4 84.9 244.1 87.9 244 90.9C 244.1 90.9 244.3 91 244.4 91M 250.2 144.2C 245.7 139.7 243.9 132.9 239.2 128.5C 238.6 127.9 237.9 127.3 237 127.1C 234.6 126.3 232 126.1 229.8 124.9C 229 124.6 228.2 124.6 227.5 124.7C 226.7 124.8 225.9 125.3 225.5 125.9C 223.6 128.9 221.3 131.6 218.8 134.2M 223.4 128.5C 221.4 126.5 218.6 125.2 215.9 124.4C 214.8 124 213.7 123.3 212.7 123.7C 211.7 124.1 210.8 124.6 209.7 125C 206 126.6 203.7 130.4 200.6 133M 808.9 154C 804.5 148.5 803.4 140.8 798.9 135.3C 796.5 132.3 794 129.6 790.7 127.6C 788.5 126.2 785.9 125.9 783.9 124.5C 780.8 122.3 776.9 120.8 775.7 117.2C 774.4 113.6 771.7 110.7 769.7 107.5C 769.4 107 769.1 106.5 768.6 106.4C 768.1 106.2 767.6 106.1 767.2 105.9C 766.7 105.7 766.1 105.8 765.7 106.1C 765.3 106.4 764.7 106.5 764.4 106.9C 763.2 109.5 760 110.6 758.7 113.1C 756.5 117.2 753.2 120.6 750 123.9C 746.4 127.7 745 133 742.2 137.3C 741.2 138.7 740.5 140.3 740 142M 785.5 138.2C 785.5 138.2 791.3 132.4 796 131.2M 836.3 116.6C 839.7 112.5 845.2 110.4 848.6 106.3C 849.8 104.8 851.8 103.7 853.6 104.1C 855.4 104.6 857.6 103.9 859 105.2C 861.1 107.1 863.8 108.5 866.6 109.2C 870.2 110.1 873.8 112.2 877.4 111C 878.2 110.7 879 110.9 879.8 110.6C 884.5 108.5 889.9 108.2 894.6 105.8C 900 103.1 906.2 101.6 910.7 97.6C 911.3 97 912.2 97.2 913 97.2C 913.8 97.2 914.5 97.7 915.1 98.3C 916.8 99.7 918.4 101.2 919.8 102.9M 770.5 108.7C 774 101.9 779.3 96.2 784 90.2C 788.5 84.4 792.3 78.1 797 72.4C 798.2 70.9 799.6 69.6 801.4 68.9C 803.2 68.2 805.1 68.1 807 68.1C 811.4 68.1 816.1 67.8 820 69.7C 821.6 70.5 823.5 69.7 825.2 69.2C 826.9 68.8 828.8 68.1 829.7 66.6C 831 64.2 833.6 62.8 835.7 61C 839.6 57.7 843.4 53.8 848.3 52C 848.5 51.9 848.7 51.7 848.9 51.6C 850.7 51 852.4 50 854.3 50.3C 856.1 50.5 858.1 50.6 859.7 51.6C 860.8 52.3 862 53 863.3 53.5C 865.3 54.2 867.3 54.8 869.3 54.8C 871.4 54.8 873.5 54.1 875.2 52.8C 879.1 49.6 883.1 46.6 887.5 44.3C 889.8 43.1 892.2 41.7 894.7 42C 899.7 42.6 905 43.2 909.9 42C 912.7 41.3 915.9 42.8 917.9 44.9C 922.6 49.9 928 54.6 934 58M 898.9 67.5C 899.2 65.1 901.2 63.2 901.7 60.8C 902.4 57.6 904.6 54.3 907.6 53C 911.7 51.3 914.2 47.2 917.9 44.9M 872.4 94.3C 869.5 92 867 89.3 864 87.1C 862.4 85.9 860.7 85 858.7 84.5C 856.8 84.1 854.9 84.9 852.9 84.9C 850 84.9 847.5 87.7 844.6 87.6C 842.4 87.5 840 88.6 837.9 87.7C 835.8 86.8 833 86.3 832.3 84.1C 830.3 78.1 824 74.6 820.1 69.7M 10 154C 28.2 155.1 46.5 154.6 64.7 154C 82.2 153.4 99.7 152.8 117.2 154C 133.2 155.1 149.4 152.6 165.5 154C 185 155.8 204.7 153.7 224.3 154C 241.8 154.3 259.2 153.1 276.7 154C 295.8 155 314.9 153.3 334.1 154C 350.5 154.6 367 155.2 383.5 154C 401.7 152.7 420.1 154.8 438.4 154C 455.4 153.3 472.6 155.5 489.7 154C 508.2 152.4 527 152.6 545.6 154C 563 155.3 580.5 153.4 598 154C 617 154.7 636.1 153.7 655.2 154C 674.7 154.3 694.3 154.3 713.8 154C 731.3 153.7 748.9 155.6 766.3 154C 783 152.5 799.9 152.3 816.6 154C 834.9 155.8 853.3 154.8 871.6 154C 887.4 153.3 903.3 154.9 919.2 154C 938.9 152.9 958.7 152.9 978.4 154C 995.6 154.9 1012.9 152.1 1030 154M 1018 154C 1018.9 148.1 1016.7 141.9 1018 136M 982 102C 982.1 119.3 982.1 136.7 982 154M 946 70C 944.4 97.9 946.8 126 946 154M 154 70C 152.4 85 153.2 100.2 154 115.2C 154.7 128.1 154.6 141.1 154 154M 94 70C 94.5 83.9 94.1 97.9 94 111.9C 93.9 125.9 94.3 139.9 94 154M 57.9 106C 56.1 121.9 57.9 138 57.9 154M 922 154C 921.8 148 922 142 922 136M 334 154C 334.5 148 334.4 142 334 136M 310 154C 310.1 148 310.3 142 310 136M 286 154C 287.4 148.2 287.9 141.7 286 136M 118 154C 118.7 148 117.8 142 118 136M 22 154C 21.9 148 22.2 142 22 136M 784 82C 783.5 84.7 783.9 87.5 784 90.2M 868.1 28C 862 28.4 856 28.5 850 28C 850.4 24 850 20 850 16C 856 16.3 862 15.5 868.1 16C 866.8 17.9 865.5 19.8 865.1 22C 865.7 24.1 866.6 26.2 868.1 28M 850 10C 850.6 23.7 849.5 37.4 850 51.2M 295 61C 297.2 60.7 298.9 59.2 299 57C 299.1 54.8 297.2 52.5 295 53C 292.8 53.5 290.8 54.8 291 57C 291.2 59.2 292.8 60.8 295 61M 292.9 64.4C 293.8 66.5 292.9 69 292.9 71.2C 292.9 71.4 293 71.5 293.1 71.7C 293.1 71.9 293.3 72 293.4 72C 293.6 72.1 293.8 72.1 293.9 72.1C 294.1 72.1 294.2 72 294.3 71.9C 295.8 70.3 297.5 69 299.3 67.7M 289.5 75.2C 289.8 76.1 289.6 76.9 289.5 77.8C 289.5 78.2 289.6 78.5 289.8 78.8C 290 79.1 290.2 79.3 290.5 79.5C 293 80.7 300 85.1 300.5 96.8M 288.9 63.6C 286.5 66.9 286 71.1 285.3 75.2C 285.2 75.5 285.2 75.8 285 76C 284.9 76.2 284.7 76.5 284.5 76.6C 284.2 76.8 284 76.9 283.7 76.9C 283.4 77 283.1 76.9 282.8 76.8C 281.8 76.8 280.7 76.2 280.1 75.3C 279.2 75 278.8 73.9 278.7 73C 278.6 72.1 278.7 71.3 279 70.4C 279.9 67.6 282.2 63 285.5 60.6C 285.7 60.4 286 60.3 286.3 60.3C 286.6 60.3 286.9 60.4 287.2 60.6C 287.7 61 288.3 61.3 288.6 61.9C 288.8 62.1 289.1 62.3 289.1 62.7C 289 63 289.1 63.3 288.9 63.6M 289.5 83.9C 286.6 87.1 284.6 91.1 282.2 94.7M 1011 139C 1013.4 141.6 1016 144.1 1018 147C 1020.6 144.6 1023.3 142.1 1025 139M 1011 139C 1013.7 141.3 1016.3 143.9 1018 147C 1019.7 143.9 1022.4 141.4 1025 139M 989 117C 985.9 115.2 984 111.9 982 109C 980.8 112.3 976.2 113.7 975 117M 989 117C 987.5 113.8 984.3 111.7 982 109C 980.8 112.3 976.4 113.8 975 117M 989 129C 987.8 125.7 983.7 124.1 982 121C 979 123 978.1 127.3 975 129M 989 129C 986 127.2 983.2 124.3 982 121C 980.4 124.2 976.8 125.9 975 129M 989 141C 986.7 138.3 984.9 135 982 133C 980.1 136 977.4 138.4 975 141M 989 141C 985.9 139.2 983.6 136.2 982 133C 979.4 135.4 977.9 139 975 141M 962 94.2C 956.2 90.5 950.5 86.5 946 81.3C 939.8 84.3 935.3 89.8 930 94.2M 962 94.2C 957.9 88.7 952.5 83.6 946 81.3C 940.8 85.8 933.4 88.3 930 94.2M 962 113.6C 956.2 110 949.8 106.4 946 100.7C 940.6 104.9 935.1 109.1 930 113.6M 962 113.6C 958.6 107.7 952.3 103.3 946 100.7C 940.4 104.6 936.5 111.3 930 113.6M 962 133C 956.2 129.3 949.4 126.1 946 120.1C 940.6 124.3 934.2 127.6 930 133M 962 133C 956.3 129.3 951.3 124.5 946 120.1C 940.9 124.6 935.8 129.4 930 133M 170 94.2C 165.5 89.1 158.5 86.5 154 81.3C 147.4 83.3 143.7 90.5 138 94.2M 170 94.2C 165.8 88.8 159 86 154 81.3C 149.3 86.3 141.9 88.6 138 94.2M 170 113.6C 164.2 110 160.4 103.2 154 100.7C 149.4 105.7 141.8 107.9 138 113.6M 170 113.6C 163.9 110.4 160 104 154 100.7C 149.6 106 141.5 107.7 138 113.6M 170 133C 164.9 128.4 160.5 122.2 154 120.1C 150.1 125.8 143.4 128.8 138 133M 170 133C 163.5 130.8 157.5 125.9 154 120.1C 148.3 123.8 143.4 128.8 138 133M 110 94.2C 105.9 88.7 98.9 86.2 94 81.3C 88.6 85.6 82.5 89.1 78 94.2M 110 94.2C 104.1 90.8 100.2 84.1 94 81.3C 88.4 85.3 83.3 89.9 78 94.2M 110 113.6C 104.9 109 99.2 105.1 94 100.7C 89.9 106.2 82.1 108.1 78 113.6M 110 113.6C 103.8 110.6 99.1 105.3 94 100.7C 88.3 104.5 83.6 109.7 78 113.6M 110 133C 104.3 129.2 98.8 124.9 94 120.1C 89.7 125.4 84.3 130.3 78 133M 110 133C 107.9 130.2 104.5 128.7 101.8 126.4C 99.3 124.2 95.6 123 94 120.1C 90 125.6 81.5 127.1 78 133M 67 119.9C 64.3 117 60.5 115.3 57.9 112.5C 55 115.2 52.3 118.2 48.7 119.9M 67 119.9C 63.6 117.8 60.5 115.3 57.9 112.5C 54.2 113.9 51.3 116.9 48.7 119.9M 67 130.9C 63.9 128.5 61.1 125.8 57.9 123.5C 54.8 125.9 52.4 129.6 48.7 130.9M 67 130.9C 64.2 128.2 60.7 126.2 57.9 123.5C 54.8 125.9 52.4 129.7 48.7 130.9M 67 142C 63.5 140.3 60.7 137.3 57.9 134.6C 55.2 137.5 52.1 140 48.7 142M 67 142C 64.3 139.2 60.1 137.8 57.9 134.6C 54.9 137.2 51.7 139.5 48.7 142M 915 139C 917.2 141.8 919.7 144.3 922 147C 924.8 144.8 926.9 141.8 929 139M 915 139C 917 141.9 919.6 144.4 922 147C 924.1 144.1 926.2 141.2 929 139M 327 139C 328.7 142.1 331.4 144.6 334 147C 336.8 144.8 338.5 141.5 341 139M 327 139C 330 140.8 332 144.1 334 147C 336.4 144.4 339.6 142.2 341 139M 303 139C 304.8 142.1 306.9 145.3 310 147C 312.7 144.7 315.3 142.1 317 139M 303 139C 304.2 142.3 307.1 144.9 310 147C 312.7 144.7 313.8 140.6 317 139M 279 139C 281.6 141.4 284.1 144 286 147C 287.5 143.8 291.5 142.2 293 139M 279 139C 282 140.9 284.5 143.8 286 147C 288.4 144.4 290.1 141 293 139M 111 139C 114.1 140.8 116.7 143.7 118 147C 120.6 144.6 122.5 141.5 125 139M 111 139C 112.7 142.1 115.8 144.2 118 147C 120.3 144.3 122.5 141.5 125 139M 15 139C 18.2 140.6 20.2 143.9 22 147C 24.8 144.8 26.7 141.7 29 139M 15 139C 16.8 142.1 19.1 145 22 147C 23.6 143.8 26.8 141.8 29 139M 297 135C 291 129.9 283.5 127.1 276.8 123.1C 270.2 119.4 263 115.5 259.5 108.8C 254.6 99.5 245.7 92.9 238.8 84.9C 237.6 83.5 235.9 82.8 234.1 82.3C 232.3 81.9 230.6 82.7 228.9 83.4C 225.8 84.7 222.8 86.3 220.4 88.7C 219 90 216.9 90.7 215 90.6C 213 90.5 211.1 90.2 209.2 90.1C 207.1 90 205.1 89.4 203 89.7C 201 89.9 198.5 90.2 197.3 91.9C 194.9 95.8 189.2 96.4 186.1 99.7C 184.3 101.6 181.7 102.7 179.1 102.7C 176.6 102.6 174.1 102.5 171.6 102.6C 170.9 102.6 170.2 102.4 169.5 102.1M 231.8 102.8C 233.9 100.8 236.6 99.2 239.3 98.4C 240.4 98.1 241.3 97.4 242.4 97.5C 243.5 97.5 244.6 97.5 245.6 97.9C 248.3 99.4 251.2 100.3 253.6 102M 244.4 91C 245.4 91.4 246.4 91.5 247.4 91.5M 781 90.5C 781.9 90.1 783.1 90.5 784 90M 244 82C 244.6 84.9 245 88.1 244 90.9C 244.1 91 244.3 91 244.4 91M 250.2 144.2C 245.8 139.6 244.1 132.7 239.2 128.5C 238.5 127.9 237.9 127.2 237 127.1C 234.5 126.8 232 126.1 229.8 124.9C 229 124.7 228.2 124.5 227.5 124.7C 226.7 124.9 226.1 125.4 225.5 125.9C 222.9 128.3 220.2 130.9 218.8 134.2M 223.4 128.5C 221 126.9 218.7 125.1 215.9 124.4C 214.8 124.1 213.8 123.8 212.7 123.7C 211.6 123.6 210.4 124.1 209.7 125C 207.4 128.3 203 129.8 200.6 133M 808.9 154C 805.8 147.7 799.9 142.3 798.9 135.3C 798.4 131.5 794 129.5 790.7 127.6C 788.5 126.4 785.7 126.1 783.9 124.5C 781 122 778.3 119.8 775.7 117.2C 772.9 114.6 772.2 110.3 769.7 107.5C 769.3 107.1 768.9 106.8 768.6 106.4C 768.3 106 767.6 106.1 767.2 105.9C 766.7 105.7 766.1 105.8 765.7 106.1C 765.3 106.4 764.8 106.6 764.4 106.9C 762.4 108.9 761.2 111.9 758.7 113.1C 754.5 115.1 752.7 120.2 750 123.9C 746.9 128.1 745 132.9 742.2 137.3C 741.1 138.6 740.1 140.3 740 142M 785.5 138.2C 785.5 138.2 791.5 132.9 796 131.2M 836.3 116.6C 839.4 112.3 843.9 108.9 848.6 106.3C 850.2 105.4 852 105 853.6 104.1C 855.3 103.2 857.3 104.4 859 105.2C 861.6 106.3 863.9 108.3 866.6 109.2C 870.1 110.4 873.8 112 877.4 111C 878.2 110.8 879 110.8 879.8 110.6C 884.9 109.6 889.7 107.5 894.6 105.8C 900.3 103.8 906 101.3 910.7 97.6C 911.3 97.1 912.2 97.1 913 97.2C 913.8 97.3 914.5 97.8 915.1 98.3C 917 99.5 917.9 101.8 919.8 102.9M 770.5 108.7C 775.5 103 779.1 96.1 784 90.2C 788.7 84.6 793.8 79 797 72.4C 797.8 70.7 799.6 69.5 801.4 68.9C 803.2 68.3 805.2 67.5 807 68.1C 811.1 69.5 815.7 70.7 820 69.7C 821.7 69.3 823.5 69.8 825.2 69.2C 826.8 68.7 828.6 68 829.7 66.6C 831.3 64.4 834.1 63.3 835.7 61C 838.6 56.7 843.2 52.7 848.3 52C 848.5 51.9 848.7 51.7 848.9 51.6C 850.7 51 852.5 50.8 854.3 50.3C 856.1 49.8 858 50.8 859.7 51.6C 860.9 52.2 862 53 863.3 53.5C 865.3 54.2 867.4 55.4 869.3 54.8C 871.3 54.1 873.8 54.3 875.2 52.8C 878.5 49 883.5 47.2 887.5 44.3C 889.6 42.7 892.1 41.9 894.7 42C 899.7 42.4 904.8 42.1 909.9 42C 912.8 42 916.1 42.6 917.9 44.9C 922.2 50.3 930.1 52.3 934 58M 898.9 67.5C 899.4 65.1 901.3 63.2 901.7 60.8C 902.3 57.5 905.1 55.1 907.6 53C 911 50.3 915.5 48.5 917.9 44.9M 872.4 94.3C 870.1 91.4 866.7 89.7 864 87.1C 862.6 85.7 860.6 85.2 858.7 84.5C 856.9 83.9 854.4 83.6 852.9 84.9C 850.7 86.7 847.5 87.7 844.6 87.6C 842.4 87.5 840 88.7 837.9 87.7C 835.9 86.8 834 85.6 832.3 84.1C 827.6 80 824.1 74.6 820.1 69.7M 10 154C 14.8 154.2 19.9 152.4 24.5 154C 28.8 155.4 33.5 153.2 37.9 154C 42.8 154.9 47.9 153.7 52.9 154C 57.9 154.3 63.2 155.2 68.1 154C 72.7 152.9 77.8 155.4 82.3 154C 87 152.5 92.3 155.3 97.1 154C 101.4 152.9 106 152.8 110.2 154C 114.5 155.2 119.3 155.4 123.5 154C 128.3 152.4 133.8 152.9 138.8 154C 143.6 155.1 148.8 155.5 153.4 154C 157.9 152.6 162.9 153.3 167.6 154C 172 154.7 176.6 153 181 154C 186 155.2 191.6 152.3 196.6 154C 200.8 155.5 205.8 152.9 210.2 154C 214.9 155.1 220.1 155.6 224.7 154C 229 152.5 233.8 154 238.4 154C 243.6 154 248.8 153.4 254 154C 258.5 154.6 263.3 152.7 267.6 154C 272 155.3 276.8 153.6 281.4 154C 286.4 154.5 291.5 153.1 296.4 154C 301.5 155 306.8 155.2 311.8 154C 316.5 152.9 321.5 154.6 326.3 154C 330.8 153.4 335.5 155 340 154C 344.3 153 348.9 153.1 353.2 154C 358.3 155.1 363.7 153.7 369 154C 374 154.3 378.9 153.9 383.9 154C 388.8 154.1 393.8 154.2 398.7 154C 404 153.8 409.5 152.3 414.4 154C 419.1 155.6 424.5 152.4 429.2 154C 434 155.7 439.6 155 444.6 154C 448.9 153.1 453.5 154.4 457.8 154C 462.7 153.5 467.7 153.9 472.6 154C 477.2 154.1 481.8 154.8 486.3 154C 490.8 153.1 495.8 152.5 500.2 154C 504.9 155.6 510.1 153.7 515 154C 519.7 154.3 524.5 152.7 529 154C 533.7 155.4 538.9 153.7 543.8 154C 548.6 154.3 553.6 153.3 558.4 154C 563.3 154.7 568.3 153 573.1 154C 577.5 154.9 582.2 154.6 586.6 154C 591 153.4 595.6 153.1 599.9 154C 604.5 155 609.3 153.4 613.9 154C 618.7 154.7 623.6 153.4 628.4 154C 633 154.6 637.9 155.3 642.3 154C 646.7 152.7 651.3 154 655.8 154C 660.6 154 665.4 154.4 670.2 154C 674.9 153.6 679.8 155.6 684.3 154C 689 152.3 694.7 155.9 699.4 154C 704.2 152 710 152.5 715.1 154C 719.4 155.2 724.3 155.7 728.5 154C 732.8 152.2 737.9 154.6 742.5 154C 746.9 153.4 751.6 152.4 755.6 154C 760 155.8 765.1 154 769.8 154C 775 154 780.2 153.9 785.4 154C 790.3 154.1 795.2 154 800.1 154C 804.4 154 809.1 152.4 813.1 154C 817.9 156 823.6 154.7 828.7 154C 833.2 153.4 837.8 154.8 842.2 154C 846.9 153.2 852.1 152.5 856.7 154C 861 155.4 865.8 154.7 870.3 154C 875.3 153.2 880.5 154 885.6 154C 890.8 154 896.1 152.9 901.2 154C 906.3 155.1 911.7 153.3 916.9 154C 921.2 154.6 925.5 153.7 929.8 154C 934.9 154.3 940.2 152.6 945.2 154C 949.5 155.2 954.4 152.4 958.6 154C 963.1 155.8 968.3 154.2 973.2 154C 978 153.8 982.9 154.9 987.6 154C 991.9 153.2 996.3 154 1000.6 154C 1005.4 154 1010.3 155.1 1014.9 154C 1019.8 152.8 1025.3 155.9 1030 154M 1018 154C 1017.3 148 1017.1 141.9 1018 136M 982 102C 982.8 107.2 980.8 112.6 982 117.6C 983.4 123.8 980.9 130.4 982 136.6C 983 142.3 983 148.3 982 154M 946 70C 947 78.9 949.3 88.5 946 96.8C 942.2 106.4 947.5 117.6 946 127.8C 944.8 136.5 945.9 145.3 946 154M 154 70C 152.7 74.5 152.5 79.6 154 84C 155.4 88 153.1 92.7 154 96.8C 155 101.2 152.7 105.9 154 110.2C 155.3 114.5 153.4 119.2 154 123.7C 154.6 128.7 153.4 133.8 154 138.8C 154.6 143.9 153.7 149 154 154M 94 70C 95.7 75.4 95.2 81.4 94 86.9C 92.8 92 95.2 97.6 94 102.7C 92.7 108.1 93.3 113.9 94 119.5C 94.7 125.1 92.9 130.9 94 136.5C 95.1 142.2 94 148.2 94 154M 57.9 106C 60 113 58.1 120.6 57.9 127.9C 57.6 136.6 61 145.9 57.9 154M 922 154C 923.3 148.1 923 141.9 922 136M 334 154C 336 148.4 334.6 142 334 136M 310 154C 308.4 148.2 310.3 142 310 136M 286 154C 284 148.3 286.9 141.9 286 136M 118 154C 119.6 148.2 116.6 141.8 118 136M 22 154C 20.2 148.3 20.8 141.9 22 136M 784 82C 784.5 84.7 784.5 87.5 784 90.2M 868.1 28C 862.3 29.6 856 28 850 28C 851 24.1 850.8 19.9 850 16C 855.7 17.9 862.2 17.5 868.1 16C 866.6 17.7 866.6 20.4 865.1 22C 866.4 23.8 867.3 25.9 868.1 28M 850 10C 850.8 17.4 851.5 25.1 850 32.4C 848.7 38.5 850.3 44.9 850 51.2M 295 61C 297.1 61.6 298.3 59.1 299 57C 299.7 54.9 297.2 53 295 53C 292.8 53 290.6 54.8 291 57C 291.4 59.2 292.8 61.3 295 61M 292.9 64.4C 293.4 66.6 292.4 69 292.9 71.2C 293 71.4 293 71.6 293.1 71.7C 293.2 71.8 293.3 72 293.4 72C 293.6 72.1 293.8 72 293.9 72.1C 294.1 72.1 294.3 72 294.3 71.9C 295.7 70.2 298 69.5 299.3 67.7M 289.5 75.2C 289.3 76 289.7 77 289.5 77.8C 289.5 78.2 289.5 78.6 289.8 78.8C 290.1 79 290.2 79.4 290.5 79.5C 293.3 80.1 295.1 86.4 300.5 96.8M 288.9 63.6C 285.6 66.1 285 71.1 285.3 75.2C 285.3 75.5 285.1 75.7 285 76C 285 76.3 284.6 76.4 284.5 76.6C 284.3 76.8 284 76.9 283.7 76.9C 283.4 76.9 283.1 76.8 282.8 76.8C 281.8 76.8 281.1 75.7 280.1 75.3C 279.4 74.7 279 73.9 278.7 73C 278.5 72.2 278.3 71 279 70.4C 281 68.3 283 63.8 285.5 60.6C 285.7 60.4 286 60.3 286.3 60.3C 286.6 60.4 287 60.4 287.2 60.6C 287.6 61.1 288 61.7 288.6 61.9C 288.9 62 289.1 62.3 289.1 62.7C 289.1 63 289 63.3 288.9 63.6M 289.5 83.9C 288.2 88.1 283.9 90.7 282.2 94.7"></path></g></g></g><g id="g-root-cp_0_g-0_1_1cxelv2ehzls7-stroke" data-item-order="999511553" transform="translate(257.669921875, 325.029296875)"><g id="cp_0_g-0_1_1cxelv2ehzls7-stroke" fill="none" stroke-linecap="round" stroke-linejoin="round" stroke-miterlimit="4" stroke="#484848" stroke-width="4" stroke-dasharray="10.0, 14.0" stroke-opacity="1"><g><path d="M 10 11.4442C 68.7751 17.0252 295.1817 35.1712 535 10M 10.030078 11.470703C 15.630078 11.870703 22.730078 13.470703 31.330078 13.370703C 39.630078 13.270703 49.130078 14.070703 59.730078 15.570703C 70.630078 17.070703 83.030078 16.170703 96.230078 17.870703C 109.630078 19.670703 124.530078 17.970703 140.030078 20.170703C 157.530078 22.570703 176.630078 23.070703 196.630078 22.070703C 217.430078 21.070703 239.430078 23.070703 262.230078 22.970703C 283.830078 22.870703 306.130078 23.070703 329.130078 22.470703C 350.630078 21.770703 372.630078 21.770703 395.030078 20.270703C 419.330078 18.670703 444.230078 17.170703 469.430078 15.870703C 491.130078 14.770703 513.130078 13.170703 535.030078 9.970703M 10.030078 11.470703C 12.630078 11.370703 15.630078 11.270703 18.630078 12.270703C 21.630078 13.170703 25.130078 12.470703 28.730078 13.170703C 32.130078 13.770703 35.830078 13.870703 39.830078 14.070703C 43.830078 14.170703 48.130078 14.870703 52.730078 15.070703C 57.730078 15.270703 62.930078 16.270703 68.430078 16.170703C 73.330078 15.970703 78.530078 16.970703 83.830078 17.170703C 89.530078 17.370703 95.330078 17.970703 101.430078 18.170703C 107.330078 18.470703 113.330078 18.470703 119.530078 19.170703C 126.230078 19.970703 133.530078 18.070703 140.430078 20.170703C 147.030078 22.170703 154.630078 19.270703 161.630078 20.970703C 168.630078 22.770703 176.130078 20.870703 183.630078 21.670703C 191.030078 22.570703 198.930078 19.870703 206.330078 22.270703C 213.730078 24.670703 222.230078 24.270703 230.130078 22.670703C 238.130078 21.170703 246.530078 23.270703 254.930078 22.970703C 263.530078 22.670703 272.230078 22.870703 281.130078 22.970703C 290.130078 23.070703 299.630078 24.870703 308.630078 22.770703C 318.530078 20.470703 329.230078 20.670703 339.630078 22.170703C 350.030078 23.670703 361.130078 23.870703 371.630078 21.270703C 382.130078 18.670703 394.030078 23.970703 404.230078 19.870703C 414.430078 15.770703 426.530078 20.470703 437.430078 18.070703C 447.930078 15.670703 459.030078 16.170703 469.930078 15.870703C 480.030078 15.570703 490.230078 12.470703 500.430078 13.370703C 511.930078 14.370703 524.530078 14.970703 535.030078 9.970703"></path></g></g></g><g id="g-root-tx_aievolut_1cxelv2ehzls8-stroke" data-item-order="1000000000" transform="translate(447, 3)"></g><g id="g-root-tx_chatbot_zly3hqehznd5-stroke" data-item-order="1000000000" transform="translate(93, 135)"></g><g id="g-root-tx_assistan_v64ldaehzo5f-stroke" data-item-order="1000000000" transform="translate(279, 135)"></g><g id="g-root-tx_connecte_hvak32ehzmkl-stroke" data-item-order="1000000000" transform="translate(465, 135)"></g><g id="g-root-tx_capablec_8znju6ehzndb-stroke" data-item-order="1000000000" transform="translate(645, 135)"></g><g id="g-root-tx_autonomo_4n0oeehzls1-stroke" data-item-order="1000000000" transform="translate(837, 135)"></g><g id="g-root-tx_basictex_zly3hqehznd6-stroke" data-item-order="1000000000" transform="translate(81, 171)"></g><g id="g-root-tx_gainingb_mb427iehzlsc-stroke" data-item-order="1000000000" transform="translate(279, 171)"></g><g id="g-root-tx_integrat_8znju6ehznda-stroke" data-item-order="1000000000" transform="translate(459, 195)"></g><g id="g-root-tx_workinga_4ju1pqehzo5k-stroke" data-item-order="1000000000" transform="translate(645, 195)"></g><g id="g-root-tx_handling_4n0oeehzls2-stroke" data-item-order="1000000000" transform="translate(837, 195)"></g></g></g></svg>