<?xml version="1.0" encoding="utf-8" standalone="yes"?>
<!DOCTYPE svg PUBLIC "-//W3C//DTD SVG 1.1//EN" "http://www.w3.org/Graphics/SVG/1.1/DTD/svg11.dtd">
<svg style="fill:none;stroke:none;fill-rule:evenodd;clip-rule:evenodd;stroke-linecap:round;stroke-linejoin:round;stroke-miterlimit:1.5;" version="1.1" xmlns="http://www.w3.org/2000/svg" xmlns:xlink="http://www.w3.org/1999/xlink" width="679" height="401" viewBox="0 0 679 401"><style class="text-font-style fontImports" data-font-family="Shantell Sans">@import url(https://fonts.googleapis.com/css2?family=Shantell+Sans:wght@300..800&amp;amp;display=block);</style><g id="items" style="isolation: isolate"><g id="blend" style="mix-blend-mode: normal"><g id="g-root-sy_5_cu_1lwrhumfcb281-fill" data-item-order="999933668" transform="translate(52.549957275390625, 246.18994140625)"></g><g id="g-root-sy_2_cu_1d14hlqfcb30q-fill" data-item-order="999933672" transform="translate(28.269989013671875, 161.22998046875)"></g><g id="g-root-sy_1_cu_18lxgkefcb0n7-fill" data-item-order="999933676" transform="translate(4, 52)"></g><g id="g-root-tx_aiskillu_18lxgkefcb0n8-fill" data-item-order="1000000000" transform="translate(152.99996948242188, 2)"><g id="tx_aiskillu_18lxgkefcb0n8-fill-merged" stroke="none" fill="#f4f4f4" fill-opacity="1"><g><text style="font: 25px &quot;Shantell Sans&quot;, cursive; white-space: pre;" transform="translate(178, 28)" font-size="25px" font-family="'Shantell Sans', cursive"><tspan x="-160.5" y="16.5" dominant-baseline="ideographic">AI Skill Utilization Process</tspan></text></g></g></g><g id="g-root-ic_pers_18fosv2fbvm6c-fill" data-item-order="1000000000" transform="translate(271.2899475097656, 52.27001953125)"></g><g id="g-root-tx_skilldes_4o6ejifcb286-fill" data-item-order="1000000000" transform="translate(343.8299865722656, 64.27001953125)"><g id="tx_skilldes_4o6ejifcb286-fill-merged" stroke="none" fill="#f4f4f4" fill-opacity="1"><g><text style="font: bold 20px &quot;Shantell Sans&quot;, cursive; white-space: pre;" transform="translate(10, 22)" font-weight="bold" font-size="20px" font-family="'Shantell Sans', cursive"><tspan x="2" y="13.5" dominant-baseline="ideographic">Skill Description Review</tspan></text></g></g></g><g id="g-root-tx_aiscansa_metxy6fcb30t-fill" data-item-order="1000000000" transform="translate(344.2300109863281, 100.06005859375)"><g id="tx_aiscansa_metxy6fcb30t-fill-merged" stroke="none" fill="#f4f4f4" fill-opacity="1"><g><text style="font: 15px &quot;Shantell Sans&quot;, cursive; white-space: pre;" transform="translate(10, 28)" font-size="15px" font-family="'Shantell Sans', cursive"><tspan x="2" y="1" dominant-baseline="ideographic">AI scans available skills to identify </tspan><tspan x="2" y="19" dominant-baseline="ideographic">potential matches</tspan></text></g></g></g><g id="g-root-ic_1_1qapkpqfccglp-fill" data-item-order="1000000000" transform="translate(271.2899475097656, 173.64013671875)"></g><g id="g-root-tx_fullinst_1d2zwv2fcb214-fill" data-item-order="1000000000" transform="translate(343.8299865722656, 185.64013671875)"><g id="tx_fullinst_1d2zwv2fcb214-fill-merged" stroke="none" fill="#f4f4f4" fill-opacity="1"><g><text style="font: bold 20px &quot;Shantell Sans&quot;, cursive; white-space: pre;" transform="translate(10, 22)" font-weight="bold" font-size="20px" font-family="'Shantell Sans', cursive"><tspan x="2" y="13.5" dominant-baseline="ideographic">Full Instruction Retrieval</tspan></text></g></g></g><g id="g-root-tx_aiaccess_1qdty5afcb3lz-fill" data-item-order="1000000000" transform="translate(344.2300109863281, 221.419921875)"><g id="tx_aiaccess_1qdty5afcb3lz-fill-merged" stroke="none" fill="#f4f4f4" fill-opacity="1"><g><text style="font: 15px &quot;Shantell Sans&quot;, cursive; white-space: pre;" transform="translate(10, 28)" font-size="15px" font-family="'Shantell Sans', cursive"><tspan x="2" y="1" dominant-baseline="ideographic">AI accesses detailed instructions for the </tspan><tspan x="2" y="19" dominant-baseline="ideographic">selected skill</tspan></text></g></g></g><g id="g-root-ic_1_i0vv32fcb2tf-fill" data-item-order="1000000000" transform="translate(271.2899475097656, 295.009765625)"></g><g id="g-root-tx_referenc_vccdgefcb18i-fill" data-item-order="1000000000" transform="translate(343.8299865722656, 307.009765625)"><g id="tx_referenc_vccdgefcb18i-fill-merged" stroke="none" fill="#f4f4f4" fill-opacity="1"><g><text style="font: bold 20px &quot;Shantell Sans&quot;, cursive; white-space: pre;" transform="translate(10, 22)" font-weight="bold" font-size="20px" font-family="'Shantell Sans', cursive"><tspan x="2" y="13.5" dominant-baseline="ideographic">Reference File Lookup</tspan></text></g></g></g><g id="g-root-tx_aiconsul_zrjehqfcb3m1-fill" data-item-order="1000000000" transform="translate(344.2300109863281, 342.7900390625)"><g id="tx_aiconsul_zrjehqfcb3m1-fill-merged" stroke="none" fill="#f4f4f4" fill-opacity="1"><g><text style="font: 15px &quot;Shantell Sans&quot;, cursive; white-space: pre;" transform="translate(10, 28)" font-size="15px" font-family="'Shantell Sans', cursive"><tspan x="2" y="1" dominant-baseline="ideographic">AI consults additional files for further </tspan><tspan x="2" y="19" dominant-baseline="ideographic">clarification</tspan></text></g></g></g><g id="g-root-sy_5_cu_1lwrhumfcb281-stroke" data-item-order="999933668" transform="translate(52.549957275390625, 246.18994140625)"><g id="sy_5_cu_1lwrhumfcb281-stroke" fill="none" stroke-linecap="round" stroke-linejoin="round" stroke-miterlimit="4" stroke="#f4f4f4" stroke-width="4" stroke-opacity="1"><g><path d="M 38.713223 16.435122C 53.462639 11.288219 70.808517 10.000005 82.820694 10.000005C 94.836708 10.000005 112.182091 11.288019 126.930183 16.434412C 131.63147 18.075001 136.068878 20.107613 139.985519 22.615583C 149.279251 28.566652 155.641357 37.194172 155.641357 49.610497C 155.641357 83.740341 107.769463 89.126144 82.820694 89.126144C 57.978527 89.126144 10.000031 83.597931 10.000031 49.610497C 10.000031 37.155544 16.403194 28.512947 25.745377 22.560057C 29.640778 20.077982 34.047031 18.063473 38.713223 16.435122ZM 82.820694 82.820679C 57.68462 82.820679 37.307781 76.707596 37.307781 69.166801C 37.307781 67.905884 37.877502 66.684944 38.943916 65.525757C 44.255276 59.752598 61.887589 55.512924 82.820694 55.512924C 103.753807 55.512924 121.386108 59.752598 126.697464 65.525757C 127.763893 66.684944 128.333603 67.905884 128.333603 69.166801C 128.333603 76.707596 107.956764 82.820679 82.820694 82.820679ZM 126.697464 65.525757C 127.763893 66.684944 128.333603 67.905884 128.333603 69.166801C 128.333603 76.707596 107.956764 82.820679 82.820694 82.820679C 57.68462 82.820679 37.307781 76.707596 37.307781 69.166801C 37.307781 67.905884 37.877502 66.684944 38.943916 65.525757C 44.255276 59.752598 61.887589 55.512924 82.820694 55.512924C 103.753807 55.512924 121.386108 59.752598 126.697464 65.525757ZM 38.72374 16.472946C 53.49015 11.314825 70.886192 10.910257 82.820694 10.000005C 94.755196 9.089752 111.645538 13.135345 126.917656 16.472946C 131.772354 17.484344 135.817947 20.518539 139.964691 22.642483C 149.876389 27.598328 157.563004 37.307755 155.641357 49.646812C 150.280945 83.32637 107.701096 87.371964 82.820694 89.091354C 74.628372 89.698174 63.401852 90.00161 53.085587 86.461716C 42.971607 82.921822 30.935968 82.31498 24.058466 75.437477C 16.776396 68.155403 8.887495 61.176758 10.000031 49.646812C 11.21371 37.206612 15.967281 27.800619 25.77784 22.541336C 29.823433 20.316263 34.172447 18.394613 38.72374 16.472946M 82.820694 82.820679C 57.738018 82.416122 36.599804 76.651138 37.307781 69.166801C 37.408916 67.95311 38.015755 66.840599 38.926014 65.525757C 43.376167 59.052818 61.884754 55.411777 82.820694 55.512924C 103.75663 55.614071 122.16407 59.153965 126.715363 65.525757C 127.625633 66.840599 127.929054 67.95311 128.333603 69.166801C 130.963242 76.24659 107.903366 81.505867 82.820694 82.820679M 126.715363 65.525757C 128.131332 66.233749 128.030182 67.95311 128.333603 69.166801C 130.255264 76.448875 108.004501 83.124084 82.820694 82.820679C 57.636879 82.517265 37.712341 76.651138 37.307781 69.166801C 37.206642 67.95311 37.712341 66.537155 38.926014 65.525757C 44.792126 60.367622 61.985893 53.591274 82.820694 55.512924C 103.655502 57.434574 121.152672 59.96307 126.715363 65.525757M 38.72374 16.472946C 47.219482 16.068394 55.512943 10.000005 63.806408 11.011403C 70.683914 11.921655 77.359138 9.797729 82.820694 10.000005C 89.293633 10.202281 97.384819 10.101151 105.678299 11.517102C 112.75808 12.730777 121.253822 12.022801 126.917656 16.472946C 130.862106 19.507141 135.615677 20.923109 139.964691 22.642483C 150.280945 26.586929 154.023117 37.307755 155.641357 49.646812C 156.45047 55.614071 153.416275 60.367622 151.595764 65.121208C 149.775238 69.773643 143.909134 71.594147 140.976089 75.943176C 138.144165 80.191032 132.176926 82.213829 126.715363 82.820679C 121.557243 83.427521 116.70253 86.967415 111.44326 86.663979C 106.588547 86.461716 101.733833 87.675377 97.283691 88.585655C 92.125549 89.495911 86.866287 87.877663 82.820694 89.091354C 78.47168 90.406158 72.908989 87.169678 67.346298 88.484512C 61.176773 89.900459 54.299271 86.360565 47.5229 85.248024C 40.948811 84.236626 33.767887 82.820679 29.216595 78.572792C 24.058466 73.819237 17.787794 71.189598 14.450185 65.626907C 11.719409 61.075615 9.089771 55.81633 10.000031 49.646812C 10.910292 43.376144 12.528526 38.4203 14.450185 33.565586C 16.371843 28.710871 20.923134 25.069832 25.77784 22.541336C 29.823433 20.41741 34.475861 18.900312 38.72374 16.472946M 82.820694 82.820679C 71.088478 80.393326 60.165375 81.101288 51.871914 79.179634C 42.870468 77.156837 37.307781 73.111244 37.307781 69.166801C 37.307781 67.95311 37.81348 66.638306 38.926014 65.525757C 41.656796 63.098412 46.410362 59.153965 53.49015 58.749409C 61.682472 58.24371 71.695313 55.917477 82.820694 55.512924C 93.03582 55.108372 102.542953 56.11977 110.027298 58.24371C 117.916206 60.367622 123.58004 62.997265 126.715363 65.525757C 127.929054 66.537155 128.738159 67.95311 128.333603 69.166801C 127.524483 71.594147 126.108536 74.628342 121.759521 76.24659C 117.208229 77.965973 111.038696 79.98877 103.554352 81.303581C 97.384819 82.416122 89.900482 80.494469 82.820694 82.820679M 126.715363 65.525757C 127.423355 66.941711 128.131332 67.95311 128.333603 69.166801C 128.83931 71.79644 125.703964 74.223793 121.456093 76.347733C 117.51165 78.370529 111.240982 78.067093 105.273727 81.000168C 99.306488 84.034363 90.81073 84.742325 82.820694 82.820679C 74.83065 80.899025 66.94175 81.80928 60.266514 81.000168C 53.287872 80.191032 47.5229 78.269386 43.578445 76.145439C 39.735138 73.92038 36.802082 71.594147 37.307781 69.166801C 37.611202 67.95311 38.420315 67.042854 38.926014 65.525757C 39.937412 62.896118 44.084145 59.760807 49.039997 60.064217C 53.389011 60.266506 58.951698 59.659664 64.00869 56.726612C 68.964546 53.793533 76.34774 53.793533 82.820694 55.512924C 93.844925 58.445972 104.464607 58.648266 112.656937 58.850525C 119.534447 59.052818 124.793716 62.592712 126.715363 65.525757"></path></g></g></g><g id="g-root-sy_2_cu_1d14hlqfcb30q-stroke" data-item-order="999933672" transform="translate(28.269989013671875, 161.22998046875)"><g id="sy_2_cu_1d14hlqfcb30q-stroke" fill="none" stroke-linecap="round" stroke-linejoin="round" stroke-miterlimit="4" stroke="#f4f4f4" stroke-width="4" stroke-opacity="1"><g><path d="M 167.778107 88.889046C 167.778107 87.207809 167.018433 85.579857 165.596603 84.034332C 158.514801 76.336792 135.004959 70.683884 107.094215 70.683884C 79.183472 70.683884 55.673622 76.336792 48.591812 84.034332C 47.169991 85.579857 46.410332 87.207809 46.410332 88.889046C 46.410332 93.730911 52.710934 98.13131 62.986744 101.392555C 77.73616 96.245651 95.082039 94.957436 107.094215 94.957436C 119.110229 94.957436 136.455612 96.245453 151.203705 101.391846C 161.478302 98.130699 167.778107 93.730614 167.778107 88.889046ZM 165.596603 84.034332C 167.018433 85.579857 167.778107 87.207809 167.778107 88.889046C 167.778107 93.730614 161.478302 98.130699 151.203705 101.391846C 155.904984 103.032433 160.342407 105.065048 164.259033 107.573013C 186.152664 100.364075 204.188431 87.0037 204.188431 62.813988C 204.188431 43.574772 192.732132 31.158352 176.998108 23.236572C 171.198944 20.316765 164.818649 18.007538 158.216751 16.192482C 140.445068 11.306316 121.067192 9.999999 107.094215 9.999999C 93.125587 9.999999 73.747505 11.306517 55.974613 16.193192C 49.420658 17.995207 43.085052 20.284094 37.319481 23.173761C 21.519417 31.092701 9.999999 43.523998 9.999999 62.813988C 9.999999 86.914894 28.094215 100.282959 50.018898 107.517487C 53.914299 105.035416 58.320553 103.020905 62.986744 101.392555C 52.710934 98.13131 46.410332 93.730911 46.410332 88.889046C 46.410332 87.207809 47.169991 85.579857 48.591812 84.034332C 55.673622 76.336792 79.183472 70.683884 107.094215 70.683884C 135.004959 70.683884 158.514801 76.336792 165.596603 84.034332ZM 167.778107 88.889046C 168.283798 87.270805 167.37355 85.146881 165.553024 84.034332C 156.854996 78.269371 134.907669 72.605537 107.094215 70.683884C 79.280769 68.76223 55.007214 75.740875 48.635403 84.034332C 47.320591 85.65258 45.803493 87.270805 46.410332 88.889046C 48.028564 93.440338 52.377579 99.407585 62.997261 101.430382C 77.15683 94.856293 95.260857 93.035789 107.094215 94.957436C 118.927567 96.879089 136.72818 95.463135 151.191177 101.430382C 161.00174 96.879089 165.957581 93.339195 167.778107 88.889046M 165.553024 84.034332C 166.665558 85.854858 167.575821 87.270805 167.778107 88.889046C 168.283798 93.743759 161.507431 98.193909 151.191177 101.430382C 156.045868 102.44178 160.394897 104.970276 164.238205 107.599915C 186.590103 101.936081 205.907806 86.9674 204.188431 62.794975C 202.873611 43.578411 193.265335 30.025684 176.981827 23.249319C 171.014572 20.720825 164.743912 18.293461 158.169815 16.169533C 140.672623 10.606844 121.051514 10.910252 107.094215 9.999999C 93.136917 9.089746 73.616943 10.707974 56.018612 16.169533C 49.444523 18.192329 43.274998 20.720825 37.307747 23.148174C 21.02424 29.924538 11.921657 43.578411 9.999999 62.794975C 7.572642 86.765106 28.508583 99.205307 50.051361 107.498764C 54.400375 106.18396 58.547108 103.655464 62.997261 101.430382C 53.388977 96.37339 47.320591 93.642616 46.410332 88.889046C 46.106907 87.270805 47.219452 85.65258 48.635403 84.034332C 52.074158 80.08989 60.16534 77.763672 70.178185 74.426056C 80.08989 71.08844 93.238068 71.189583 107.094215 70.683884C 135.008804 69.571342 157.866394 77.055695 165.553024 84.034332M 167.778107 88.889046C 167.47467 87.270805 167.171249 85.450302 165.553024 84.034332C 163.631363 82.314964 160.799454 81.101288 157.562973 78.77507C 154.427643 76.549995 149.471786 76.448853 144.718216 74.628326C 139.762375 72.70668 133.491714 73.313522 127.322174 71.695282C 121.152641 70.178185 114.174004 70.178185 107.094215 70.683884C 98.092773 71.290726 88.990189 69.369064 81.809265 72.302124C 73.819214 75.639725 65.930313 75.538597 59.963066 77.460251C 54.703793 79.078491 51.568459 82.517235 48.635403 84.034332C 46.713753 84.944603 45.904633 87.270805 46.410332 88.889046C 47.927425 93.440338 54.198093 95.260857 62.997261 101.430382C 67.346268 98.901886 72.807816 98.800751 77.662529 97.587082C 83.124084 96.272255 88.686775 94.451736 93.743759 95.463135C 98.49733 96.474533 103.149765 94.451736 107.094215 94.957436C 113.466026 95.766556 121.557213 95.564285 129.951813 96.474533C 137.031601 97.283653 145.223923 97.384789 151.191177 101.430382C 159.788055 94.856293 167.879242 93.743759 167.778107 88.889046M 165.553024 84.034332C 166.968979 85.65258 167.171249 87.270805 167.778107 88.889046C 169.396347 93.440338 160.394897 95.867691 151.191177 101.430382C 155.843597 103.048622 161.507431 103.756599 164.238205 107.599915C 175.970428 106.285095 184.466171 97.18251 192.961899 91.012993C 201.053085 85.146881 207.121475 74.223778 204.188431 62.794975C 202.772476 57.131157 203.379303 51.467319 201.154236 46.916027C 198.625748 41.859039 195.490402 37.408894 191.647095 33.262154C 187.601501 29.115417 181.330826 27.59832 176.981827 23.249319C 172.430542 18.596882 164.541626 18.79916 158.169815 16.169533C 148.966095 12.326218 137.739578 14.349014 128.738129 11.011397C 121.354935 8.280625 113.364876 10.80912 107.094215 9.999999C 102.340645 9.393154 96.777954 9.797723 90.911842 10.606844C 85.854858 11.213674 80.595589 11.41595 75.134033 12.225072C 68.762222 13.23647 61.985863 13.641038 56.018612 16.169533C 49.747948 18.79916 43.679558 22.237923 37.307747 23.148174C 28.002884 24.564125 23.249311 34.273552 16.776367 40.038517C 11.112535 45.095509 10.910259 53.894669 9.999999 62.794975C 9.4943 68.256531 12.629633 72.908958 12.629633 77.662521C 12.629633 83.427505 16.776367 89.495895 22.035637 91.72097C 26.384649 93.541489 29.115425 98.396187 33.767853 100.418983C 38.925983 102.745201 44.08411 106.285095 50.051361 107.498764C 53.287838 104.262299 58.041409 101.126968 62.997261 101.430382C 52.175297 101.632668 45.297794 93.642616 46.410332 88.889046C 46.814892 87.270805 47.118305 85.55143 48.635403 84.034332C 52.377579 80.292168 59.963066 76.347717 70.582748 74.324921C 80.899002 72.403259 93.440338 69.369064 107.094215 70.683884C 114.679703 71.391861 122.16404 70.481606 128.738129 71.89756C 135.008804 73.212379 141.27948 72.70668 146.033035 74.931755C 149.977493 76.752274 153.820801 77.662521 157.158417 78.572792C 161.102859 79.685318 163.530228 82.314964 165.553024 84.034332"></path></g></g></g><g id="g-root-sy_1_cu_18lxgkefcb0n7-stroke" data-item-order="999933676" transform="translate(4, 52)"><g id="sy_1_cu_18lxgkefcb0n7-stroke" fill="none" stroke-linecap="round" stroke-linejoin="round" stroke-miterlimit="4" stroke="#f4f4f4" stroke-width="4" stroke-opacity="1"><g><path d="M 207.22261 108.611298C 207.22261 106.509819 206.273117 104.474884 204.495682 102.542908C 195.643524 92.920868 166.256241 85.854843 131.367752 85.854843C 96.479271 85.854843 67.091988 92.920868 58.23983 102.542908C 56.462399 104.474884 55.512897 106.509819 55.512897 108.611298C 55.512897 115.271049 65.048965 121.26268 80.248154 125.424171C 98.021049 120.537498 117.399132 119.23098 131.367752 119.23098C 145.340729 119.23098 164.718613 120.537292 182.49028 125.423462C 197.687759 121.261864 207.22261 115.270653 207.22261 108.611298ZM 204.495682 102.542908C 206.273117 104.474884 207.22261 106.509819 207.22261 108.611298C 207.22261 115.270653 197.687759 121.261864 182.49028 125.423462C 189.092178 127.238518 195.472488 129.547745 201.271652 132.467545C 229.333084 123.579681 252.735519 106.824463 252.735519 76.017372C 252.735519 49.83147 235.756882 33.756817 213.384155 24.036875C 205.621262 20.664268 197.209061 18.056782 188.631287 16.057348C 168.332535 11.325929 147.10704 9.999985 131.367752 9.999985C 115.633232 9.999985 94.407936 11.326129 74.107857 16.058258C 65.590775 18.043633 57.236523 20.628565 49.51915 23.966684C 27.064091 33.679443 9.999985 49.768463 9.999985 76.017372C 9.999985 106.71685 33.486572 123.484711 61.593018 132.404739C 67.358589 129.515076 73.694199 127.226189 80.248154 125.424171C 65.048965 121.26268 55.512897 115.271049 55.512897 108.611298C 55.512897 106.509819 56.462399 104.474884 58.23983 102.542908C 67.091988 92.920868 96.479271 85.854843 131.367752 85.854843C 166.256241 85.854843 195.643524 92.920868 204.495682 102.542908ZM 207.22261 108.611298C 207.02034 106.487366 206.312363 104.464569 204.491837 102.542908C 195.692673 92.833488 166.260986 85.652565 131.367752 85.854843C 115.589943 85.955978 100.924675 87.473076 88.787895 89.799294C 74.021484 92.530067 63.806358 97.991615 58.243675 102.542908C 56.220879 104.16114 54.906059 106.588501 55.512897 108.611298C 57.333412 114.983109 65.020042 121.253777 80.292152 125.400513C 97.688194 119.534401 117.410454 118.927551 131.367752 119.23098C 145.325058 119.534401 164.541611 121.354919 182.443359 125.400513C 197.715469 121.456047 206.514633 115.185387 207.22261 108.611298M 204.491837 102.542908C 206.312363 104.464569 206.615768 106.588501 207.22261 108.611298C 209.144257 114.983109 197.715469 121.354919 182.443359 125.400513C 189.219727 126.513039 195.793808 128.940399 201.255371 132.480301C 229.473373 124.186821 253.443497 106.790779 252.735519 76.044281C 252.128677 49.849072 235.440613 34.576958 213.392151 24.05842C 205.705505 20.417385 197.412048 16.776352 188.612885 16.068373C 167.879227 14.348996 147.145569 10.606824 131.367752 9.999985C 115.691086 9.393146 94.451721 11.415941 74.122627 16.068373C 65.626877 17.990028 56.423157 19.203705 49.545647 23.957277C 29.317688 37.813431 10.910243 49.747929 9.999985 76.044281C 8.988586 106.689636 33.363277 123.782265 61.581287 132.37915C 67.447395 129.648376 74.021484 128.030136 80.292152 125.400513C 65.222321 120.84922 55.715179 115.28653 55.512897 108.611298C 55.411758 106.487366 57.131134 104.869125 58.243675 102.542908C 63.907505 90.709557 96.474518 86.158264 131.367752 85.854843C 147.145569 85.7537 161.911972 86.663963 173.846466 89.799294C 188.410599 93.541466 200.243973 96.777946 204.491837 102.542908M 207.22261 108.611298C 207.02034 106.487366 206.110062 104.66684 204.491837 102.542908C 201.963348 99.306435 196.906357 96.676796 190.433395 94.350586C 183.859314 91.923225 175.464722 90.810692 166.362137 88.383339C 156.045868 85.7537 143.909088 84.742302 131.367752 85.854843C 125.906204 86.360542 120.343513 87.371941 115.286522 86.360542C 109.824974 85.349144 104.464569 87.675362 99.306435 87.978775C 94.350586 88.282196 89.698158 90.203857 85.248001 90.507271C 81.101273 90.911835 77.460236 92.631203 74.122627 93.642601C 70.48159 94.856285 67.346252 96.272247 64.716621 97.688194C 61.985847 99.205292 59.255074 100.520111 58.243675 102.542908C 57.029995 104.869125 56.220879 106.588501 55.512897 108.611298C 53.388966 114.983109 67.346252 116.399063 80.292152 125.400513C 86.461678 123.883415 92.732353 122.568596 98.901878 121.557198C 104.66684 120.646927 110.532951 121.253777 115.691086 119.736679C 121.152634 118.219582 126.917603 120.748077 131.367752 119.23098C 137.436142 117.208183 145.223907 120.242378 153.213959 120.242378C 162.7211 120.242378 174.352173 119.534401 182.443359 125.400513C 198.221176 126.513039 208.436279 115.185387 207.22261 108.611298M 204.491837 102.542908C 205.60437 104.869125 207.12146 106.487366 207.22261 108.611298C 207.424881 115.28653 198.221176 126.31076 182.443359 125.400513C 189.320862 124.793663 194.88356 131.367752 201.255371 132.480301C 210.459076 127.322159 219.966232 123.681122 228.664246 119.635529C 237.160004 115.691086 243.531799 108.307877 246.970551 100.014412C 250.004745 92.833488 253.848068 85.146866 252.735519 76.044281C 251.21843 64.312057 251.622986 51.973003 243.430664 46.410316C 233.417816 39.53281 226.540314 26.485773 213.392151 24.05842C 205.098663 22.44018 197.412048 16.675213 188.612885 16.068373C 182.949051 15.663815 177.487518 13.944437 172.025955 12.933039C 167.070114 11.92164 162.114243 11.415941 157.360687 11.213663C 152.809387 11.011383 148.359238 9.494286 144.212509 10.303404C 139.76236 11.213663 135.008789 8.482887 131.367752 9.999985C 124.186829 12.831899 114.578545 9.595426 105.071404 11.213663C 95.159698 12.831899 83.124069 10.505684 74.122627 16.068373C 66.638275 20.619665 56.625435 19.507128 49.545647 23.957277C 44.994358 26.789192 40.038509 28.50857 35.790634 31.239344C 31.846182 33.767841 28.91313 37.611153 24.968676 39.836227C 21.226503 41.960163 20.215105 47.017155 16.978632 49.849072C 13.944437 52.478703 14.146717 57.434555 12.022781 61.176727C 9.696565 65.222321 7.977189 70.987289 9.999985 76.044281C 14.045577 86.158264 11.011383 97.89048 18.091169 103.857727C 23.957277 108.712433 29.621107 113.668289 34.576958 119.93895C 40.544209 127.322159 51.366169 131.367752 61.581287 132.37915C 66.031441 127.726715 74.426041 128.839264 80.292152 125.400513C 67.143974 116.702484 58.041393 114.780823 55.512897 108.611298C 54.703781 106.689636 57.333412 104.970268 58.243675 102.542908C 59.861908 98.193893 67.447395 96.980217 74.729462 93.440323C 81.708107 90.102707 91.114105 86.967377 101.430374 87.675362C 110.634094 88.383339 120.748077 86.158264 131.367752 85.854843C 138.953247 85.652565 146.538727 84.641167 153.112808 86.765099C 158.877777 88.68676 164.845032 87.978775 170.003159 88.990173C 175.464722 90.102707 180.521713 91.316391 184.971848 92.530067C 189.826569 93.743752 193.568741 96.272247 197.209778 97.283646C 200.547379 98.295036 203.278168 100.317833 204.491837 102.542908"></path></g></g></g><g id="g-root-tx_aiskillu_18lxgkefcb0n8-stroke" data-item-order="1000000000" transform="translate(152.99996948242188, 2)"></g><g id="g-root-ic_pers_18fosv2fbvm6c-stroke" data-item-order="1000000000" transform="translate(271.2899475097656, 52.27001953125)"><g id="ic_pers_18fosv2fbvm6c-stroke" fill="none" stroke-linecap="round" stroke-linejoin="round" stroke-miterlimit="4" stroke="#f4f4f4" stroke-width="2" stroke-opacity="1"><g><path d="M 33.497684 56.495358C 31.097925 53.095695 27.098324 50.89592 22.498783 50.89592C 17.899242 50.89592 13.899641 53.095695 11.499881 56.495358M 22.498983 32.697735L 22.498983 26.698353M 11.499881 38.497154L 33.497684 38.497154M 14.299602 40.696938C 14.499581 45.096493 18.099222 48.696136 22.498783 48.696136C 27.098324 48.696136 30.697964 45.096493 30.697964 40.496956L 30.697964 36.897312C 30.697964 32.297771 27.098324 28.698153 22.498783 28.698153C 18.099222 28.698153 14.499581 32.297771 14.299602 36.697334L 14.299602 40.696938ZM 43.496685 29.498053C 48.466789 29.498053 52.495789 25.469015 52.495789 20.498951C 52.495789 15.528888 48.466789 11.49985 43.496685 11.49985C 38.526581 11.49985 34.497585 15.528888 34.497585 20.498951C 34.497585 25.469015 38.526581 29.498053 43.496685 29.498053ZM 10.000031 10M 56.495388 33.497654L 50.096027 26.898333M 33.597675 56.595345C 30.797953 53.395668 27.198315 50.995907 22.598772 50.995907C 17.999231 50.795925 13.999631 53.195686 11.599871 56.595345M 22.598772 32.797722C 22.798752 30.797922 22.198812 28.598143 22.598772 26.798323M 11.599871 38.597145C 18.599173 40.596947 26.198414 37.797222 33.597675 38.597145M 14.399591 40.796925C 15.999432 44.796524 18.199211 48.596146 22.598772 48.796127C 26.998333 48.796127 30.797953 44.996506 30.797953 40.596947C 30.597975 39.397064 30.597975 38.197186 30.797953 36.997303C 31.197914 32.397762 26.998333 27.798222 22.598772 28.798122C 18.199211 29.598043 14.999532 32.397762 14.399591 36.797325C 13.999631 37.997204 14.599571 39.397064 14.399591 40.796925M 43.596676 29.598043C 48.396198 29.198084 50.995937 25.198483 52.595776 20.598942C 53.995636 15.799421 48.396198 10.79992 43.596676 11.59984C 38.597176 12.19978 35.597473 15.599441 34.597576 20.598942C 33.397694 25.398462 38.597176 28.998102 43.596676 29.598043M 10.000031 10M 56.595375 33.597645C 54.395599 31.397863 51.795856 29.398064 50.196018 26.998302"></path></g></g></g><g id="g-root-tx_skilldes_4o6ejifcb286-stroke" data-item-order="1000000000" transform="translate(343.8299865722656, 64.27001953125)"></g><g id="g-root-tx_aiscansa_metxy6fcb30t-stroke" data-item-order="1000000000" transform="translate(344.2300109863281, 100.06005859375)"></g><g id="g-root-ic_1_1qapkpqfccglp-stroke" data-item-order="1000000000" transform="translate(271.2899475097656, 173.64013671875)"><g id="ic_1_1qapkpqfccglp-stroke" fill="none" stroke-linecap="round" stroke-linejoin="round" stroke-miterlimit="4" stroke="#f4f4f4" stroke-width="2" stroke-opacity="1"><g><path d="M 48.996136 34.997505L 48.996136 22.948708C 48.996136 16.349564 43.646473 10.9999 37.047329 10.9999L 12.999731 10.9999C 11.895271 10.9999 10.99993 11.895241 10.99993 12.999701L 10.99993 54.995506C 10.99993 56.099964 11.895271 56.995308 12.999731 56.995308L 30.997934 56.995308M 38.997135 11.159884L 38.997135 18.999102C 38.997135 20.103561 39.892475 20.998901 40.996937 20.998901L 48.836151 20.998901M 36.997334 56.995308L 36.997334 44.996506C 36.997334 42.787586 38.788017 40.996906 40.996937 40.996906C 43.205856 40.996906 44.996536 42.787586 44.996536 44.996506L 44.996536 56.995308M 36.997334 48.996105L 44.996536 48.996105M 52.995739 40.996906L 52.995739 56.995308M 48.996136 56.995308L 56.995338 56.995308M 48.996136 40.996906L 56.995338 40.996906M 48.996136 34.997505C 47.796257 31.197884 47.796257 26.798323 48.996136 22.998703C 51.195919 16.59934 43.596676 9.600039 36.997334 10.9999C 29.198114 12.59974 20.798952 9.20008 12.999731 10.9999C 11.999831 11.199881 10.799951 11.79982 10.99993 12.999701C 12.999731 26.798323 11.399891 40.996906 10.99993 54.995506C 10.99993 56.195389 11.79985 56.995308 12.999731 56.995308C 18.999132 56.795326 24.998533 56.595345 30.997934 56.995308M 38.997135 11.199881C 38.197216 13.599641 38.597176 16.399361 38.997135 18.999102C 39.197117 19.999002 39.997036 20.598942 40.996937 20.998901C 43.596676 21.798822 46.196419 20.998901 48.796158 20.998901M 36.997334 56.995308C 37.797253 52.995708 37.397293 48.996105 36.997334 44.996506C 36.797356 42.796726 38.797153 41.396866 40.996937 40.996906C 43.196716 40.596947 45.796455 42.996704 44.996536 44.996506C 43.596676 48.796127 46.196419 53.195686 44.996536 56.995308M 36.997334 48.996105C 39.597076 49.396069 42.396797 49.596046 44.996536 48.996105M 52.995739 40.996906C 52.595776 46.396366 52.395798 51.795826 52.995739 56.995308M 48.996136 56.995308C 51.595875 57.395267 54.395599 56.195389 56.995338 56.995308M 48.996136 40.996906C 51.595875 40.596947 54.395599 40.596947 56.995338 40.996906"></path></g></g></g><g id="g-root-tx_fullinst_1d2zwv2fcb214-stroke" data-item-order="1000000000" transform="translate(343.8299865722656, 185.64013671875)"></g><g id="g-root-tx_aiaccess_1qdty5afcb3lz-stroke" data-item-order="1000000000" transform="translate(344.2300109863281, 221.419921875)"></g><g id="g-root-ic_1_i0vv32fcb2tf-stroke" data-item-order="1000000000" transform="translate(271.2899475097656, 295.009765625)"><g id="ic_1_i0vv32fcb2tf-stroke" fill="none" stroke-linecap="round" stroke-linejoin="round" stroke-miterlimit="4" stroke="#f4f4f4" stroke-width="2" stroke-opacity="1"><g><path d="M 25.498484 11.49985L 11.499881 11.49985L 11.499881 56.495358L 25.498484 56.495358L 25.498484 11.49985ZM 11.499881 26.498352L 25.498484 26.498352M 11.499881 41.496857L 25.498484 41.496857M 54.89555 16.89945C 55.895451 17.699371 56.495388 18.899212 56.495388 20.099091L 56.495388 33.697834C 56.495388 35.897614 54.695568 37.697433 52.495789 37.697433L 38.497185 37.697433C 36.297405 37.697433 34.497585 35.897614 34.497585 33.697834L 34.497585 15.699631C 34.497585 13.49985 36.297405 11.700027 38.497185 11.700027L 46.696365 11.700027C 47.496288 11.700027 48.496185 11.899932 49.096127 12.49987L 54.89555 16.89945ZM 40.496986 18.699331L 47.496288 18.699331M 40.496986 24.698732L 50.495987 24.698732M 40.496986 30.698132L 45.496487 30.698132M 49.696266 43.896618L 49.696266 47.496059C 49.696266 49.695835 47.896446 51.495659 45.696667 51.495659L 33.897842 51.495659M 33.897842 51.495659L 38.897346 46.496159M 33.897842 51.495659L 38.897346 56.495159M 25.598473 11.59984C 20.798952 11.59984 16.199411 11.59984 11.599871 11.59984C 12.399791 26.398363 12.199811 41.596844 11.599871 56.595345C 16.199411 56.39537 20.798952 56.195389 25.598473 56.595345C 22.598772 41.796825 25.598473 26.598343 25.598473 11.59984M 11.599871 26.598343C 15.999432 25.398462 20.798952 25.998402 25.598473 26.598343M 11.599871 41.596844C 16.199411 41.796825 20.998932 42.396767 25.598473 41.596844M 54.995537 16.999302C 55.595478 17.999201 56.595375 18.799122 56.595375 20.198982C 55.995438 24.598543 54.995537 29.398064 56.595375 33.797623C 57.19532 35.797424 54.795559 37.797222 52.595776 37.797222C 47.796257 37.397263 43.196716 37.597244 38.597176 37.797222C 36.397396 37.797222 33.997635 35.797424 34.597576 33.797623C 35.997437 27.798222 33.397694 21.598843 34.597576 15.799421C 34.997536 13.599641 36.397396 12.39976 38.597176 11.79982C 41.196915 10.79992 44.196617 10.79992 46.796356 11.79982C 47.396297 11.999801 48.396198 11.999801 49.196117 12.59974C 51.395897 13.399661 52.795757 15.799421 54.995537 16.999302M 40.596977 18.799122C 42.796757 19.199081 45.196518 17.999201 47.596275 18.799122M 40.596977 24.798523C 43.796654 25.598442 47.396297 23.598642 50.595974 24.798523M 40.596977 30.797922C 42.196815 30.397963 43.796654 30.797922 45.596474 30.797922M 49.796055 43.996605C 49.396099 44.996506 49.396099 46.396366 49.796055 47.396267C 50.196018 49.596046 47.796257 51.995808 45.796455 51.395866C 41.796856 50.595943 37.797253 50.395969 33.997635 51.395866M 33.997635 51.395866C 35.197514 49.596046 37.197315 48.196186 38.997135 46.396366M 33.997635 51.395866C 35.797455 52.995708 37.597275 54.595547 38.997135 56.39537"></path></g></g></g><g id="g-root-tx_referenc_vccdgefcb18i-stroke" data-item-order="1000000000" transform="translate(343.8299865722656, 307.009765625)"></g><g id="g-root-tx_aiconsul_zrjehqfcb3m1-stroke" data-item-order="1000000000" transform="translate(344.2300109863281, 342.7900390625)"></g></g></g></svg>