<?xml version="1.0" encoding="utf-8" standalone="yes"?>
<!DOCTYPE svg PUBLIC "-//W3C//DTD SVG 1.1//EN" "http://www.w3.org/Graphics/SVG/1.1/DTD/svg11.dtd">
<svg style="fill:none;stroke:none;fill-rule:evenodd;clip-rule:evenodd;stroke-linecap:round;stroke-linejoin:round;stroke-miterlimit:1.5;" version="1.1" xmlns="http://www.w3.org/2000/svg" xmlns:xlink="http://www.w3.org/1999/xlink" width="546" height="276" viewBox="0 0 546 276"><style class="text-font-style fontImports" data-font-family="Shantell Sans">@import url(https://fonts.googleapis.com/css2?family=Shantell+Sans:wght@300..800&amp;amp;display=block);</style><g id="items" style="isolation: isolate"><g id="blend" style="mix-blend-mode: normal"><g id="g-root-cr_2_cr-2_1hgbfl9fcb28c-fill" data-item-order="999953351" transform="translate(386, 74)"></g><g id="g-root-cr_1_cr-1_1hgbfl9fcb28d-fill" data-item-order="999953355" transform="translate(62, 74)"></g><g id="g-root-tx_howtocon_141qmy5fcb1fz-fill" data-item-order="1000000000" transform="translate(56, 2)"><g id="tx_howtocon_141qmy5fcb1fz-fill-merged" stroke="none" fill="#484848" fill-opacity="1"><g><text style="font: 25px &quot;Shantell Sans&quot;, cursive; white-space: pre;" transform="translate(232, 28)" font-size="25px" font-family="'Shantell Sans', cursive"><tspan x="-218.84" y="16.5" dominant-baseline="ideographic">How to connect AI tools efficiently?</tspan></text></g></g></g><g id="g-root-ic_user_v9ue25fcb282-fill" data-item-order="1000000000" transform="translate(80, 92)"></g><g id="g-root-ic_ligh_73yctfc2nep-fill" data-item-order="1000000000" transform="translate(242, 92)"></g><g id="g-root-ic_scre_245nxfbvkld-fill" data-item-order="1000000000" transform="translate(404, 92)"></g><g id="g-root-tx_customco_zpnw6lfcb1ft-fill" data-item-order="1000000000" transform="translate(8, 194)"><g id="tx_customco_zpnw6lfcb1ft-fill-merged" stroke="none" fill="#484848" fill-opacity="1"><g><text style="font: bold 20px &quot;Shantell Sans&quot;, cursive; white-space: pre;" transform="translate(118, 22)" font-weight="bold" font-size="20px" font-family="'Shantell Sans', cursive"><tspan x="-104.27" y="13.5" dominant-baseline="ideographic">Custom Connections</tspan></text></g></g></g><g id="g-root-tx_mcpstand_145heb1fcb0nj-fill" data-item-order="1000000000" transform="translate(362, 194)"><g id="tx_mcpstand_145heb1fcb0nj-fill-merged" stroke="none" fill="#484848" fill-opacity="1"><g><text style="font: bold 20px &quot;Shantell Sans&quot;, cursive; white-space: pre;" transform="translate(88, 22)" font-weight="bold" font-size="20px" font-family="'Shantell Sans', cursive"><tspan x="-75.58" y="13.5" dominant-baseline="ideographic">MCP Standard</tspan></text></g></g></g><g id="g-root-tx_timecons_zpnw6lfcb1fs-fill" data-item-order="1000000000" transform="translate(2, 230)"><g id="tx_timecons_zpnw6lfcb1fs-fill-merged" stroke="none" fill="#484848" fill-opacity="1"><g><text style="font: 15px &quot;Shantell Sans&quot;, cursive; white-space: pre;" transform="translate(124, 22)" font-size="15px" font-family="'Shantell Sans', cursive"><tspan x="-106.61" y="10" dominant-baseline="ideographic">Time-consuming and complex</tspan></text></g></g></g><g id="g-root-tx_efficien_1d0hxgtfcb30m-fill" data-item-order="1000000000" transform="translate(356, 230)"><g id="tx_efficien_1d0hxgtfcb30m-fill-merged" stroke="none" fill="#484848" fill-opacity="1"><g><text style="font: 15px &quot;Shantell Sans&quot;, cursive; white-space: pre;" transform="translate(94, 22)" font-size="15px" font-family="'Shantell Sans', cursive"><tspan x="-81.58" y="10" dominant-baseline="ideographic">Efficient and universal</tspan></text></g></g></g><g id="g-root-cr_2_cr-2_1hgbfl9fcb28c-stroke" data-item-order="999953351" transform="translate(386, 74)"><g id="cr_2_cr-2_1hgbfl9fcb28c-stroke" fill="none" stroke-linecap="round" stroke-linejoin="round" stroke-miterlimit="4" stroke="#484848" stroke-width="4" stroke-opacity="1"><g><path d="M 10 64C 10 93.823377 34.176624 118 64 118C 93.823377 118 118 93.823377 118 64C 118 34.176624 93.823377 10 64 10C 34.176624 10 10 34.176624 10 64ZM 10 64C 11.8 77.5 13.9 91.2 23.3 99.5C 34.6 109.5 47.8 119.1 64 118C 93.7 115.9 116.4 93.8 118 64C 118.8 49.1 111.9 35.5 102.1 25.7C 92.4 16 78.9 9.4 64 10C 48.6 10.6 33.4 15.4 24.8 26.9C 16.8 37.5 8.2 49.7 10 64M 10 64C 9.4 72 12.8 79.2 14.9 86.4C 16.6 92.6 22.7 96.4 25.6 102C 29.1 108.8 37.4 112 44.7 114.5C 50.8 116.5 57.2 117.9 64 118C 74.8 118.1 85.8 116.2 93.2 109.4C 99.3 103.9 106.8 99.5 110.2 92C 114.2 83.3 114.3 73.6 118 64C 120.4 57.7 115.8 51.1 114.5 44.9C 113 37.4 108.1 30.9 102.5 26.1C 97.2 21.6 91.8 17 85.3 14.4C 78.7 11.7 71.4 11.4 64 10C 57 8.7 50.5 13 43.8 13.9C 36.9 14.8 31.7 20.5 26.6 25.1C 20.8 30.2 16.6 37 13.7 44.3C 11.3 50.4 10 57 10 64"></path></g></g></g><g id="g-root-cr_1_cr-1_1hgbfl9fcb28d-stroke" data-item-order="999953355" transform="translate(62, 74)"><g id="cr_1_cr-1_1hgbfl9fcb28d-stroke" fill="none" stroke-linecap="round" stroke-linejoin="round" stroke-miterlimit="4" stroke="#484848" stroke-width="4" stroke-opacity="1"><g><path d="M 10 64C 10 93.823377 34.176624 118 64 118C 93.823377 118 118 93.823377 118 64C 118 34.176624 93.823377 10 64 10C 34.176624 10 10 34.176624 10 64ZM 10 64C 11.4 93.8 34.2 117.6 64 118C 93.8 118.4 118.8 93.8 118 64C 117.2 34.2 93.8 9 64 10C 48.3 10.5 34.3 16.8 24.3 27.4C 15.3 37 8 50 10 64M 10 64C 11.3 70 11.6 75.8 12.9 81.5C 14.2 87 16.8 92.3 20.7 96.2C 24.4 100.1 27 106 32.2 107.6C 37.3 109.2 41 114.5 46.4 115.1C 52.2 115.7 57.8 118 64 118C 69.3 118 74.4 116.9 79.3 115.8C 83.5 114.8 87.7 113.5 90.9 110.8C 94.6 107.8 99.2 105.9 102.1 102.2C 104.9 98.7 107.2 94.8 110.4 91.6C 113.4 88.7 113.1 83.5 115.6 80C 118.7 75.7 116.6 69.4 118 64C 120.3 55 113.5 46.8 111.6 38.4C 109.4 28.8 100.3 21.8 91.4 17.5C 83 13.4 73.9 8.4 64 10C 54.2 11.6 43.9 11.4 36.8 17.3C 30 23 20 27.1 17.9 35.8C 15.7 45.2 8.7 53.8 10 64"></path></g></g></g><g id="g-root-tx_howtocon_141qmy5fcb1fz-stroke" data-item-order="1000000000" transform="translate(56, 2)"></g><g id="g-root-ic_user_v9ue25fcb282-stroke" data-item-order="1000000000" transform="translate(80, 92)"><g id="ic_user_v9ue25fcb282-stroke" fill="none" stroke-linecap="round" stroke-linejoin="round" stroke-miterlimit="4" stroke="#484848" stroke-width="2" stroke-opacity="1"><g><path d="M 18.895 52.645C 18.894749 57.259518 22.635483 61.000458 27.25 61.000458C 31.864517 61.000458 35.605251 57.259518 35.605 52.645C 35.605251 48.030487 31.864517 44.289547 27.25 44.289547C 22.635483 44.289547 18.894749 48.030487 18.895 52.645M 41.722 77.709999C 40.683548 70.516052 34.518517 65.17704 27.25 65.17704C 19.981482 65.17704 13.816453 70.516052 12.778 77.709999ZM 56.395 52.645C 56.394749 57.259518 60.135483 61.000458 64.75 61.000458C 69.364517 61.000458 73.105255 57.259518 73.104996 52.645C 73.105255 48.030487 69.364517 44.289547 64.75 44.289547C 60.135483 44.289547 56.394749 48.030487 56.395 52.645M 79.222 77.709999C 78.183548 70.516052 72.018524 65.17704 64.75 65.17704C 57.481483 65.17704 51.316452 70.516052 50.278 77.709999ZM 27.778 14.29L 32.278 14.29C 33.934853 14.29 35.278 15.633145 35.278 17.290001L 35.278 27.789999C 35.278 29.446854 33.934853 30.789999 32.278 30.789999L 27.778 30.789999C 24.464293 30.789999 21.778 28.103708 21.778 24.789999L 21.778 20.290001C 21.778 16.976292 24.464293 14.29 27.778 14.29ZM 35.278 18.790001L 41.278 18.790001M 35.278 26.289999L 41.278 26.289999M 21.778 21.790001L 15.778 21.790001C 14.121146 21.790001 12.778 23.133144 12.778 24.789999L 12.778 48.790001C 12.778 50.446854 14.121146 51.790001 15.778 51.790001L 18.778 51.790001M 63.778 30.789999L 56.278 30.789999C 54.621147 30.789999 53.278 29.446856 53.278 27.789997L 53.278 17.290001C 53.278 15.633145 54.621147 14.29 56.278 14.29L 63.778 14.29C 67.091713 14.29 69.778008 16.97629 69.778008 20.290001L 69.778008 24.789997C 69.778008 28.103706 67.091713 30.789999 63.778 30.789999ZM 69.778 21.790001L 75.778 21.790001C 77.434853 21.790001 78.778 23.133144 78.778 24.789999L 78.778 48.790001C 78.778 50.446854 77.434853 51.790001 75.778 51.790001L 74.278 51.790001M 59.290001 46.345001C 62.474274 50.71904 67.714569 53.108753 73.104996 52.645M 32.713001 46.345001C 29.527767 50.719532 24.286356 53.109238 18.895 52.645M 58.335999 19.867001L 61.528 19.867001M 58.335999 25.213001L 61.528 25.213001M 19 52.599998C 18.4 57.400002 22.599998 61 27.400002 61C 31.900002 61.300003 34.300003 57.099998 35.5 52.599998C 37 48.099998 31.900002 44.5 27.400002 44.199997C 22.599998 43.900002 19.299999 48.099998 19 52.599998M 41.800003 77.800003C 41.5 70.300003 34.300003 64 27.400002 65.199997C 20.200001 66.100006 16 71.199997 12.7 77.800003C 22 74.800003 32.200001 77.5 41.800003 77.800003M 56.5 52.599998C 56.800003 57.400002 60.399998 59.800003 64.899994 61C 69.100006 61.899998 74.5 57.099998 73 52.599998C 71.5 48.400002 69.100006 45.400002 64.899994 44.199997C 60.399998 43 56.5 48.099998 56.5 52.599998M 79.300003 77.800003C 77.5 70.600006 71.800003 64 64.899994 65.199997C 57.699997 66.399994 52.900002 70.899994 50.199997 77.800003C 59.5 74.5 69.699997 77.199997 79.300003 77.800003M 27.700001 14.2C 29.200001 14.2 30.700001 14.8 32.200001 14.2C 33.700001 13.6 35.5 15.7 35.199997 17.200001C 34.900002 20.799999 34.599998 24.400002 35.199997 27.700001C 35.5 29.5 34 31 32.200001 30.700001C 30.700001 30.700001 29.200001 30.700001 27.700001 30.700001C 24.400002 31 22.900002 28 21.700001 24.700001C 21.1 23.5 22 21.700001 21.700001 20.200001C 21.4 16.9 24.400002 15.1 27.700001 14.2M 35.199997 18.700001C 37.300003 18.4 39.400002 18.4 41.199997 18.700001M 35.199997 26.200001C 37.300003 26.799999 39.400002 26.200001 41.199997 26.200001M 21.700001 21.700001C 19.9 22 17.799999 22.299999 15.7 21.700001C 14.2 21.4 12.7 23.200001 12.7 24.700001C 12.7 32.799999 12.4 40.900002 12.7 48.699997C 13 50.5 14.2 51.699997 15.7 51.699997C 16.9 52 17.799999 51.699997 18.700001 51.699997M 63.699997 30.700001C 61.300003 30.400002 58.600002 30.099998 56.199997 30.700001C 54.699997 31.299999 53.5 29.5 53.199997 27.700001C 53.199997 24.400002 53.800003 20.799999 53.199997 17.200001C 52.900002 15.7 54.699997 13.9 56.199997 14.2C 58.600002 15.1 61.300003 14.2 63.699997 14.2C 67 14.5 69.399994 16.9 69.699997 20.200001C 70 21.700001 69.399994 23.200001 69.699997 24.700001C 70.600006 28 67 31.900002 63.699997 30.700001M 69.699997 21.700001C 71.800003 21.4 73.899994 22.299999 75.699997 21.700001C 77.5 21.4 78.399994 23.200001 78.699997 24.700001C 80.800003 32.5 78.399994 40.900002 78.699997 48.699997C 79 50.5 77.5 52.300003 75.699997 51.699997C 75.399994 51.699997 74.800003 52 74.199997 51.699997M 59.199997 46.300003C 62.5 50.800003 67.899994 53.800003 73 52.599998M 32.799999 46.300003C 29.799999 50.800003 24.099998 54.099998 19 52.599998M 58.300003 19.9C 59.199997 20.200001 60.399998 20.200001 61.600002 19.9M 58.300003 25.299999C 59.5 25.299999 60.399998 25 61.600002 25.299999"></path></g></g></g><g id="g-root-ic_ligh_73yctfc2nep-stroke" data-item-order="1000000000" transform="translate(242, 92)"><g id="ic_ligh_73yctfc2nep-stroke" fill="none" stroke-linecap="round" stroke-linejoin="round" stroke-miterlimit="4" stroke="#484848" stroke-width="2" stroke-opacity="1"><g><path d="M 43.7155 60.25L 41.78965 75.448456C 41.6017 76.932404 43.444153 77.732651 44.395 76.57795C 47.01955 73.3909 50.811699 68.769402 54.856899 63.833954M 69.831848 45.546398C 71.379852 43.654751 72.706451 42.033249 73.705299 40.812103C 74.506447 39.832748 73.809097 38.36335 72.543854 38.36335L 69.158348 38.36335M 25.079649 52.911999L 19.49548 52.911999C 18.223511 52.911999 17.52829 51.428951 18.342926 50.452148L 22.779266 45.132549M 35.112999 30.346449C 39.87685 24.636566 44.504349 19.091724 47.564949 15.428576C 48.525852 14.278646 50.384201 15.095304 50.190849 16.581249L 48.589302 28.888599M 40.897453 54.801849L 46.692249 35.308601C 46.978149 34.346951 46.257702 33.3811 45.254501 33.3811L 42.439301 33.3811C 41.771049 33.3811 41.18335 33.823151 40.9981 34.465149L 36.3946 50.412849C 36.289299 50.77795 35.77 50.772701 35.67205 50.405647L 31.4233 34.494099C 31.2481 33.8377 30.6535 33.3811 29.97415 33.3811L 26.994999 33.3811C 25.99645 33.3811 25.276749 34.338249 25.553949 35.297501L 31.17985 54.7687C 31.7362 56.694099 33.498852 58.019501 35.503002 58.019501L 36.584049 58.019501C 38.575451 58.019501 40.329998 56.710602 40.897453 54.801849ZM 55.995251 52.8979C 54.671501 52.8979 53.315948 52.649349 52.157799 52.296249C 51.212952 52.008099 50.137451 52.530552 49.935249 53.497299L 49.494553 55.60405C 49.356548 56.263451 49.675148 56.93755 50.312199 57.156551C 51.677353 57.6259 53.664398 58.020248 55.7164 58.020248C 62.197296 58.020248 65.500153 54.6562 65.500153 50.398453C 65.500153 47.324951 63.797348 44.9491 59.738503 43.285149C 56.776901 42.0355 55.727348 41.490551 55.727348 40.328049C 55.727348 39.259899 56.758598 38.467899 58.703651 38.467899C 59.83075 38.467899 60.802898 38.636799 61.608551 38.862099C 62.52655 39.118752 63.545498 38.638149 63.765404 37.710701L 64.243744 35.694248C 64.408752 34.998253 64.061646 34.273598 63.381096 34.053402C 62.162048 33.658901 60.618248 33.381851 58.743996 33.381851C 52.776852 33.381851 49.470402 36.687851 49.470402 40.843899C 49.470402 43.873749 51.5695 46.227848 55.602547 47.924351C 58.15675 48.945248 59.221001 49.66465 59.221001 50.874397C 59.221001 52.084152 58.112801 52.8979 55.995251 52.8979ZM 43.75 60.25C 44.199997 65.350006 42.099998 70.300003 41.800003 75.399994C 41.650002 76.899994 43.75 77.949997 44.349998 76.600006C 46.449997 73 49.599998 67.600006 54.849998 63.850002M 69.850006 45.550003C 71.050003 43.449997 72.699997 42.099998 73.75 40.75C 74.5 39.849998 73.75 38.050003 72.550003 38.349998C 71.5 38.650002 70.300003 38.650002 69.100006 38.349998M 25.150002 52.900002C 23.200001 53.050003 21.4 53.050003 19.450001 52.900002C 18.25 52.75 17.65 51.550003 18.4 50.5C 19.6 48.550003 21.1 46.75 22.75 45.099998M 35.050003 30.400002C 40.900002 25.75 44.050003 18.700001 47.5 15.4C 48.699997 14.35 50.199997 15.1 50.199997 16.6C 50.050003 20.65 48.25 24.700001 48.550003 28.900002M 40.900002 54.849998C 44.199997 48.849998 45.400002 41.949997 46.75 35.349998C 46.900002 34.300003 46.150002 33.700001 45.25 33.400002C 44.349998 33.099998 43.300003 33.099998 42.400002 33.400002C 41.800003 33.549999 41.349998 33.849998 41.050003 34.449997C 37.75 38.949997 38.199997 45.25 36.400002 50.349998C 36.25 50.800003 35.800003 50.800003 35.650002 50.349998C 33.099998 45.550003 31.450001 40 31.450001 34.449997C 31.450001 33.849998 30.700001 33.400002 29.950001 33.400002C 29.049999 33.400002 28 33.099998 26.950001 33.400002C 26.049999 33.700001 25.450001 34.300003 25.599998 35.349998C 26.349998 41.949997 29.200001 48.25 31.150002 54.699997C 31.75 56.650002 33.549999 57.849998 35.5 58C 35.800003 58 36.25 58 36.550003 58C 38.5 57.699997 40.75 56.800003 40.900002 54.849998M 56.050003 52.900002C 54.699997 53.050003 53.349998 52.599998 52.150002 52.300003C 51.25 52.150002 50.050003 52.599998 49.900002 53.5C 49.900002 54.25 49.75 54.849998 49.449997 55.599998C 49.300003 56.199997 49.75 56.949997 50.349998 57.099998C 51.699997 57.699997 53.650002 57.550003 55.75 58C 62.050003 59.350002 65.350006 54.699997 65.5 50.349998C 65.649994 47.349998 63.699997 45.25 59.800003 43.300003C 56.650002 42.400002 55.449997 41.5 55.75 40.300003C 55.900002 39.25 56.800003 38.800003 58.75 38.5C 59.800003 38.349998 60.850002 38.5 61.600002 38.800003C 62.5 39.400002 63.25 38.5 63.699997 37.75C 64.149994 37.150002 64.149994 36.400002 64.300003 35.650002C 64.300003 35.050003 64 34.300003 63.399998 34C 62.199997 33.700001 60.550003 32.950001 58.75 33.400002C 53.050003 35.050003 49.75 36.699997 49.449997 40.900002C 49.300003 43.900002 52 45.550003 55.599998 47.949997C 58.149998 49 58.899998 49.75 59.199997 50.800003C 59.649998 52 58 52.449997 56.050003 52.900002"></path></g></g></g><g id="g-root-ic_scre_245nxfbvkld-stroke" data-item-order="1000000000" transform="translate(404, 92)"><g id="ic_scre_245nxfbvkld-stroke" fill="none" stroke-linecap="round" stroke-linejoin="round" stroke-miterlimit="4" stroke="#484848" stroke-width="2" stroke-opacity="1"><g><path d="M 45.0289 72.480103C 45.0289 75.913002 42.403599 78.538002 38.970879 78.538002L 19.787411 78.538002C 16.354601 78.538002 13.72948 75.913002 13.72948 72.480103L 13.72948 39.161438C 13.72948 35.72863 16.354601 33.103508 19.787411 33.103508L 38.970879 33.103508C 42.403599 33.103508 45.0289 35.72863 45.0289 39.161438L 45.0289 72.480103ZM 13.72948 69.449203L 45.0289 69.449203M 10 10M 24.153311 22.91152L 24.153311 19.45417C 24.153311 16.140459 26.8396 13.45417 30.153311 13.45417L 72.268898 13.45417C 75.582703 13.45417 78.268898 16.140459 78.268898 19.45417L 78.268898 48.748001C 78.268898 52.061802 75.582703 54.748001 72.268898 54.748001L 56.589401 54.748001M 45.099998 72.399994C 45.099998 76 42.400002 79 39.099998 78.399994C 32.5 78.100006 26.200001 78.699997 19.9 78.399994C 16.299999 78.399994 13.3 76 13.6 72.399994C 15.4 61.600002 13.6 50.199997 13.6 39.099998C 13.9 35.800003 16.299999 33.400002 19.9 33.099998C 26.200001 32.5 32.799999 31.599998 39.099998 33.099998C 42.400002 34 46 35.800003 45.099998 39.099998C 41.800003 49.900002 43.599998 61.300003 45.099998 72.399994M 13.6 69.399994C 23.5 73.300003 34.599998 69.100006 45.099998 69.399994M 10 10M 24.099998 22.900002C 24.400002 21.700001 24.099998 20.5 24.099998 19.6C 24.099998 16 26.799999 14.2 30.099998 13.6C 43.900002 10.6 58.300003 15.4 72.399994 13.6C 75.699997 13 79 16.299999 78.399994 19.6C 76.600006 29.200001 80.199997 39.099998 78.399994 48.699997C 77.5 52 75.399994 55.900002 72.399994 54.699997C 67.300003 52.900002 61.899998 54.699997 56.5 54.699997"></path></g></g></g><g id="g-root-tx_customco_zpnw6lfcb1ft-stroke" data-item-order="1000000000" transform="translate(8, 194)"></g><g id="g-root-tx_mcpstand_145heb1fcb0nj-stroke" data-item-order="1000000000" transform="translate(362, 194)"></g><g id="g-root-tx_timecons_zpnw6lfcb1fs-stroke" data-item-order="1000000000" transform="translate(2, 230)"></g><g id="g-root-tx_efficien_1d0hxgtfcb30m-stroke" data-item-order="1000000000" transform="translate(356, 230)"></g></g></g></svg>