<?xml version="1.0" encoding="utf-8" standalone="yes"?>
<!DOCTYPE svg PUBLIC "-//W3C//DTD SVG 1.1//EN" "http://www.w3.org/Graphics/SVG/1.1/DTD/svg11.dtd">
<svg style="fill:none;stroke:none;fill-rule:evenodd;clip-rule:evenodd;stroke-linecap:round;stroke-linejoin:round;stroke-miterlimit:1.5;" version="1.1" xmlns="http://www.w3.org/2000/svg" xmlns:xlink="http://www.w3.org/1999/xlink" width="866" height="386" viewBox="0 0 866 386"><style class="text-font-style fontImports" data-font-family="Shantell Sans">@import url(https://fonts.googleapis.com/css2?family=Shantell+Sans:wght@300..800&amp;amp;display=block);</style><g id="items" style="isolation: isolate"><g id="blend" style="mix-blend-mode: normal"><g id="g-root-cp_4_g-4_140hrxpde435w-fill" data-item-order="999697611" transform="translate(455, 189)"></g><g id="g-root-cp_3_g-3_v4urotde43yl-fill" data-item-order="999697615" transform="translate(315, 189)"></g><g id="g-root-cp_2_g-2_qpnqnhde41l2-fill" data-item-order="999697619" transform="translate(487, 93)"></g><g id="g-root-cp_1_g-1_qpnqnhde41l3-fill" data-item-order="999697623" transform="translate(255, 93)"></g><g id="g-root-tx_howtores_de78a5de4360-fill" data-item-order="1000000000" transform="translate(219, 3)"><g id="tx_howtores_de78a5de4360-fill-merged" stroke="none" fill="#f4f4f4" fill-opacity="1"><g><text style="font: 25px &quot;Shantell Sans&quot;, cursive; white-space: pre;" transform="translate(214, 28)" font-size="25px" font-family="'Shantell Sans', cursive"><tspan x="-198.95" y="16.5" dominant-baseline="ideographic">How to respond to a user query?</tspan></text></g></g></g><g id="g-root-ic_face_3d6zxde41l5-fill" data-item-order="1000000000" transform="translate(387, 87)"></g><g id="g-root-ic_robo_zqx3u5de42ry-fill" data-item-order="1000000000" transform="translate(267, 105)"></g><g id="g-root-ic_2_1lxe27hde89ou-fill" data-item-order="1000000000" transform="translate(543, 105)"></g><g id="g-root-tx_answerfr_9098ktdecgzs-fill" data-item-order="1000000000" transform="translate(99, 111)"><g id="tx_answerfr_9098ktdecgzs-fill-merged" stroke="none" fill="#f4f4f4" fill-opacity="1"><g><text style="font: bold 20px &quot;Shantell Sans&quot;, cursive; white-space: pre;" transform="translate(154, 34)" font-weight="bold" font-size="20px" font-family="'Shantell Sans', cursive"><tspan x="-137.74" y="1.5" dominant-baseline="ideographic">Answer from </tspan><tspan x="-88.46" y="25.5" dominant-baseline="ideographic">Memory</tspan></text></g></g></g><g id="g-root-tx_usecalcu_1cz98rxdechl0-fill" data-item-order="1000000000" transform="translate(603, 111)"><g id="tx_usecalcu_1cz98rxdechl0-fill-merged" stroke="none" fill="#f4f4f4" fill-opacity="1"><g><text style="font: bold 20px &quot;Shantell Sans&quot;, cursive; white-space: pre;" transform="translate(10, 22)" font-weight="bold" font-size="20px" font-family="'Shantell Sans', cursive"><tspan x="2" y="13.5" dominant-baseline="ideographic">Use Calculation Tool</tspan></text></g></g></g><g id="g-root-tx_performc_1cz98rxdechl1-fill" data-item-order="1000000000" transform="translate(603, 147)"><g id="tx_performc_1cz98rxdechl1-fill-merged" stroke="none" fill="#f4f4f4" fill-opacity="1"><g><text style="font: 15px &quot;Shantell Sans&quot;, cursive; white-space: pre;" transform="translate(10, 40)" font-size="15px" font-family="'Shantell Sans', cursive"><tspan x="2" y="-8" dominant-baseline="ideographic">Perform calculations to </tspan><tspan x="2" y="10" dominant-baseline="ideographic">provide precise answers, like </tspan><tspan x="2" y="28" dominant-baseline="ideographic">currency conversions.</tspan></text></g></g></g><g id="g-root-tx_usetrain_4kfqgddechs1-fill" data-item-order="1000000000" transform="translate(39, 171)"><g id="tx_usetrain_4kfqgddechs1-fill-merged" stroke="none" fill="#f4f4f4" fill-opacity="1"><g><text style="font: 15px &quot;Shantell Sans&quot;, cursive; white-space: pre;" transform="translate(214, 40)" font-size="15px" font-family="'Shantell Sans', cursive"><tspan x="-189.85" y="-8" dominant-baseline="ideographic">Use trained knowledge to </tspan><tspan x="-200.86" y="10" dominant-baseline="ideographic">provide a response without </tspan><tspan x="-106.95" y="28" dominant-baseline="ideographic">external tools.</tspan></text></g></g></g><g id="g-root-ic_moni_18lxju5dejito-fill" data-item-order="1000000000" transform="translate(327, 237)"></g><g id="g-root-ic_orde_4gosrxdegqo1-fill" data-item-order="1000000000" transform="translate(483, 237)"></g><g id="g-root-tx_usedatab_1qa3a25decj5u-fill" data-item-order="1000000000" transform="translate(99, 243)"><g id="tx_usedatab_1qa3a25decj5u-fill-merged" stroke="none" fill="#f4f4f4" fill-opacity="1"><g><text style="font: bold 20px &quot;Shantell Sans&quot;, cursive; white-space: pre;" transform="translate(214, 22)" font-weight="bold" font-size="20px" font-family="'Shantell Sans', cursive"><tspan x="-194.13" y="13.5" dominant-baseline="ideographic">Use Database Tool</tspan></text></g></g></g><g id="g-root-tx_useexter_143m8j1decidq-fill" data-item-order="1000000000" transform="translate(543, 243)"><g id="tx_useexter_143m8j1decidq-fill-merged" stroke="none" fill="#f4f4f4" fill-opacity="1"><g><text style="font: bold 20px &quot;Shantell Sans&quot;, cursive; white-space: pre;" transform="translate(10, 34)" font-weight="bold" font-size="20px" font-family="'Shantell Sans', cursive"><tspan x="2" y="1.5" dominant-baseline="ideographic">Use External </tspan><tspan x="2" y="25.5" dominant-baseline="ideographic">Service Tool</tspan></text></g></g></g><g id="g-root-tx_accessan_1qa3a25decj5v-fill" data-item-order="1000000000" transform="translate(87, 279)"><g id="tx_accessan_1qa3a25decj5v-fill-merged" stroke="none" fill="#f4f4f4" fill-opacity="1"><g><text style="font: 15px &quot;Shantell Sans&quot;, cursive; white-space: pre;" transform="translate(226, 46)" font-size="15px" font-family="'Shantell Sans', cursive"><tspan x="-144.59" y="-17" dominant-baseline="ideographic">Access and retrieve </tspan><tspan x="-212.19" y="1" dominant-baseline="ideographic">information from a database </tspan><tspan x="-146.09" y="19" dominant-baseline="ideographic">for a more accurate </tspan><tspan x="-69.44" y="37" dominant-baseline="ideographic">response.</tspan></text></g></g></g><g id="g-root-tx_connectt_znsqeldecj5z-fill" data-item-order="1000000000" transform="translate(543, 303)"><g id="tx_connectt_znsqeldecj5z-fill-merged" stroke="none" fill="#f4f4f4" fill-opacity="1"><g><text style="font: 15px &quot;Shantell Sans&quot;, cursive; white-space: pre;" transform="translate(10, 40)" font-size="15px" font-family="'Shantell Sans', cursive"><tspan x="2" y="-8" dominant-baseline="ideographic">Connect to external services </tspan><tspan x="2" y="10" dominant-baseline="ideographic">to fulfill the query, such as </tspan><tspan x="2" y="28" dominant-baseline="ideographic">making reservations.</tspan></text></g></g></g><g id="g-root-cp_4_g-4_140hrxpde435w-stroke" data-item-order="999697611" transform="translate(455, 189)"><g id="cp_4_g-4_140hrxpde435w-stroke" fill="none" stroke-linecap="round" stroke-linejoin="round" stroke-miterlimit="4" stroke="#f4f4f4" stroke-width="4" stroke-opacity="1"><g><path d="M 81.4692 86.4636C 81.8154 87.7506 82 89.1037 82 90.5C 82 99.0604 75.0604 106 66.5 106C 63.4334 106 60.5749 105.1095 58.1688 103.5729C 56.4958 104.4813 54.5612 105 52.5 105C 49.2123 105 46.2468 103.6804 44.1509 101.5646C 43.1468 101.8485 42.0904 102 41 102C 34.3726 102 29 96.4036 29 89.5C 29 88.3742 29.1429 87.2832 29.4107 86.2456C 27.3145 84.3259 26 81.5665 26 78.5C 26 74.8998 27.8119 71.7228 30.5736 69.8312C 29.5692 67.9429 29 65.7879 29 63.5C 29 56.0442 35.0442 50 42.5 50C 43.0365 50 43.5656 50.0313 44.0858 50.0922C 47.7125 47.5181 52.1748 46 57 46C 62.757 46 67.9975 48.161 71.9185 51.6983C 73.0238 51.2481 74.2329 51 75.5 51C 80.7467 51 85 55.2533 85 60.5C 85 62.8989 84.1108 65.0901 82.6441 66.7621C 84.7332 69.2273 86 72.4602 86 76C 86 80.1617 84.249 83.8993 81.4692 86.4636ZM 81.5 86.5C 82.1 87.7 82.2 89.1 82 90.5C 80.8 99 75.1 106.2 66.5 106C 63.4 105.9 60.4 105.4 58.2 103.6C 56.7 104.8 54.5 105.2 52.5 105C 49.2 104.7 46.7 103.2 44.2 101.6C 43.3 102.1 42.1 101.8 41 102C 34.4 102.9 27.8 96.3 29 89.5C 29.2 88.4 29 87.2 29.4 86.2C 27.6 84 25 81.4 26 78.5C 27.2 75.1 27.5 71 30.6 69.8C 29.4 68.1 28.7 65.8 29 63.5C 29.9 56.1 35 50.3 42.5 50C 43 50 43.6 50.1 44.1 50.1C 47.8 47.7 52.2 46.3 57 46C 62.7 45.7 67.7 48.6 71.9 51.7C 73.1 51.6 74.2 51.2 75.5 51C 80.7 50.4 85.1 55.3 85 60.5C 85 62.9 84.4 65.4 82.6 66.8C 84.8 69.1 86.4 72.5 86 76C 85.6 80.1 84.9 84.9 81.5 86.5M 81.5 86.5C 82.1 87.7 81.9 89.1 82 90.5C 82.2 94.8 79.4 98.1 77.4 101.5C 75.4 104.9 70.7 106.7 66.5 106C 63.5 105.5 60.7 104.9 58.2 103.6C 56.3 104 54.5 104.6 52.5 105C 49.3 105.7 45.4 104.3 44.2 101.6C 43.1 101.8 42.1 102.1 41 102C 34.4 101.6 28.3 96.4 29 89.5C 29.1 88.4 29.5 87.3 29.4 86.2C 27.8 83.9 25.9 81.6 26 78.5C 26.1 74.9 28.2 72.2 30.6 69.8C 28.9 68.5 29 65.8 29 63.5C 29 56 35.1 49.4 42.5 50C 43 50 43.6 50.2 44.1 50.1C 47.2 46.9 52.3 45 57 46C 62.6 47.3 69.1 47.3 71.9 51.7C 72.9 51 74.2 51.1 75.5 51C 80.7 50.5 83.8 55.4 85 60.5C 85.5 62.8 84.3 65.3 82.6 66.8C 84.6 69.3 86.9 72.6 86 76C 84.9 80 84.6 84.3 81.5 86.5"></path></g></g><g id="cp_4_g-4_140hrxpde435w-stroke" fill="none" stroke-linecap="round" stroke-linejoin="round" stroke-miterlimit="4" stroke="#f4f4f4" stroke-width="4" stroke-opacity="1"><g><path d="M 18 34C 18 38.418278 21.581722 42 26 42C 30.418278 42 34 38.418278 34 34C 34 29.581722 30.418278 26 26 26C 21.581722 26 18 29.581722 18 34M 18 34C 18.9 38.3 21.6 41.4 26 42C 30.4 42.6 33.8 38.4 34 34C 34.2 29.6 30.4 26.5 26 26C 21.6 25.5 18.4 29.6 18 34M 18 34C 18.9 38.3 21.6 42.2 26 42C 30.4 41.8 35.2 38.3 34 34C 32.8 29.7 30.4 26.7 26 26C 21.6 25.3 17.6 29.6 18 34"></path></g></g><g id="cp_4_g-4_140hrxpde435w-stroke" fill="none" stroke-linecap="round" stroke-linejoin="round" stroke-miterlimit="4" stroke="#f4f4f4" stroke-width="4" stroke-opacity="1"><g><path d="M 18 14C 18 11.7909 16.2091 10 14 10C 11.7909 10 10 11.7909 10 14C 10 16.2091 11.7909 18 14 18C 16.2091 18 18 16.2091 18 14ZM 18 14C 17.5 11.8 16.2 10.3 14 10C 11.8 9.7 10.1 11.8 10 14C 9.9 16.2 11.8 17.8 14 18C 16.2 18.2 17.8 16.2 18 14M 18 14C 17.5 11.8 16.2 9.9 14 10C 11.8 10.1 9.4 11.9 10 14C 10.6 16.1 11.8 17.7 14 18C 16.2 18.3 18.2 16.2 18 14"></path></g></g></g><g id="g-root-cp_3_g-3_v4urotde43yl-stroke" data-item-order="999697615" transform="translate(315, 189)"><g id="cp_3_g-3_v4urotde43yl-stroke" fill="none" stroke-linecap="round" stroke-linejoin="round" stroke-miterlimit="4" stroke="#f4f4f4" stroke-width="4" stroke-opacity="1"><g><path d="M 28.2735 49.6985C 27.1024 49.2473 25.8301 49 24.5 49C 18.701 49 14 53.701 14 59.5C 14 60.4121 14.1163 61.297 14.3349 62.1407C 11.6359 65.3079 10 69.4575 10 74C 10 79.6905 12.5673 84.7643 16.5755 88.0628C 16.2026 89.1397 16 90.2962 16 91.5C 16 97.299 20.701 102 26.5 102C 27.2901 102 28.0599 101.9127 28.8001 101.7473C 31.3536 104.3652 34.9788 106 39 106C 43.5014 106 47.5067 103.9514 50.0677 100.7683C 51.6517 102.1577 53.7275 103 56 103C 60.9706 103 65 98.9706 65 94C 65 93.1394 64.8792 92.3069 64.6536 91.5188C 67.9818 87.6447 70 82.5635 70 77C 70 72.6626 68.7733 68.6183 66.6556 65.2107C 66.8812 64.1763 67 63.102 67 62C 67 53.7157 60.2843 47 52 47C 50.2108 47 48.4947 47.3133 46.9037 47.8879C 44.5425 46.6823 41.8533 46 39 46C 34.9329 46 31.1993 47.3862 28.2735 49.6985ZM 28.3 49.7C 27 49.5 25.8 48.7 24.5 49C 18.8 50.2 14.3 53.7 14 59.5C 13.9 60.4 14 61.3 14.3 62.1C 11.1 64.8 9.6 69.5 10 74C 10.5 79.7 13.4 83.9 16.6 88.1C 16.2 89.2 15.9 90.3 16 91.5C 16.6 97.3 20.8 101.2 26.5 102C 27.3 102.1 28.1 102.1 28.8 101.7C 32 103.6 35.1 107.1 39 106C 43.3 104.7 46.6 102.9 50.1 100.8C 52.1 101.4 53.8 102.6 56 103C 60.9 103.8 66.6 98.7 65 94C 64.7 93.2 64.9 92.3 64.7 91.5C 67.5 87.2 68.4 82.3 70 77C 71.3 72.9 69.6 67.9 66.7 65.2C 66.9 64.2 66.9 63.1 67 62C 67.8 53.7 60.2 46.1 52 47C 50.2 47.2 48.6 47.6 46.9 47.9C 44.5 46.9 41.9 46.1 39 46C 34.9 45.8 31.5 47.9 28.3 49.7M 28.3 49.7C 27 49.6 25.8 48.7 24.5 49C 18.8 50.2 12.8 53.8 14 59.5C 14.2 60.4 14.1 61.3 14.3 62.1C 10.9 64.5 8.8 69.6 10 74C 11.5 79.5 13.6 83.8 16.6 88.1C 15.9 89 16.3 90.3 16 91.5C 14.4 97.1 20.8 100.8 26.5 102C 27.3 102.2 28.1 101.9 28.8 101.7C 30.6 104.9 35 106.2 39 106C 43.5 105.8 47.7 104.1 50.1 100.8C 51.9 101.8 53.8 103.6 56 103C 60.8 101.8 65.5 98.9 65 94C 64.9 93.1 64.8 92.3 64.7 91.5C 67.4 87.2 69.3 82.5 70 77C 70.5 72.7 68.7 68.7 66.7 65.2C 67.2 64.3 67.1 63.1 67 62C 65.9 53.8 60.2 45.8 52 47C 50.2 47.3 48.2 46.8 46.9 47.9C 44.6 46.5 41.8 45.7 39 46C 35 46.4 31.7 48.2 28.3 49.7"></path></g></g><g id="cp_3_g-3_v4urotde43yl-stroke" fill="none" stroke-linecap="round" stroke-linejoin="round" stroke-miterlimit="4" stroke="#f4f4f4" stroke-width="4" stroke-opacity="1"><g><path d="M 62 34C 62 38.418278 65.581722 42 70 42C 74.418278 42 78 38.418278 78 34C 78 29.581722 74.418278 26 70 26C 65.581722 26 62 29.581722 62 34M 62 34C 63 38.3 65.6 42.6 70 42C 74.4 41.4 77.7 38.4 78 34C 78.3 29.6 74.4 25.3 70 26C 65.6 26.7 61.6 29.6 62 34M 62 34C 63.4 38.2 65.7 42.9 70 42C 74.3 41.1 78.9 38.3 78 34C 77.1 29.7 74.4 25.9 70 26C 65.6 26.1 60.9 29.7 62 34"></path></g></g><g id="cp_3_g-3_v4urotde43yl-stroke" fill="none" stroke-linecap="round" stroke-linejoin="round" stroke-miterlimit="4" stroke="#f4f4f4" stroke-width="4" stroke-opacity="1"><g><path d="M 86 14C 86 11.7909 84.2091 10 82 10C 79.7909 10 78 11.7909 78 14C 78 16.2091 79.7909 18 82 18C 84.2091 18 86 16.2091 86 14ZM 86 14C 85.5 11.9 84.2 9.5 82 10C 79.8 10.5 78.2 11.8 78 14C 77.8 16.2 79.8 18.4 82 18C 84.2 17.6 86.4 16.2 86 14M 86 14C 85.3 11.9 84.2 9.6 82 10C 79.8 10.5 77.5 11.8 78 14C 78.5 16.2 79.8 18.1 82 18C 84.2 17.9 86.6 16.1 86 14"></path></g></g></g><g id="g-root-cp_2_g-2_qpnqnhde41l2-stroke" data-item-order="999697619" transform="translate(487, 93)"><g id="cp_2_g-2_qpnqnhde41l2-stroke" fill="none" stroke-linecap="round" stroke-linejoin="round" stroke-miterlimit="4" stroke="#f4f4f4" stroke-width="4" stroke-opacity="1"><g><path d="M 83 70C 87.9502 70 92.5185 68.4023 96.1944 65.7057C 97.7818 66.5326 99.5863 67 101.5 67C 107.8513 67 113 61.8513 113 55.5C 113 52.5141 111.8621 49.794 109.9962 47.7498C 112.4346 45.827 114 42.8463 114 39.5C 114 37.0802 113.1815 34.8516 111.8062 33.076C 111.9338 32.2366 112 31.3763 112 30.5C 112 21.3873 104.8366 14 96 14C 95.0095 14 94.04 14.0928 93.0993 14.2705C 90.0114 11.6132 85.9496 10 81.5 10C 76.9328 10 72.7743 11.6996 69.658 14.4832C 68.6613 14.1693 67.6004 14 66.5 14C 60.701 14 56 18.701 56 24.5C 56 27.0722 56.9249 29.4283 58.4602 31.2541C 56.9145 33.4174 56 36.0976 56 39C 56 41.3016 56.5751 43.4636 57.5841 45.3388C 55.3594 47.7456 54 50.9641 54 54.5C 54 61.9558 60.0442 68 67.5 68C 69.1219 68 70.677 67.714 72.1175 67.1897C 75.3267 68.9782 79.0413 70 83 70ZM 83 70C 87.9 69.9 93 68.9 96.2 65.7C 97.9 66.1 99.7 67.7 101.5 67C 107.4 64.7 113.4 61.8 113 55.5C 112.8 52.5 111.7 49.9 110 47.7C 112.5 46 112.9 42.7 114 39.5C 114.8 37.2 113.4 34.7 111.8 33.1C 112.1 32.3 112.2 31.4 112 30.5C 109.7 21.7 104.8 14.7 96 14C 95 13.9 94 13.9 93.1 14.3C 90.6 11.1 85.9 9.9 81.5 10C 76.9 10.1 72.8 11.7 69.7 14.5C 68.6 14.4 67.5 13.6 66.5 14C 61.1 16.2 57.5 18.9 56 24.5C 55.3 27 56.8 29.6 58.5 31.3C 57 33.5 55.7 36.1 56 39C 56.2 41.3 57.1 43.3 57.6 45.3C 55.2 47.6 54.4 51 54 54.5C 53.1 61.9 60.1 67.2 67.5 68C 69.1 68.2 70.6 67.5 72.1 67.2C 75.7 67.9 79.1 70.2 83 70M 83 70C 87.9 70.8 92.4 68.2 96.2 65.7C 97.9 66.2 99.6 67.4 101.5 67C 107.7 65.5 114.5 61.7 113 55.5C 112.3 52.6 112.2 49.4 110 47.7C 112.2 45.5 113.3 42.8 114 39.5C 114.5 37.1 113.7 34.3 111.8 33.1C 112.1 32.3 111.9 31.4 112 30.5C 112.5 25.9 109.5 22.2 107.1 18.6C 104.9 15.2 100.3 14.3 96 14C 95 13.9 94.1 14.2 93.1 14.3C 89.3 12.8 85.9 10.5 81.5 10C 77 9.5 73.2 12.3 69.7 14.5C 68.6 14.4 67.6 13.9 66.5 14C 60.7 14.5 55.8 18.7 56 24.5C 56.1 27.1 56.4 30.1 58.5 31.3C 57 33.5 55.8 36.1 56 39C 56.2 41.3 56.8 43.4 57.6 45.3C 54.7 46.8 53.5 51 54 54.5C 55.1 61.9 60.2 69.3 67.5 68C 69.1 67.7 70.9 68.1 72.1 67.2C 75.7 68.1 79.2 71.2 83 70"></path></g></g><g id="cp_2_g-2_qpnqnhde41l2-stroke" fill="none" stroke-linecap="round" stroke-linejoin="round" stroke-miterlimit="4" stroke="#f4f4f4" stroke-width="4" stroke-opacity="1"><g><path d="M 28 40C 28 44.418278 31.581722 48 36 48C 40.418278 48 44 44.418278 44 40C 44 35.581722 40.418278 32 36 32C 31.581722 32 28 35.581722 28 40M 28 40C 28.1 44.4 31.6 48.7 36 48C 40.4 47.3 45.6 44.1 44 40C 42.4 35.9 40.3 30.8 36 32C 31.8 33.2 27.6 35.6 28 40M 28 40C 27.3 44.4 31.6 47.8 36 48C 40.4 48.3 45 44.3 44 40C 43 35.7 40.3 31.2 36 32C 31.7 32.8 26.9 35.7 28 40"></path></g></g><g id="cp_2_g-2_qpnqnhde41l2-stroke" fill="none" stroke-linecap="round" stroke-linejoin="round" stroke-miterlimit="4" stroke="#f4f4f4" stroke-width="4" stroke-opacity="1"><g><path d="M 18 40C 18 37.7909 16.2091 36 14 36C 11.7909 36 10 37.7909 10 40C 10 42.2091 11.7909 44 14 44C 16.2091 44 18 42.2091 18 40ZM 18 40C 17.9 37.8 16.2 35.7 14 36C 11.8 36.3 9.2 37.9 10 40C 10.8 42.1 11.9 44.6 14 44C 16.1 43.4 18.4 42.2 18 40M 18 40C 18.4 37.8 16.2 36.1 14 36C 11.8 35.9 9.5 37.9 10 40C 10.5 42.2 11.8 44.4 14 44C 16.2 43.6 18.5 42.1 18 40"></path></g></g></g><g id="g-root-cp_1_g-1_qpnqnhde41l3-stroke" data-item-order="999697623" transform="translate(255, 93)"><g id="cp_1_g-1_qpnqnhde41l3-stroke" fill="none" stroke-linecap="round" stroke-linejoin="round" stroke-miterlimit="4" stroke="#f4f4f4" stroke-width="4" stroke-opacity="1"><g><path d="M 20.598 19.0005C 20.5653 19.0002 20.5327 19 20.5 19C 14.701 19 10 23.701 10 29.5C 10 32.5738 11.3208 35.3392 13.4259 37.2594C 13.1475 38.4594 13 39.7119 13 41C 13 41.7449 13.0493 42.4779 13.1448 43.1957C 11.7875 45.3013 11 47.8087 11 50.5C 11 57.9558 17.0442 64 24.5 64C 24.8465 64 25.19 63.9869 25.5299 63.9613C 29.172 67.6819 34.3084 70 40 70C 45.6415 70 50.7374 67.7226 54.3734 64.0594C 55.6214 64.6621 57.0212 65 58.5 65C 63.7467 65 68 60.7467 68 55.5C 68 52.6285 66.726 50.0545 64.7124 48.3125C 67.9476 45.4694 70 41.2324 70 36.5C 70 32.4248 68.4781 28.717 65.9895 25.9503C 65.9965 25.801 66 25.6509 66 25.5C 66 20.2533 61.7467 16 56.5 16C 55.9205 16 55.3531 16.0519 54.8022 16.1513C 50.6815 12.3382 45.1199 10 39 10C 31.475 10 24.7941 13.5352 20.598 19.0005ZM 20.6 19C 14.8 17.9 8.8 23.8 10 29.5C 10.6 32.5 11.3 35.4 13.4 37.3C 13 38.4 13.1 39.7 13 41C 12.9 41.7 12.8 42.5 13.1 43.2C 11.9 45.4 11.8 47.9 11 50.5C 8.9 57.6 17 64 24.5 64C 24.8 64 25.2 63.9 25.5 64C 29.5 67.4 34.3 70.5 40 70C 45.6 69.5 50 66.8 54.4 64.1C 55.7 64.5 57 65 58.5 65C 63.7 65 67.9 60.8 68 55.5C 68 52.6 66.6 50.2 64.7 48.3C 68.4 46.1 68.7 41.1 70 36.5C 71.1 32.6 67.4 29.4 66 26C 66 25.8 65.9 25.6 66 25.5C 68.1 20.7 61.8 16 56.5 16C 55.9 16 55.4 16.1 54.8 16.2C 51.4 11.7 45 11 39 10C 31.6 8.7 24.8 13.5 20.6 19M 20.6 19C 14.8 18 11 23.8 10 29.5C 9.5 32.5 11.4 35.2 13.4 37.3C 13 38.4 12.7 39.8 13 41C 13.2 41.7 13.2 42.5 13.1 43.2C 11.2 44.8 11.5 47.9 11 50.5C 9.5 57.8 17.1 64.9 24.5 64C 24.8 64 25.2 63.9 25.5 64C 29.1 67.8 34.3 70.1 40 70C 45.6 69.9 50.7 67.7 54.4 64.1C 55.5 64.9 57 65.1 58.5 65C 63.7 64.5 68.8 60.7 68 55.5C 67.5 52.7 66.5 50.3 64.7 48.3C 67.7 45.2 68.3 40.9 70 36.5C 71.5 32.7 69.2 27.9 66 26C 66 25.8 66 25.6 66 25.5C 67 20.4 61.7 16.5 56.5 16C 55.9 15.9 55.4 16.2 54.8 16.2C 50 13.3 44.9 11.5 39 10C 31.7 8.1 23.8 12.9 20.6 19"></path></g></g><g id="cp_1_g-1_qpnqnhde41l3-stroke" fill="none" stroke-linecap="round" stroke-linejoin="round" stroke-miterlimit="4" stroke="#f4f4f4" stroke-width="4" stroke-opacity="1"><g><path d="M 80 40C 80 44.418278 83.581722 48 88 48C 92.418278 48 96 44.418278 96 40C 96 35.581722 92.418278 32 88 32C 83.581722 32 80 35.581722 80 40M 80 40C 79.1 44.3 83.7 48.9 88 48C 92.3 47.1 96 44.4 96 40C 96 35.6 92.4 32.4 88 32C 83.6 31.6 80.2 35.6 80 40M 80 40C 79.3 44.4 83.7 47.2 88 48C 92.3 48.8 95.8 44.4 96 40C 96.3 35.6 92.3 30.8 88 32C 83.7 33.2 80.4 35.6 80 40"></path></g></g><g id="cp_1_g-1_qpnqnhde41l3-stroke" fill="none" stroke-linecap="round" stroke-linejoin="round" stroke-miterlimit="4" stroke="#f4f4f4" stroke-width="4" stroke-opacity="1"><g><path d="M 114 40C 114 37.7909 112.2091 36 110 36C 107.7909 36 106 37.7909 106 40C 106 42.2091 107.7909 44 110 44C 112.2091 44 114 42.2091 114 40ZM 114 40C 114.4 37.8 112.2 35.6 110 36C 107.8 36.4 106 37.8 106 40C 106 42.2 107.8 43.8 110 44C 112.2 44.2 113.8 42.2 114 40M 114 40C 114.4 37.8 112.2 36.4 110 36C 107.8 35.6 106.1 37.8 106 40C 105.9 42.2 107.9 44.6 110 44C 112.1 43.4 113.6 42.2 114 40"></path></g></g></g><g id="g-root-tx_howtores_de78a5de4360-stroke" data-item-order="1000000000" transform="translate(219, 3)"></g><g id="g-root-ic_face_3d6zxde41l5-stroke" data-item-order="1000000000" transform="translate(387, 87)"><g id="ic_face_3d6zxde41l5-stroke" fill="none" stroke-linecap="round" stroke-linejoin="round" stroke-miterlimit="4" stroke="#f4f4f4" stroke-width="2" stroke-opacity="1"><g><path d="M 46.599998 39.681999C 43.599998 36.681999 37.599998 35.181999 34.599998 38.181999M 16.9 45.681999C 16.6 44.482002 16.6 43.281998 16.6 41.781998C 16.6 25.581999 29.799999 12.382 46 12.382C 62.199997 12.382 75.399994 25.581999 75.399994 41.781998C 75.399994 52.582001 69.699997 61.882004 61 66.981995M 40.449997 77.800003C 46.449997 75.399994 45.324997 70.111 44.125 65.311005L 53.677002 61.612C 55.891281 60.755096 57.049278 58.316589 56.314003 56.059002L 56.313999 56.058998C 55.93375 54.891376 55.08989 53.931606 53.980541 53.405022C 52.871193 52.878433 51.594067 52.831413 50.449001 53.275002L 32.875 60.084999C 31.375 60.685001 29.575001 59.485001 29.575001 57.985001L 29.458 55.144001C 29.410076 53.986492 28.88414 52.900726 28.005583 52.145561C 27.127028 51.390404 25.974579 51.03352 24.823002 51.160004L 24.823 51.16C 22.704519 51.393932 21.100885 53.183647 21.1 55.315002L 21.1 67.584999C 21.1 75.385002 28.299999 81.084999 35.800003 79.284996C 35.800003 79.284996 38.949997 78.399994 40.449997 77.800003ZM 31.825001 27.681999C 31.20368 27.681999 30.700001 27.178322 30.700001 26.556999C 30.700001 25.93568 31.20368 25.431999 31.825001 25.431999M 31.825001 27.681999C 32.44632 27.681999 32.950001 27.178322 32.950001 26.556999C 32.950001 25.93568 32.44632 25.431999 31.825001 25.431999M 47.800003 27.681999C 47.17868 27.681999 46.675003 27.178322 46.675003 26.556999C 46.675003 25.93568 47.17868 25.431999 47.800003 25.431999M 47.800003 27.681999C 48.421322 27.681999 48.925003 27.178322 48.925003 26.556999C 48.925003 25.93568 48.421322 25.431999 47.800003 25.431999M 46.599998 39.699997C 43 37.300003 36.699997 34.599998 34.599998 38.199997M 16.9 45.699997C 16.9 44.5 16.6 43.300003 16.6 41.800003C 16.9 25.599998 30.099998 14.5 46 12.4C 62.199997 10.3 76.600006 25.599998 75.399994 41.800003C 74.5 52.599998 70.300003 63.100002 61 67M 40.599998 77.800003C 46.300003 75.100006 45.400002 70 44.199997 65.199997C 47.5 64.899994 51.099998 63.699997 53.800003 61.600002C 55.599998 60.100002 56.800003 58.300003 56.199997 56.199997C 56.199997 54.699997 54.699997 54.400002 54.099998 53.5C 53.199997 52.599998 51.400002 52.599998 50.5 53.199997C 45.400002 57.099998 38.199997 56.800003 32.799999 60.100002C 31.599998 61 29.799999 59.5 29.5 58C 29.5 57.099998 29.799999 56.199997 29.5 55C 29.200001 54.099998 28.900002 52.900002 28 52C 27.099998 51.400002 25.900002 50.800003 24.700001 51.099998C 22.900002 51.699997 20.799999 53.199997 21.1 55.300003C 21.700001 59.199997 20.5 63.699997 21.1 67.600006C 22.599998 75.399994 29.200001 83.199997 35.800003 79.300003C 35.800003 79.300003 38.800003 78.399994 40.599998 77.800003M 31.900002 27.700001C 31.299999 27.400002 30.400002 27.099998 30.700001 26.5C 30.700001 25.900002 31.299999 25.599998 31.900002 25.299999M 31.900002 27.700001C 32.5 27.700001 32.799999 27.099998 33.099998 26.5C 33.099998 25.900002 32.5 25.299999 31.900002 25.299999M 47.800003 27.700001C 47.199997 27.700001 46.900002 27.099998 46.599998 26.5C 46.599998 25.900002 47.199997 25.599998 47.800003 25.299999M 47.800003 27.700001C 48.400002 28 48.699997 27.099998 49 26.5C 49 25.900002 48.400002 25.299999 47.800003 25.299999"></path></g></g></g><g id="g-root-ic_robo_zqx3u5de42ry-stroke" data-item-order="1000000000" transform="translate(267, 105)"><g id="ic_robo_zqx3u5de42ry-stroke" fill="none" stroke-linecap="round" stroke-linejoin="round" stroke-miterlimit="4" stroke="#f4f4f4" stroke-width="2" stroke-opacity="1"><g><path d="M 29.3587 28.6378C 27.722351 30.274151 26.8132 32.637848 26.8132 35.001549L 26.8132 38.092449C 26.8132 40.0924 25.176849 41.728897 23.176794 41.728897L 21.358585 41.728897C 19.358561 41.728897 17.722179 40.0924 17.722179 38.092449L 17.722179 35.001549C 17.722179 32.637848 16.813074 30.274151 15.176695 28.6378C 13.3585 27.00145 12.26758 24.455921 12.26758 21.728621C 12.26758 16.274021 16.813074 11.72851 22.267691 11.72851C 24.252806 11.72851 26.1175 12.33055 27.686501 13.359355M 22.269535 41.728451L 22.269535 44.273949M 17.72266 34.45705L 26.81365 34.45705M 34.153 15.5905L 40.732002 15.5905C 40.732002 15.5905 43.732002 15.5905 43.732002 18.5905L 43.732002 22.376501C 43.732002 22.376501 43.732002 25.376501 40.732002 25.376501L 34.153 25.376501C 34.153 25.376501 31.153 25.376501 31.153 22.376501L 31.153 18.5905C 31.153 18.5905 31.153 15.5905 34.153 15.5905M 10 10M 37.443851 11.730085L 37.443851 15.58984M 10 10M 35.381351 19.612766L 35.381351 21.355465M 10 10M 39.506351 19.612766L 39.506351 21.355465M 29.349998 28.599998C 27.25 29.650002 26.650002 32.650002 26.799999 35.050003C 26.950001 36.099998 26.950001 37 26.799999 38.050003C 26.650002 40.150002 25.150002 41.800003 23.200001 41.800003C 22.599998 41.650002 22 41.800003 21.4 41.800003C 19.299999 41.5 17.049999 40 17.65 38.050003C 18.1 37.150002 17.5 35.949997 17.65 35.050003C 18.1 32.650002 16.75 30.400002 15.25 28.599998C 13.3 27.099998 13 24.400002 12.25 21.700001C 10.75 16.450001 16.9 11.2 22.299999 11.8C 24.25 11.95 26.200001 12.25 27.700001 13.3M 22.299999 41.800003C 22.150002 42.550003 22.299999 43.449997 22.299999 44.199997M 17.65 34.449997C 20.799999 34.150002 23.950001 35.199997 26.799999 34.449997M 34.150002 15.55C 36.25 15.25 38.650002 14.95 40.75 15.55C 40.75 15.55 42.849998 15.7 43.75 18.549999C 44.050003 19.75 43.599998 21.1 43.75 22.450001C 43.75 22.450001 43.75 25.75 40.75 25.450001C 38.5 25 36.400002 25.450001 34.150002 25.450001C 34.150002 25.450001 31.299999 25.450001 31.150002 22.450001C 31.150002 21.1 31.450001 19.75 31.150002 18.549999C 31.150002 18.549999 31.150002 16 34.150002 15.55M 10 10M 37.449997 11.8C 37.599998 13 37.150002 14.35 37.449997 15.55M 10 10M 35.349998 19.6C 35.199997 20.200001 35.650002 20.799999 35.349998 21.4M 10 10M 39.550003 19.6C 39.550003 20.200001 39.699997 20.799999 39.550003 21.4"></path></g></g></g><g id="g-root-ic_2_1lxe27hde89ou-stroke" data-item-order="1000000000" transform="translate(543, 105)"><g id="ic_2_1lxe27hde89ou-stroke" fill="none" stroke-linecap="round" stroke-linejoin="round" stroke-miterlimit="4" stroke="#f4f4f4" stroke-width="2" stroke-opacity="1"><g><path d="M 25.75 25.75L 12.25 25.75C 11.421573 25.75 10.75 25.078428 10.75 24.25L 10.75 12.25C 10.75 11.421573 11.421573 10.75 12.25 10.75L 36.25 10.75C 37.078426 10.75 37.75 11.421573 37.75 12.25L 37.75 19.75M 10.756 16L 16.006001 10.75M 37.756001 16L 32.506001 10.75M 10.756 20.5L 16.006001 25.75M 27.25 15.25L 22.518999 15.25C 21.883516 15.25574 21.351019 15.732245 21.275 16.363194C 21.198982 16.994141 21.603065 17.583487 22.219 17.74L 26.305 18.76C 26.920935 18.916513 27.325016 19.505859 27.248999 20.136806C 27.172981 20.767754 26.640484 21.244259 26.005001 21.25L 21.25 21.25M 24.256001 15.25L 24.256001 13.75M 24.256001 22.75L 24.256001 21.25M 31.756001 33.25L 33.256001 33.25M 36.256001 33.25L 37.756001 33.25M 40.756001 33.25L 42.256001 33.25M 31.756001 36.25L 33.256001 36.25M 36.256001 36.25L 37.756001 36.25M 40.756001 36.25L 42.256001 36.25M 31.756001 39.25L 33.256001 39.25M 36.256001 39.25L 37.756001 39.25M 40.756001 39.25L 42.256001 39.25M 31.756001 42.25L 33.256001 42.25M 36.256001 42.25L 37.756001 42.25M 40.756001 42.25L 42.256001 42.25M 31.756001 22.75L 42.256001 22.75C 42.256001 22.75 45.256001 22.75 45.256001 25.75L 45.256001 42.25C 45.256001 42.25 45.256001 45.25 42.256001 45.25L 31.756001 45.25C 31.756001 45.25 28.756001 45.25 28.756001 42.25L 28.756001 25.75C 28.756001 25.75 28.756001 22.75 31.756001 22.75M 28.756001 30.25L 45.256001 30.25M 12.256 28.75L 25.756001 28.75M 13.756 31.75L 25.756001 31.75M 25.75 25.75C 21.25 25.299999 16.75 25.150002 12.25 25.75C 11.5 25.900002 10.75 25.150002 10.75 24.25C 10.75 20.200001 9.55 16 10.75 12.25C 11.05 11.5 11.5 10.9 12.25 10.75C 20.049999 9.25 28.299999 11.05 36.25 10.75C 37.150002 10.75 37.599998 11.35 37.75 12.25C 38.050003 14.65 37.900002 17.200001 37.75 19.75M 10.75 16C 13 14.95 14.2 12.4 16 10.75M 37.75 16C 36.25 14.05 34.300003 12.4 32.5 10.75M 10.75 20.5C 12.25 22.450001 13.75 24.700001 16 25.75M 27.25 15.25C 25.599998 15.1 24.099998 14.95 22.450001 15.25C 21.85 15.4 21.4 15.7 21.25 16.299999C 21.25 17.049999 21.549999 17.799999 22.150002 17.799999C 23.650002 17.65 25 18.25 26.349998 18.700001C 26.950001 19 27.400002 19.450001 27.25 20.200001C 27.099998 20.799999 26.650002 21.1 26.049999 21.25C 24.400002 21.549999 22.900002 21.4 21.25 21.25M 24.25 15.25C 24.400002 14.8 24.25 14.2 24.25 13.75M 24.25 22.75C 24.099998 22.299999 24.099998 21.700001 24.25 21.25M 31.75 33.25C 32.200001 33.400002 32.799999 33.400002 33.25 33.25M 36.25 33.25C 36.699997 33.25 37.300003 33.25 37.75 33.25M 40.75 33.25C 41.199997 33.099998 41.800003 33.25 42.25 33.25M 31.75 36.25C 32.200001 36.099998 32.799999 36.400002 33.25 36.25M 36.25 36.25C 36.699997 36.400002 37.300003 36.25 37.75 36.25M 40.75 36.25C 41.199997 36.25 41.800003 36.400002 42.25 36.25M 31.75 39.25C 32.200001 39.400002 32.799999 39.25 33.25 39.25M 36.25 39.25C 36.699997 39.099998 37.300003 39.25 37.75 39.25M 40.75 39.25C 41.199997 39.400002 41.800003 39.400002 42.25 39.25M 31.75 42.25C 32.200001 42.25 32.799999 42.25 33.25 42.25M 36.25 42.25C 36.699997 42.400002 37.300003 42.400002 37.75 42.25M 40.75 42.25C 41.199997 42.25 41.800003 42.400002 42.25 42.25M 31.75 22.75C 35.050003 23.799999 38.800003 23.650002 42.25 22.75C 42.25 22.75 44.650002 22.75 45.25 25.75C 46.300003 31.150002 44.349998 36.849998 45.25 42.25C 45.25 42.25 45.25 44.800003 42.25 45.25C 38.800003 45.849998 35.199997 44.800003 31.75 45.25C 31.75 45.25 28.599998 45.25 28.75 42.25C 29.200001 36.699997 27.549999 31.150002 28.75 25.75C 28.75 25.75 28.75 22.75 31.75 22.75M 28.75 30.25C 34.150002 29.200001 39.699997 30.25 45.25 30.25M 12.25 28.75C 16.6 29.650002 21.25 29.200001 25.75 28.75M 13.75 31.75C 17.799999 31.599998 21.85 31 25.75 31.75"></path></g></g></g><g id="g-root-tx_answerfr_9098ktdecgzs-stroke" data-item-order="1000000000" transform="translate(99, 111)"></g><g id="g-root-tx_usecalcu_1cz98rxdechl0-stroke" data-item-order="1000000000" transform="translate(603, 111)"></g><g id="g-root-tx_performc_1cz98rxdechl1-stroke" data-item-order="1000000000" transform="translate(603, 147)"></g><g id="g-root-tx_usetrain_4kfqgddechs1-stroke" data-item-order="1000000000" transform="translate(39, 171)"></g><g id="g-root-ic_moni_18lxju5dejito-stroke" data-item-order="1000000000" transform="translate(327, 237)"><g id="ic_moni_18lxju5dejito-stroke" fill="none" stroke-linecap="round" stroke-linejoin="round" stroke-miterlimit="4" stroke="#f4f4f4" stroke-width="2" stroke-opacity="1"><g><path d="M 28.0075 38.349998C 28.138311 40.815174 28.932814 43.199196 30.306999 45.25L 21.1075 45.25C 22.481688 43.199196 23.27619 40.815174 23.407001 38.350002M 17.657499 45.25L 33.757 45.25M 40.656998 31.450001L 40.656998 36.042999C 40.658993 36.654167 40.417606 37.240982 39.986149 37.673843C 39.554695 38.106705 38.968666 38.350006 38.357502 38.349998L 13.057 38.349998C 11.787364 38.349174 10.758327 37.320133 10.7575 36.050499L 10.7575 17.65C 10.7575 16.38002 11.787022 15.3505 13.057 15.3505L 20.747499 15.3505M 26.842001 10.75L 43.709499 10.75C 43.709499 10.75 45.2425 10.75 45.2425 12.283L 45.2425 26.083C 45.2425 26.083 45.2425 27.616001 43.709499 27.616001L 26.842001 27.616001C 26.842001 27.616001 25.309 27.616001 25.309 26.083L 25.309 12.283C 25.309 12.283 25.309 10.75 26.842001 10.75M 25.309 14.9635L 45.2425 14.9635M 25.309 23.2675L 45.2425 23.2675M 25.309 19.315001L 45.2425 19.315001M 35.275002 14.965L 35.275002 27.6175M 40.074997 14.965L 40.074997 27.6175M 28 38.349998C 28.299999 40.75 28.299999 43.75 30.25 45.25C 27.25 45.099998 24.099998 44.650002 21.1 45.25C 21.85 42.849998 23.5 40.75 23.349998 38.349998M 17.65 45.25C 23.049999 45.849998 28.599998 43.900002 33.700001 45.25M 40.599998 31.450001C 40.75 32.950001 40.599998 34.449997 40.599998 36.099998C 40.599998 36.699997 40.449997 37.300003 40 37.599998C 39.550003 38.050003 38.949997 38.199997 38.349998 38.349998C 30.25 40.75 21.4 37.449997 13 38.349998C 11.8 38.5 10.3 37.300003 10.75 36.099998C 13 30.400002 10.15 23.799999 10.75 17.65C 10.9 16.450001 11.8 15.4 13 15.4C 15.55 15.4 18.25 14.65 20.799999 15.4M 26.799999 10.75C 32.5 10.15 38.349998 8.95 43.75 10.75C 43.75 10.75 44.800003 10.75 45.25 12.25C 46.449997 16.75 46.599998 21.700001 45.25 26.049999C 45.25 26.049999 45.25 27.549999 43.75 27.549999C 38.050003 27.849998 32.349998 26.650002 26.799999 27.549999C 26.799999 27.549999 25.299999 27.549999 25.299999 26.049999C 25.450001 21.549999 25.450001 16.9 25.299999 12.25C 25.299999 12.25 25.299999 11.05 26.799999 10.75M 25.299999 14.95C 31.900002 15.25 38.650002 15.25 45.25 14.95M 25.299999 23.200001C 31.900002 23.950001 38.650002 22.900002 45.25 23.200001M 25.299999 19.299999C 31.599998 21.4 38.650002 19.6 45.25 19.299999M 35.349998 14.95C 35.050003 19.15 35.800003 23.349998 35.349998 27.549999M 40.150002 14.95C 39.099998 19 38.650002 23.650002 40.150002 27.549999"></path></g></g></g><g id="g-root-ic_orde_4gosrxdegqo1-stroke" data-item-order="1000000000" transform="translate(483, 237)"><g id="ic_orde_4gosrxdegqo1-stroke" fill="none" stroke-linecap="round" stroke-linejoin="round" stroke-miterlimit="4" stroke="#f4f4f4" stroke-width="2" stroke-opacity="1"><g><path d="M 18.005501 27.689501L 18.005501 31.814501M 18.005501 36.314499L 18.005501 37.439499C 18.005501 38.68214 19.012859 39.689503 20.255501 39.689503L 21.380501 39.689499M 25.880501 39.689499L 30.005501 39.689499M 36.065498 26.764L 42.815498 26.764C 42.815498 26.764 45.065498 26.764 45.065498 29.014L 45.065498 42.514C 45.065498 42.514 45.065498 44.764 42.815498 44.764L 36.065498 44.764C 36.065498 44.764 33.815498 44.764 33.815498 42.514L 33.815498 29.014C 33.815498 29.014 33.815498 26.764 36.065498 26.764M 33.959499 40.5625L 45.065502 40.5625M 11.788 20.7355L 12.76 22.634501C 13.209319 23.513338 14.112962 24.06653 15.1 24.067001L 26.374001 24.067001C 27.362118 24.067657 28.267189 23.514299 28.717001 22.634501L 29.689001 20.7355M 10.9345 20.7355L 30.5455 20.7355M 13.066 20.7355C 13.066132 16.49736 16.50186 13.061737 20.74 13.061737C 24.978142 13.061737 28.41387 16.49736 28.414 20.7355M 20.74 13.0615L 20.74 11.236M 17.950001 27.700001C 18.25 29.049999 17.799999 30.400002 17.950001 31.75M 17.950001 36.25C 17.950001 36.699997 17.950001 37 17.950001 37.449997C 18.25 38.650002 19.15 39.25 20.200001 39.699997C 20.65 39.849998 20.950001 39.550003 21.4 39.699997M 25.900002 39.699997C 27.25 39.849998 28.75 40.150002 29.950001 39.699997M 36.099998 26.799999C 38.199997 26.200001 40.599998 26.650002 42.849998 26.799999C 42.849998 26.799999 45.25 26.799999 45.099998 29.049999C 44.650002 33.549999 45.400002 38.050003 45.099998 42.550003C 45.099998 42.550003 44.949997 44.050003 42.849998 44.800003C 40.75 45.400002 38.199997 44.050003 36.099998 44.800003C 36.099998 44.800003 34.300003 44.650002 33.849998 42.550003C 32.799999 38.199997 33.549999 33.549999 33.849998 29.049999C 33.849998 29.049999 33.849998 27.099998 36.099998 26.799999M 34 40.599998C 37.599998 40.599998 41.349998 40.449997 45.099998 40.599998M 11.8 20.799999C 12.1 21.4 12.7 22 12.7 22.599998C 13 23.650002 14.2 23.799999 15.1 24.099998C 18.700001 25 22.599998 23.650002 26.349998 24.099998C 27.400002 24.25 28.450001 23.650002 28.75 22.599998C 28.900002 22 29.349998 21.25 29.650002 20.799999M 10.9 20.799999C 17.35 21.85 24.099998 21.1 30.549999 20.799999M 13 20.799999C 13.15 16.450001 16.6 14.2 20.799999 13C 24.849998 11.8 29.5 16.6 28.450001 20.799999M 20.799999 13C 20.65 12.4 20.950001 11.8 20.799999 11.2"></path></g></g></g><g id="g-root-tx_usedatab_1qa3a25decj5u-stroke" data-item-order="1000000000" transform="translate(99, 243)"></g><g id="g-root-tx_useexter_143m8j1decidq-stroke" data-item-order="1000000000" transform="translate(543, 243)"></g><g id="g-root-tx_accessan_1qa3a25decj5v-stroke" data-item-order="1000000000" transform="translate(87, 279)"></g><g id="g-root-tx_connectt_znsqeldecj5z-stroke" data-item-order="1000000000" transform="translate(543, 303)"></g></g></g></svg>