<?xml version="1.0" encoding="utf-8" standalone="yes"?>
<!DOCTYPE svg PUBLIC "-//W3C//DTD SVG 1.1//EN" "http://www.w3.org/Graphics/SVG/1.1/DTD/svg11.dtd">
<svg style="fill:none;stroke:none;fill-rule:evenodd;clip-rule:evenodd;stroke-linecap:round;stroke-linejoin:round;stroke-miterlimit:1.5;" version="1.1" xmlns="http://www.w3.org/2000/svg" xmlns:xlink="http://www.w3.org/1999/xlink" width="808" height="602" viewBox="0 0 808 602"><style class="text-font-style fontImports" data-font-family="Shantell Sans">@import url(https://fonts.googleapis.com/css2?family=Shantell+Sans:wght@300..800&amp;amp;display=block);</style><g id="items" style="isolation: isolate"><g id="blend" style="mix-blend-mode: normal"><g id="g-root-cp_0_g-0_13zw6byf21mv4-fill" data-item-order="999550731" transform="translate(4, 220.51318359375)"></g><g id="g-root-cp_1_g-1_v49632f21nnt-fill" data-item-order="999550735" transform="translate(28.000030517578125, 209)"></g><g id="g-root-cp_2_g-2_qp251qf21laa-fill" data-item-order="999550743" transform="translate(183.5350341796875, 209)"></g><g id="g-root-cp_3_g-3_qp251qf21lab-fill" data-item-order="999550751" transform="translate(339.5040283203125, 209)"></g><g id="g-root-cp_4_g-4_htf4suf21m30-fill" data-item-order="999550759" transform="translate(495.5160217285156, 209)"></g><g id="g-root-cp_1_g-1_1_htf4suf21m31-fill" data-item-order="999550781" transform="translate(136.00003051757812, 77)"></g><g id="g-root-cp_3_g-3_1_ddlmoef21mva-fill" data-item-order="999550791" transform="translate(448.0000305175781, 53)"></g><g id="g-root-cp_2_g-2_1_ddlmoef21mvb-fill" data-item-order="999550801" transform="translate(268.0000305175781, 389)"></g><g id="g-root-cp_4_g-4_1_ddlmoef21mvc-fill" data-item-order="999550811" transform="translate(580, 389)"></g><g id="g-root-tx_training_8xs4jyf21nnl-fill" data-item-order="1000000000" transform="translate(232.00003051757812, 3)"><g id="tx_training_8xs4jyf21nnl-fill-merged" stroke="none" fill="#f4f4f4" fill-opacity="1"><g><text style="font: 25px &quot;Shantell Sans&quot;, cursive; white-space: pre;" transform="translate(172, 28)" font-size="25px" font-family="'Shantell Sans', cursive"><tspan x="-154.04" y="16.5" dominant-baseline="ideographic">Training a New Employee</tspan></text></g></g></g><g id="g-root-tx_checklis_18fprm6f2a2h4-fill" data-item-order="1000000000" transform="translate(460.0000305175781, 63)"><g id="tx_checklis_18fprm6f2a2h4-fill-merged" stroke="none" fill="#f4f4f4" fill-opacity="1"><g><text style="font: bold 20px &quot;Shantell Sans&quot;, cursive; white-space: pre;" transform="translate(10, 34)" font-weight="bold" font-size="20px" font-family="'Shantell Sans', cursive"><tspan x="2" y="1.5" dominant-baseline="ideographic">Checklists for </tspan><tspan x="2" y="25.5" dominant-baseline="ideographic">Tasks</tspan></text></g></g></g><g id="g-root-tx_newemplo_dccrnyf2a13a-fill" data-item-order="1000000000" transform="translate(148.00003051757812, 87)"><g id="tx_newemplo_dccrnyf2a13a-fill-merged" stroke="none" fill="#f4f4f4" fill-opacity="1"><g><text style="font: bold 20px &quot;Shantell Sans&quot;, cursive; white-space: pre;" transform="translate(10, 34)" font-weight="bold" font-size="20px" font-family="'Shantell Sans', cursive"><tspan x="2" y="1.5" dominant-baseline="ideographic">New Employee </tspan><tspan x="2" y="25.5" dominant-baseline="ideographic">Joins Team</tspan></text></g></g></g><g id="g-root-tx_anewteam_1lr69zif2a0w7-fill" data-item-order="1000000000" transform="translate(148.00003051757812, 147)"><g id="tx_anewteam_1lr69zif2a0w7-fill-merged" stroke="none" fill="#f4f4f4" fill-opacity="1"><g><text style="font: 15px &quot;Shantell Sans&quot;, cursive; white-space: pre;" transform="translate(10, 28)" font-size="15px" font-family="'Shantell Sans', cursive"><tspan x="2" y="1" dominant-baseline="ideographic">A new team member </tspan><tspan x="2" y="19" dominant-baseline="ideographic">starts their journey.</tspan></text></g></g></g><g id="g-root-tx_theemplo_v4vqbyf2a0w9-fill" data-item-order="1000000000" transform="translate(460.0000305175781, 123)"><g id="tx_theemplo_v4vqbyf2a0w9-fill-merged" stroke="none" fill="#f4f4f4" fill-opacity="1"><g><text style="font: 15px &quot;Shantell Sans&quot;, cursive; white-space: pre;" transform="translate(10, 40)" font-size="15px" font-family="'Shantell Sans', cursive"><tspan x="2" y="-8" dominant-baseline="ideographic">The employee gets </tspan><tspan x="2" y="10" dominant-baseline="ideographic">checklists to manage </tspan><tspan x="2" y="28" dominant-baseline="ideographic">common tasks.</tspan></text></g></g></g><g id="g-root-ic_rota_1hclmvif21ngi-fill" data-item-order="1000000000" transform="translate(88.00003051757812, 268)"></g><g id="g-root-ic_pers_4il3imf2a22q-fill" data-item-order="1000000000" transform="translate(243.75003051757812, 268)"></g><g id="g-root-ic_1_1hd874ef1w0sk-fill" data-item-order="1000000000" transform="translate(400.0000305175781, 268)"></g><g id="g-root-ic_docs_1usfk0ef22zuu-fill" data-item-order="1000000000" transform="translate(556, 268)"></g><g id="g-root-tx_onboardi_qp287if2a1oi-fill" data-item-order="1000000000" transform="translate(88.00003051757812, 435)"><g id="tx_onboardi_qp287if2a1oi-fill-merged" stroke="none" fill="#f4f4f4" fill-opacity="1"><g><text style="font: bold 20px &quot;Shantell Sans&quot;, cursive; white-space: pre;" transform="translate(178, 34)" font-weight="bold" font-size="20px" font-family="'Shantell Sans', cursive"><tspan x="-125.13" y="1.5" dominant-baseline="ideographic">Onboarding </tspan><tspan x="-161.84" y="25.5" dominant-baseline="ideographic">Guide Provided</tspan></text></g></g></g><g id="g-root-tx_referenc_4il6oef2a0wc-fill" data-item-order="1000000000" transform="translate(448.0000305175781, 435)"><g id="tx_referenc_4il6oef2a0wc-fill-merged" stroke="none" fill="#f4f4f4" fill-opacity="1"><g><text style="font: bold 20px &quot;Shantell Sans&quot;, cursive; white-space: pre;" transform="translate(130, 46)" font-weight="bold" font-size="20px" font-family="'Shantell Sans', cursive"><tspan x="-104.88" y="-10.5" dominant-baseline="ideographic">Reference </tspan><tspan x="-115.52" y="13.5" dominant-baseline="ideographic">Documents </tspan><tspan x="-100.05" y="37.5" dominant-baseline="ideographic">Available</tspan></text></g></g></g><g id="g-root-tx_theemplo_htf7ymf2a2h7-fill" data-item-order="1000000000" transform="translate(64.00003051757812, 495)"><g id="tx_theemplo_htf7ymf2a2h7-fill-merged" stroke="none" fill="#f4f4f4" fill-opacity="1"><g><text style="font: 15px &quot;Shantell Sans&quot;, cursive; white-space: pre;" transform="translate(202, 40)" font-size="15px" font-family="'Shantell Sans', cursive"><tspan x="-179.13" y="-8" dominant-baseline="ideographic">The employee receives a </tspan><tspan x="-179.16" y="10" dominant-baseline="ideographic">guide to understand the </tspan><tspan x="-80.05" y="28" dominant-baseline="ideographic">workplace.</tspan></text></g></g></g><g id="g-root-tx_theemplo_2rojyf2a1ol-fill" data-item-order="1000000000" transform="translate(376.0000305175781, 519)"><g id="tx_theemplo_2rojyf2a1ol-fill-merged" stroke="none" fill="#f4f4f4" fill-opacity="1"><g><text style="font: 15px &quot;Shantell Sans&quot;, cursive; white-space: pre;" transform="translate(202, 40)" font-size="15px" font-family="'Shantell Sans', cursive"><tspan x="-184.5" y="-8" dominant-baseline="ideographic">The employee has access </tspan><tspan x="-126.57" y="10" dominant-baseline="ideographic">to documents for </tspan><tspan x="-169.31" y="28" dominant-baseline="ideographic">additional information.</tspan></text></g></g></g><g id="g-root-cp_0_g-0_13zw6byf21mv4-stroke" data-item-order="999550731" transform="translate(4, 220.51318359375)"><g id="cp_0_g-0_13zw6byf21mv4-stroke" fill="none" stroke-linecap="round" stroke-linejoin="round" stroke-miterlimit="4" stroke="#f4f4f4" stroke-width="4" stroke-opacity="1"><g><path d="M 652.000031 130.5L 705.468431 130.5L 705.468431 154.5L 777.474931 82.5026L 705.468431 10L 705.468431 34.5L 665.066731 34.5L 652.000031 130.5ZM 545.113531 34.5L 509.103331 34.5L 496.036631 130.5L 532.046931 130.5L 545.113531 34.5ZM 389.103331 34.5L 353.133731 34.5L 340.067031 130.5L 376.036631 130.5L 389.103331 34.5ZM 233.133731 34.5L 197.598331 34.5L 184.531631 130.5L 220.067031 130.5L 233.133731 34.5ZM 77.598331 34.5L 10.000031 34.5L 10.000031 130.5L 64.531631 130.5L 77.598331 34.5ZM 652.000031 130.5C 669.800031 130.6 687.700031 130.3 705.500031 130.5C 706.400031 138.4 706.600031 146.6 705.500031 154.5C 713.400031 145.5 722.800031 138 730.900031 129.1C 738.000031 121.2 745.900031 113.9 753.500031 106.4C 761.600031 98.5 768.700031 89.6 777.500031 82.5C 752.300031 59.5 729.000031 34.6 705.500031 10C 706.600031 18.1 705.200031 26.3 705.500031 34.5C 692.000031 35.6 678.500031 35.6 665.100031 34.5C 661.300031 66.6 657.700031 98.7 652.000031 130.5M 545.100031 34.5C 533.200031 36.2 521.000031 36 509.100031 34.5C 505.300031 51.3 505.000031 68.7 502.100031 85.7C 499.600031 100.6 499.500031 115.8 496.000031 130.5C 508.000031 131.2 520.000031 130.9 532.000031 130.5C 534.100031 113.6 536.000031 96.6 539.000031 79.8C 541.600031 64.8 544.000031 49.7 545.100031 34.5M 389.100031 34.5C 377.100031 34.8 365.100031 33.3 353.100031 34.5C 349.800031 48.9 350.700031 64.1 347.100031 78.5C 342.900031 95.5 343.600031 113.4 340.100031 130.5C 352.000031 131.3 364.200031 128.7 376.000031 130.5C 379.000031 114.3 381.300031 97.9 382.700031 81.4C 384.100031 65.7 386.500031 50.1 389.100031 34.5M 233.100031 34.5C 221.300031 35.4 209.400031 33.7 197.600031 34.5C 192.400031 66.4 188.900031 98.5 184.500031 130.5C 196.400031 130.3 208.200031 130.2 220.100031 130.5C 221.700031 115.7 224.000031 100.9 226.100031 86.2C 228.500031 69 230.800031 51.7 233.100031 34.5M 77.600031 34.5C 55.100031 33.5 32.500031 34.5 10.000031 34.5C 8.400031 50 10.000031 65.7 10.000031 81.3C 10.000031 97.7 9.400031 114.1 10.000031 130.5C 28.200031 130.7 46.300031 130.4 64.500031 130.5C 70.000031 98.7 71.600031 66.2 77.600031 34.5M 652.000031 130.5C 658.100031 132.3 664.700031 129.8 671.000031 130.5C 676.900031 131.2 683.100031 131.6 689.000031 130.5C 694.400031 129.5 700.300031 132.2 705.500031 130.5C 703.800031 138.3 704.500031 146.6 705.500031 154.5C 710.400031 149.9 713.700031 143.2 719.700031 140.3C 726.200031 137.1 730.100031 130.3 735.000031 125C 739.300031 120.3 744.600031 116.5 748.500031 111.5C 752.500031 106.3 758.800031 103.1 762.400031 97.6C 766.300031 91.6 771.500031 86.4 777.500031 82.5C 774.400031 77.7 769.100031 74.7 765.400031 70.4C 761.600031 65.9 757.500031 61.8 753.100031 58C 748.600031 54 745.700031 48 740.400031 45.1C 735.100031 42.3 732.200031 36.5 727.800031 32.5C 724.300031 29.2 721.500031 25 717.600031 22.2C 712.900031 18.8 710.000031 13.5 705.500031 10C 702.400031 17.6 704.100031 26.5 705.500031 34.5C 698.800031 35.4 691.800031 32.7 685.300031 34.5C 678.800031 36.3 671.800031 34 665.100031 34.5C 666.400031 40.7 663.900031 47.2 662.500031 53.4C 661.000031 59.7 659.600031 66.3 659.900031 72.8C 660.100031 78.7 660.000031 85.1 657.500031 90.5C 654.500031 96.6 653.900031 103.9 654.700031 110.6C 655.500031 117.2 653.900031 124.1 652.000031 130.5M 545.100031 34.5C 539.200031 33.5 533.100031 34.6 527.100031 34.5C 521.100031 34.4 515.100031 34.2 509.100031 34.5C 507.300031 42.4 506.800031 50.6 505.800031 58.7C 504.900031 66.2 505.200031 74 502.800031 81.1C 500.200031 88.5 501.000031 96.7 499.600031 104.4C 498.000031 113.1 496.400031 121.7 496.000031 130.5C 507.800031 133 520.300031 132.9 532.000031 130.5C 531.500031 124.6 535.700031 118.6 534.500031 112.8C 533.200031 106.9 535.300031 100.6 536.900031 94.8C 538.800031 87.7 539.700031 80.4 539.900031 73.1C 540.000031 66.6 541.800031 60.3 542.500031 53.9C 543.200031 47.4 545.600031 41 545.100031 34.5M 389.100031 34.5C 383.200031 35 377.200031 33.7 371.400031 34.5C 365.400031 35.3 358.800031 36.7 353.100031 34.5C 352.600031 39.5 352.000031 44.5 351.100031 49.5C 350.200031 54.3 351.400031 59.6 349.100031 63.9C 347.000031 68 348.600031 73.3 347.200031 77.7C 346.000031 81.8 347.500031 86.5 345.500031 90.3C 343.500031 94.1 345.700031 99.3 343.800031 103.2C 341.800031 107.2 342.900031 112.1 342.000031 116.5C 341.000031 121.1 340.600031 125.8 340.100031 130.5C 346.000031 131.2 351.900031 130.4 357.900031 130.5C 363.900031 130.6 370.000031 130.1 376.000031 130.5C 374.700031 125.2 379.300031 119.6 378.300031 114.2C 377.200031 108.6 378.800031 102.6 380.600031 97.1C 382.200031 92.2 381.100031 86.6 382.700031 81.7C 384.200031 76.7 383.600031 71.2 384.800031 66.1C 386.000031 61.1 386.400031 56 386.900031 50.9C 387.400031 45.4 387.100031 39.6 389.100031 34.5M 233.100031 34.5C 227.400031 32.4 220.700031 36 214.800031 34.5C 209.200031 33.1 203.100031 32.9 197.600031 34.5C 198.800031 40.7 197.700031 47.5 195.000031 53.2C 192.300031 59.3 190.900031 66.5 192.400031 72.9C 193.600031 78.7 192.400031 85 190.000031 90.3C 187.000031 96.9 187.700031 104.6 187.100031 111.8C 186.600031 118.1 184.500031 124.2 184.500031 130.5C 190.900031 130.8 197.500031 128.8 203.600031 130.5C 208.900031 132 214.600031 129.9 220.100031 130.5C 222.600031 125.9 223.000031 120.2 222.200031 115C 221.400031 110.2 222.000031 104.9 224.200031 100.5C 226.300031 95.9 226.900031 90.5 226.200031 85.6C 225.400031 80.2 228.600031 74.9 228.400031 69.4C 228.100031 63.5 229.700031 57.5 230.800031 51.6C 231.900031 46 234.100031 40.2 233.100031 34.5M 77.600031 34.5C 67.200031 35.3 56.100031 30.6 46.400031 34.5C 35.200031 39 21.900031 37.2 10.000031 34.5C 10.200031 44.6 10.500031 54.7 10.000031 64.8C 9.500031 75 12.700031 85.6 10.000031 95.4C 6.900031 106.7 9.600031 118.8 10.000031 130.5C 18.300031 132.2 27.100031 128.4 35.300031 130.5C 44.700031 132.9 55.000031 132.5 64.500031 130.5C 64.700031 121.8 67.500031 113.4 68.000031 104.7C 68.600031 96.3 70.500031 87.9 71.500031 79.5C 72.300031 72.6 75.400031 65.7 74.300031 58.8C 72.900031 50.8 76.300031 42.6 77.600031 34.5"></path></g></g></g><g id="g-root-cp_1_g-1_v49632f21nnt-stroke" data-item-order="999550735" transform="translate(28.000030517578125, 209)"><g id="cp_1_g-1_v49632f21nnt-stroke" fill="none" stroke-linecap="round" stroke-linejoin="round" stroke-miterlimit="4" stroke="#f4f4f4" stroke-width="4" stroke-opacity="1"><g><path d="M 58.5 10L 178.5 10L 154 190L 34 190L 58.5 10ZM 58.5 10C 71.9 9.5 85.3 9.9 98.8 10C 111 10.1 123.2 8.7 135.4 10C 149.7 11.5 164.2 11.4 178.5 10C 174.9 31.8 171.7 53.7 169.6 75.7C 167.6 96 162.4 116 161.3 136.4C 160.3 154.4 154.8 172 154 190C 135.5 188.9 116.9 190.8 98.3 190C 76.9 189.1 55.4 188.9 34 190C 36.6 176.4 37.1 162.5 39.6 148.9C 42.1 134.9 41.6 120.3 45.3 106.6C 49.9 90.1 49.7 72.6 52.3 55.7C 54.6 40.5 54.9 24.9 58.5 10M 58.5 10C 65.9 9 73.6 11.6 80.9 10C 88.6 8.3 96.6 10 104.5 10C 112.1 10 120.3 7.3 127.4 10C 134.6 12.8 143 8 150.5 10C 159.5 12.4 169.8 13.3 178.5 10C 176.6 17.1 178.7 25.1 175.5 31.7C 172.5 38.1 171.5 45.7 172.7 52.7C 173.8 59.4 171 66.2 169.9 72.9C 168.9 79.6 167.2 86.2 167.2 92.9C 167.3 100 164.8 106.9 164.3 114C 164 119.7 161.4 125.4 162 131.1C 162.8 138.1 160 144.9 159.2 151.9C 158.4 158.4 159.8 165.7 156.5 171.4C 153.5 176.9 154.7 183.8 154 190C 146.8 189.5 139.2 192.1 132.3 190C 125.6 187.9 118.2 191.4 111.3 190C 105.1 188.8 98.6 190.4 92.3 190C 86.4 189.7 80.4 189.4 74.6 190C 67.6 190.7 60 187.4 53.5 190C 47.5 192.4 40.3 191.4 34 190C 33.5 183.7 37.1 177.4 36.6 171.1C 36.1 164.7 38.8 158.5 39.1 152.2C 39.5 145.7 41.7 139.4 41.8 132.9C 41.8 125.8 42.1 118.5 44.6 111.8C 47 105.6 46.1 98.5 47.3 91.9C 48.5 85.8 49.2 79.5 49.9 73.3C 50.6 66.7 52.5 60.1 52.6 53.5C 52.7 45.5 54.7 37.6 55.8 29.7C 56.8 23.1 59.3 16.6 58.5 10"></path></g></g><g id="cp_1_g-1_v49632f21nnt-stroke" fill="none" stroke-linecap="round" stroke-linejoin="round" stroke-miterlimit="4" stroke="#f4f4f4" stroke-width="4" stroke-opacity="1"><g><path d="M 173.595581 46L 178.500081 10L 202.000081 46L 173.595581 46ZM 173.6 46C 174.8 34 176.7 22 178.5 10C 187.5 21.1 195.2 33.4 202 46C 192.5 45.8 183.1 45.6 173.6 46M 173.6 46C 173.6 40.4 176.4 34.8 175.9 29.2C 175.3 22.8 177.7 16.4 178.5 10C 180.6 16.3 188 20.2 189.4 26.7C 191 34.2 195.8 41.5 202 46C 197.4 45.4 192.5 47.4 188.1 46C 183.5 44.5 178.2 44.5 173.6 46"></path></g></g><g id="cp_1_g-1_v49632f21nnt-stroke" fill="none" stroke-linecap="round" stroke-linejoin="round" stroke-miterlimit="4" stroke="#f4f4f4" stroke-width="4" stroke-opacity="1"><g><path d="M 34 190L 10 142L 40.5 142L 34 190ZM 34 190C 25.5 174.3 17.9 158.1 10 142C 20.1 141 30.4 140.8 40.5 142C 37.9 157.9 35.5 173.9 34 190M 34 190C 29.3 183.1 28.1 174.1 22.8 167.6C 16.8 160.2 14.3 150.5 10 142C 14.6 143.2 19.7 140.3 24.1 142C 29.2 144 35.4 143.9 40.5 142C 39.5 145.8 40.6 150.2 38.9 153.8C 37 157.8 36.3 162.6 37.1 166.9C 37.9 170.9 36.1 175.1 35.5 179.1C 34.9 182.7 34 186.3 34 190"></path></g></g></g><g id="g-root-cp_2_g-2_qp251qf21laa-stroke" data-item-order="999550743" transform="translate(183.5350341796875, 209)"><g id="cp_2_g-2_qp251qf21laa-stroke" fill="none" stroke-linecap="round" stroke-linejoin="round" stroke-miterlimit="4" stroke="#f4f4f4" stroke-width="4" stroke-opacity="1"><g><path d="M 58.5 10L 178.5 10L 154 190L 34 190L 58.5 10ZM 58.5 10C 79.7 10.3 100.9 8.8 122 10C 140.8 11 159.7 11.3 178.5 10C 175.7 40.7 170.2 71.1 166 101.6C 162 131 157.1 160.4 154 190C 135.3 190.7 116.6 189.9 97.9 190C 76.6 190.1 55.2 188.1 34 190C 34.4 174.8 37.3 159.8 40.1 144.9C 42.8 131.2 45.8 117.4 45.8 103.5C 45.7 89.1 49.4 74.9 51.6 60.7C 54.2 43.9 54.5 26.6 58.5 10M 58.5 10C 63.7 9.9 68.9 9.8 74.1 10C 78.6 10.2 83.3 11.1 87.7 10C 92.3 8.8 97.4 11.1 102.1 10C 107.2 8.8 112.6 10.3 117.8 10C 122.7 9.7 127.7 9.8 132.6 10C 137.7 10.2 143.1 8.8 148.1 10C 152.8 11.1 157.8 8.8 162.4 10C 167.6 11.3 173.1 10.1 178.5 10C 179.2 14.7 175.6 19.5 176.6 24.1C 177.5 28.7 174.9 33.3 174.7 38C 174.5 43.4 173.8 48.8 172.5 54.1C 171.2 59.1 172 64.5 170.4 69.5C 168.7 74.8 168.9 80.5 168.2 86C 167.5 91.1 168.6 96.8 166.1 101.3C 163.4 106 166.6 112.7 163.9 117.5C 161.7 121.4 162.3 126.3 162.1 130.7C 161.8 135.3 160 139.9 160.2 144.5C 160.4 149.9 157.7 155.3 158 160.7C 158.2 165.2 155.1 169.7 156.2 174.1C 157.5 179.3 154.2 184.6 154 190C 146.4 187.9 138 192.1 130.4 190C 123.1 187.9 114.8 192.3 107.5 190C 100.5 187.8 92.6 191 85.3 190C 77.2 188.9 68.9 190.4 60.7 190C 51.8 189.5 42.9 190.2 34 190C 33.1 181.5 37.9 173.1 37.5 164.6C 37 155.8 39.5 147 41 138.4C 42.4 130.7 40.8 122.2 44.2 115.2C 48 107.4 46.4 97.8 47.7 89.2C 49.2 79.6 51.7 70 51.7 60.3C 51.6 51.1 54.2 42 55.4 32.9C 56.4 25.2 57.9 17.7 58.5 10"></path></g></g><g id="cp_2_g-2_qp251qf21laa-stroke" fill="none" stroke-linecap="round" stroke-linejoin="round" stroke-miterlimit="4" stroke="#f4f4f4" stroke-width="4" stroke-opacity="1"><g><path d="M 173.595581 46L 178.500081 10L 202.000081 46L 173.595581 46ZM 173.6 46C 175.6 34 175.7 21.8 178.5 10C 186.3 22 193.1 34.8 202 46C 192.6 46.9 183.1 45.6 173.6 46M 173.6 46C 174.3 39.8 175 33.5 176.1 27.3C 177.2 21.6 179.2 15.8 178.5 10C 181.2 13.7 182.7 18.3 186 21.5C 189.6 24.9 191.6 29.8 194.2 34.1C 196.7 38.1 200.4 41.5 202 46C 192.5 46.2 182.8 48.4 173.6 46"></path></g></g><g id="cp_2_g-2_qp251qf21laa-stroke" fill="none" stroke-linecap="round" stroke-linejoin="round" stroke-miterlimit="4" stroke="#f4f4f4" stroke-width="4" stroke-opacity="1"><g><path d="M 34 190L 10 142L 40.5 142L 34 190ZM 34 190C 26.3 173.9 16.9 158.5 10 142C 20.2 142 30.4 143.3 40.5 142C 39.3 158.1 35.5 173.9 34 190M 34 190C 31.8 185.9 29.7 181.8 27.8 177.5C 26.1 173.9 25 169.8 22.4 166.7C 19.5 163.4 19.3 158.3 16.5 154.9C 13.4 151.2 12.4 146.2 10 142C 19.9 144.3 30.3 141.7 40.5 142C 39.6 150.1 40.3 158.8 37.2 166.4C 34.2 173.7 32.4 182.2 34 190"></path></g></g></g><g id="g-root-cp_3_g-3_qp251qf21lab-stroke" data-item-order="999550751" transform="translate(339.5040283203125, 209)"><g id="cp_3_g-3_qp251qf21lab-stroke" fill="none" stroke-linecap="round" stroke-linejoin="round" stroke-miterlimit="4" stroke="#f4f4f4" stroke-width="4" stroke-opacity="1"><g><path d="M 58.5 10L 178.5 10L 154 190L 34 190L 58.5 10ZM 58.5 10C 76.7 10 95 11.8 113 10C 134.8 7.8 156.8 8.3 178.5 10C 176.9 30.1 172.2 49.8 170.3 69.9C 168.3 92 165.5 114.1 161.4 135.9C 158 153.8 156.7 172 154 190C 114 189.1 74 188 34 190C 35.6 170.8 40.5 151.9 41.8 132.7C 43.1 113.6 47.4 94.8 49.5 75.8C 52 53.8 54.2 31.7 58.5 10M 58.5 10C 64.4 9.1 70.6 9.3 76.6 10C 82.1 10.6 87.9 8.3 93.2 10C 98.5 11.7 104.6 8.6 110.1 10C 115.9 11.5 122.2 10.9 128.2 10C 134.2 9.1 140.6 8.1 146.4 10C 151.6 11.8 157.4 10.3 162.9 10C 168.1 9.7 173.6 8.2 178.5 10C 176.4 18.2 175.6 26.7 175.1 35.1C 174.6 43.7 172.4 52 171.6 60.5C 170.8 69.8 171.2 79.5 167.9 88.2C 164.7 96.4 164.7 105.6 164.3 114.4C 163.9 122.3 159.1 130.3 161.1 137.9C 163.2 146.2 158.4 154.8 157.6 163.3C 156.9 172.3 152.1 181.2 154 190C 143.5 191.2 132.6 192.2 122.3 190C 112.5 187.9 102.1 191.2 92.2 190C 82.6 188.8 72.6 187.8 63.2 190C 53.7 192.2 43.7 189.4 34 190C 38.3 182.4 37.7 172.8 37.5 164.1C 37.3 156.2 38.4 148 40.7 140.4C 43.3 132.4 42.7 123.6 44.2 115.3C 45.7 106.4 46.5 97.4 47.8 88.5C 49.2 79.2 49.3 69.6 51.6 60.5C 53.6 52.7 54.1 44.6 54.9 36.6C 55.8 27.7 58.7 19 58.5 10"></path></g></g><g id="cp_3_g-3_qp251qf21lab-stroke" fill="none" stroke-linecap="round" stroke-linejoin="round" stroke-miterlimit="4" stroke="#f4f4f4" stroke-width="4" stroke-opacity="1"><g><path d="M 173.595581 46L 178.500081 10L 202.000081 46L 173.595581 46ZM 173.6 46C 175.2 34 178.1 22.1 178.5 10C 187.1 21.5 195.6 33.1 202 46C 192.6 44.8 183.1 45.5 173.6 46M 173.6 46C 173.5 39.6 174.6 33.2 176.2 27C 177.6 21.5 176 15.2 178.5 10C 183.2 15.3 187.8 21.1 190.1 27.8C 192.5 34.6 200.2 39 202 46C 193.1 42.8 183 45.4 173.6 46"></path></g></g><g id="cp_3_g-3_qp251qf21lab-stroke" fill="none" stroke-linecap="round" stroke-linejoin="round" stroke-miterlimit="4" stroke="#f4f4f4" stroke-width="4" stroke-opacity="1"><g><path d="M 34 190L 10 142L 40.5 142L 34 190ZM 34 190C 26 174 19.6 157.1 10 142C 20.1 141.1 30.5 140.3 40.5 142C 37.2 157.8 35.3 173.9 34 190M 34 190C 30.4 184.9 27.8 179 25.6 173.1C 23.6 167.8 18.8 163.5 17.9 157.9C 17.1 152 11.3 147.8 10 142C 19.6 145.3 30.5 143.5 40.5 142C 36.4 149.8 37.6 159.3 37 168C 36.5 175.4 34.3 182.6 34 190"></path></g></g></g><g id="g-root-cp_4_g-4_htf4suf21m30-stroke" data-item-order="999550759" transform="translate(495.5160217285156, 209)"><g id="cp_4_g-4_htf4suf21m30-stroke" fill="none" stroke-linecap="round" stroke-linejoin="round" stroke-miterlimit="4" stroke="#f4f4f4" stroke-width="4" stroke-opacity="1"><g><path d="M 58.5 10L 178.5 10L 154 190L 34 190L 58.5 10ZM 58.5 10C 98.5 11 138.6 11.9 178.5 10C 178.3 21.8 175.1 33.3 173.7 45C 172.2 57.7 168.5 70.2 168.6 83C 168.6 94.2 166.9 105.4 164 116.2C 160.9 128.1 160.7 140.6 159.1 152.7C 157.5 165.2 155.6 177.6 154 190C 135.4 188.7 116.7 189.9 98 190C 76.7 190.1 55.3 191.1 34 190C 34.6 171.7 38.1 153.5 41.4 135.5C 45.6 112.9 48.6 90.1 50.7 67.2C 52.5 48 55.9 29.1 58.5 10M 58.5 10C 67.8 12.7 78.3 12.9 87.6 10C 97.7 6.9 108.8 9.3 119.3 10C 129.4 10.6 140.2 13.4 149.8 10C 158.8 6.8 169 9.1 178.5 10C 176.5 15.7 177.4 21.9 176.1 27.8C 174.7 33.5 176.6 40.1 173.7 45.2C 171.1 49.8 172.7 55.8 171.6 60.9C 170.5 65.9 170.3 71.1 169.5 76.2C 168.6 82 167.2 87.8 167.1 93.6C 167.1 98.8 164.5 103.8 165 108.9C 165.6 114.4 165.5 120.6 162.8 125.5C 160.2 130.3 159.6 136.3 160.6 141.7C 161.7 147.4 158.2 153.1 158.2 159C 158.3 164.7 158.3 170.8 155.9 175.9C 153.9 180.2 154.4 185.3 154 190C 144.6 191 134.9 191.9 125.7 190C 114.8 187.7 103.3 190.1 92.2 190C 83.3 189.9 74.3 192.2 65.7 190C 55.5 187.3 44.4 192.1 34 190C 35.8 181.9 35 173.2 37.4 165.2C 39.8 157.2 38.9 148.4 40.8 140.2C 42.7 131.5 41.1 121.9 44.4 113.6C 47.4 105.9 49 97.2 47.7 89C 46.3 79.5 49.2 69.7 51.6 60.4C 53.8 51.9 53 42.9 55.2 34.5C 57.2 26.5 60.2 18.1 58.5 10"></path></g></g><g id="cp_4_g-4_htf4suf21m30-stroke" fill="none" stroke-linecap="round" stroke-linejoin="round" stroke-miterlimit="4" stroke="#f4f4f4" stroke-width="4" stroke-opacity="1"><g><path d="M 173.595581 46L 178.500081 10L 202.000081 46L 173.595581 46ZM 173.6 46C 176.2 34.2 178.8 22.1 178.5 10C 187.4 21.2 194 34.1 202 46C 192.6 44.6 182.9 44.3 173.6 46M 173.6 46C 178.5 34.9 180.5 21.9 178.5 10C 184.4 14.5 187.1 22.3 190.8 28.8C 194.2 34.8 198.8 40 202 46C 192.7 44.1 183 46.9 173.6 46"></path></g></g><g id="cp_4_g-4_htf4suf21m30-stroke" fill="none" stroke-linecap="round" stroke-linejoin="round" stroke-miterlimit="4" stroke="#f4f4f4" stroke-width="4" stroke-opacity="1"><g><path d="M 34 190L 10 142L 40.5 142L 34 190ZM 34 190C 26.9 173.6 19.7 157 10 142C 20.1 140.7 30.3 142.2 40.5 142C 37 157.8 34.4 173.9 34 190M 34 190C 32.5 181.5 28.4 173 22.4 166.7C 16 160.1 13.6 150.5 10 142C 20.1 142.9 30.9 145.4 40.5 142C 38 149.1 39.2 157 37.5 164.4C 35.5 172.8 38.3 182.5 34 190"></path></g></g></g><g id="g-root-cp_1_g-1_1_htf4suf21m31-stroke" data-item-order="999550781" transform="translate(136.00003051757812, 77)"><g id="cp_1_g-1_1_htf4suf21m31-stroke" fill="none" stroke-linecap="round" stroke-linejoin="round" stroke-miterlimit="4" stroke="#f4f4f4" stroke-width="4" stroke-opacity="1"><g><path d="M 10 10L 10 142M 10 10C 9.8 30.9 9 51.8 10 72.6C 11.1 95.7 8.2 118.9 10 142M 10 10C 12 15.8 9.1 22.4 10 28.5C 10.9 35.2 8 42.3 10 48.7C 11.7 54.1 10.6 60 10 65.7C 9.3 72.4 11.8 79.3 10 85.8C 8.5 91.4 11.3 97.5 10 103.1C 8.6 109.1 11.9 115.7 10 121.5C 8 128.1 11.7 135.4 10 142"></path></g></g></g><g id="g-root-cp_3_g-3_1_ddlmoef21mva-stroke" data-item-order="999550791" transform="translate(448.0000305175781, 53)"><g id="cp_3_g-3_1_ddlmoef21mva-stroke" fill="none" stroke-linecap="round" stroke-linejoin="round" stroke-miterlimit="4" stroke="#f4f4f4" stroke-width="4" stroke-opacity="1"><g><path d="M 10 10L 10 165.999985M 10 10C 9.9 35.5 9.6 61.1 10 86.6C 10.4 113.1 8.3 139.6 10 166M 10 10C 9.6 19.7 6.7 30 10 39.1C 13.2 48.3 11.9 58.8 10 68.3C 7.9 79.1 9.4 90.4 10 101.4C 10.6 112.2 12.7 123.3 10 133.7C 7.3 144.1 11.2 155.3 10 166"></path></g></g></g><g id="g-root-cp_2_g-2_1_ddlmoef21mvb-stroke" data-item-order="999550801" transform="translate(268.0000305175781, 389)"><g id="cp_2_g-2_1_ddlmoef21mvb-stroke" fill="none" stroke-linecap="round" stroke-linejoin="round" stroke-miterlimit="4" stroke="#f4f4f4" stroke-width="4" stroke-opacity="1"><g><path d="M 10 10L 10 166M 10 10C 11.7 27.3 10.1 44.8 10 62.2C 9.9 79.7 8.2 97.4 10 114.9C 11.8 131.8 8.7 149 10 166M 10 10C 11.3 17.8 7.7 26.3 10 33.9C 12.5 42.2 9.3 51.3 10 59.9C 10.6 68.1 12.4 76.6 10 84.4C 7.5 92.5 8.2 101.6 10 109.9C 12 119 10.6 128.5 10 137.7C 9.3 147.1 9.1 156.6 10 166"></path></g></g></g><g id="g-root-cp_4_g-4_1_ddlmoef21mvc-stroke" data-item-order="999550811" transform="translate(580, 389)"><g id="cp_4_g-4_1_ddlmoef21mvc-stroke" fill="none" stroke-linecap="round" stroke-linejoin="round" stroke-miterlimit="4" stroke="#f4f4f4" stroke-width="4" stroke-opacity="1"><g><path d="M 10 10L 10 190M 10 10C 10.9 39.4 9.6 68.8 10 98.1C 10.4 128.8 9.5 159.4 10 190M 10 10C 11 16.8 10.9 23.8 10 30.6C 9.1 37 11.7 43.8 10 50C 8.3 56.2 8.6 63 10 69.3C 11.5 76 7.8 83.5 10 90.1C 12.2 96.6 10.1 103.8 10 110.7C 9.9 117.4 8 124.4 10 130.7C 11.9 136.9 10 143.7 10 150.2C 10 157.3 9.6 164.4 10 171.4C 10.3 177.6 8.5 184 10 190"></path></g></g></g><g id="g-root-tx_training_8xs4jyf21nnl-stroke" data-item-order="1000000000" transform="translate(232.00003051757812, 3)"></g><g id="g-root-tx_checklis_18fprm6f2a2h4-stroke" data-item-order="1000000000" transform="translate(460.0000305175781, 63)"></g><g id="g-root-tx_newemplo_dccrnyf2a13a-stroke" data-item-order="1000000000" transform="translate(148.00003051757812, 87)"></g><g id="g-root-tx_anewteam_1lr69zif2a0w7-stroke" data-item-order="1000000000" transform="translate(148.00003051757812, 147)"></g><g id="g-root-tx_theemplo_v4vqbyf2a0w9-stroke" data-item-order="1000000000" transform="translate(460.0000305175781, 123)"></g><g id="g-root-ic_rota_1hclmvif21ngi-stroke" data-item-order="1000000000" transform="translate(88.00003051757812, 268)"><g id="ic_rota_1hclmvif21ngi-stroke" fill="none" stroke-linecap="round" stroke-linejoin="round" stroke-miterlimit="4" stroke="#f4f4f4" stroke-width="2" stroke-opacity="1"><g><path d="M 51.4618 23.57032C 56.009499 28.420929 62.375797 31.149399 69.651703 31.149399C 73.289795 31.149399 76.624603 30.54307 79.656097 29.02726M 74.050003 18.850031C 77.649994 21.55003 79.75 25.750031 79.75 30.55003C 79.75 38.950031 73.149994 45.550003 64.75 45.550003C 56.349998 45.550003 49.75 38.950031 49.75 30.55003C 49.75 22.537451 55.7551 16.162661 63.5998 15.59167M 10 10M 59.649998 12.249634L 65.050003 15.84964L 61.149998 21.549641M 12.25 79.75L 63.25 79.75M 41.650002 25.74979C 40.150002 25.14979 38.949879 25.14979 37.149879 25.14979C 29.649879 25.14979 23.34985 31.449791 23.34985 38.949791L 23.34985 42.849701C 23.34985 47.349701 22.149879 50.6497 20.649879 52.749699M 23.349939 41.349701C 28.749939 41.349701 33.849968 38.949551 37.149971 35.049549C 38.349972 36.549549 39.849972 37.74958 41.650002 38.949581M 45.849998 49.1497C 43.75 51.249699 40.75 52.749699 37.449879 52.749699C 30.84988 52.749699 25.449881 47.6497 25.149879 41.049702M 57.550003 71.050003C 53.650002 63.850002 46.150002 58.75 37.44994 58.75C 28.749939 58.75 20.94994 63.850002 17.04994 71.050003M 51.400002 23.5C 55.900002 28.599998 62.5 31.599998 69.699997 31C 73.300003 31 76.899994 31 79.600006 28.900002M 74.199997 19C 77.199997 22.299999 79.899994 25.900002 79.899994 30.700001C 79.600006 38.800003 73 47.199997 64.899994 45.699997C 56.5 43.900002 49.300003 38.800003 49.900002 30.700001C 49.900002 22.599998 55.900002 16.299999 63.699997 15.7M 10 10M 59.800003 12.1C 61.600002 13.3 63.399998 14.5 65.199997 15.7C 63.699997 17.799999 62.5 19.9 61.300003 21.4M 12.4 79.899994C 28.900002 76.300003 46.300003 77.800003 63.399998 79.899994M 41.800003 25.599998C 40.300003 25.299999 38.800003 25.599998 37 25C 29.799999 23.5 25.900002 31.900002 23.200001 38.800003C 22.900002 40.300003 22.900002 41.5 23.200001 42.699997C 24.700001 47.199997 22.599998 51.099998 20.5 52.599998M 23.200001 41.199997C 28.599998 42.099998 32.799999 37.599998 37 34.900002C 38.5 36.400002 39.699997 37.900002 41.800003 38.800003M 46 49C 43.900002 51.400002 40.599998 53.199997 37.300003 52.599998C 31 51.699997 23.799999 47.5 25 40.900002M 57.699997 71.199997C 52.900002 64.300003 46 59.5 37.300003 58.899998C 28.900002 58 18.4 62.800003 16.9 71.199997"></path></g></g></g><g id="g-root-ic_pers_4il3imf2a22q-stroke" data-item-order="1000000000" transform="translate(243.75003051757812, 268)"><g id="ic_pers_4il3imf2a22q-stroke" fill="none" stroke-linecap="round" stroke-linejoin="round" stroke-miterlimit="4" stroke="#f4f4f4" stroke-width="2" stroke-opacity="1"><g><path d="M 71.5 80.5L 73 62.5L 80.5 62.5L 80.5 52C 80.5 43.715729 73.784271 37 65.5 37C 57.215729 37 50.5 43.715729 50.5 52L 50.5 62.5L 58 62.5L 59.5 80.5ZM 55 22C 55.000004 27.79899 59.701012 32.5 65.5 32.5C 71.298988 32.5 76 27.79899 76 22C 76 16.20101 71.298988 11.500001 65.5 11.500001C 59.701012 11.500001 55.000004 16.20101 55.000004 22ZM 76 20.5L 49 20.5M 23.5 11.374L 23.5 25C 23.5 25.568157 23.821003 26.087551 24.32918 26.34164C 24.837355 26.595728 25.445475 26.540895 25.900002 26.200001L 29.5 23.5L 33.099998 26.200001C 33.554527 26.540895 34.162643 26.595728 34.670822 26.34164C 35.178997 26.087551 35.5 25.568157 35.5 25L 35.5 11.374M 47.5 16L 47.5 14.5C 47.5 12.843145 46.156857 11.5 44.5 11.5L 14.5 11.5C 12.843145 11.5 11.5 12.843145 11.5 14.5L 11.5 43C 11.5 44.656857 12.843145 46 14.5 46L 40 46M 71.5 80.5C 72.100006 74.5 70.899994 68.199997 73 62.5C 75.399994 63.399998 78.100006 62.800003 80.5 62.5C 81.100006 59.199997 79.300003 55.300003 80.5 52C 83.199997 44.199997 73.899994 37 65.5 37C 57.099998 37 50.199997 43.599998 50.5 52C 50.800003 55.599998 49.300003 59.199997 50.5 62.5C 52.900002 62.800003 55.599998 61.899998 58 62.5C 58.300003 68.5 61.300003 74.800003 59.5 80.5C 63.399998 79.600006 67.600006 79.899994 71.5 80.5M 55 22C 56.5 27.700001 59.800003 32.799999 65.5 32.5C 71.199997 32.200001 76.600006 27.700001 76 22C 75.399994 16.299999 71.199997 10.6 65.5 11.5C 59.800003 12.4 55.900002 16.299999 55 22M 76 20.5C 67.600006 23.5 58 19.299999 49 20.5M 23.5 11.5C 25 15.7 23.799999 20.5 23.5 25C 23.5 25.599998 23.799999 26.200001 24.400002 26.200001C 24.700001 26.5 25.299999 26.200001 25.900002 26.200001C 27.400002 25.900002 28.299999 24.400002 29.5 23.5C 30.700001 24.400002 31.900002 25.299999 33.099998 26.200001C 33.700001 26.5 34 26.5 34.599998 26.200001C 35.199997 26.200001 35.5 25.599998 35.5 25C 35.800003 20.5 36.099998 16 35.5 11.5M 47.5 16C 47.5 15.4 47.800003 15.1 47.5 14.5C 46.900002 13 46.300003 11.5 44.5 11.5C 34.599998 11.8 24.400002 10.3 14.5 11.5C 13 11.8 12.1 13 11.5 14.5C 8.2 23.5 11.8 33.400002 11.5 43C 11.5 44.800003 12.7 45.699997 14.5 46C 22.900002 47.199997 31.599998 45.099998 40 46"></path></g></g></g><g id="g-root-ic_1_1hd874ef1w0sk-stroke" data-item-order="1000000000" transform="translate(400.0000305175781, 268)"><g id="ic_1_1hd874ef1w0sk-stroke" fill="none" stroke-linecap="round" stroke-linejoin="round" stroke-miterlimit="4" stroke="#f4f4f4" stroke-width="2" stroke-opacity="1"><g><path d="M 35.5 23.493999L 80.5 23.493999M 35.5 47.493999L 80.5 47.493999M 35.5 71.493996L 80.5 71.493996M 14.5 17.493999L 20.5 17.493999C 20.5 17.493999 23.5 17.493999 23.5 20.493999L 23.5 26.493999C 23.5 26.493999 23.5 29.493999 20.5 29.493999L 14.5 29.493999C 14.5 29.493999 11.5 29.493999 11.5 26.493999L 11.5 20.493999C 11.5 20.493999 11.5 17.493999 14.5 17.493999M 14.5 41.493999L 20.5 41.493999C 20.5 41.493999 23.5 41.493999 23.5 44.493999L 23.5 50.493999C 23.5 50.493999 23.5 53.493999 20.5 53.493999L 14.5 53.493999C 14.5 53.493999 11.5 53.493999 11.5 50.493999L 11.5 44.493999C 11.5 44.493999 11.5 41.493999 14.5 41.493999M 14.5 65.493996L 20.5 65.493996C 20.5 65.493996 23.5 65.493996 23.5 68.493996L 23.5 74.493996C 23.5 74.493996 23.5 77.493996 20.5 77.493996L 14.5 77.493996C 14.5 77.493996 11.5 77.493996 11.5 74.493996L 11.5 68.493996C 11.5 68.493996 11.5 65.493996 14.5 65.493996M 35.5 23.5C 50.199997 26.799999 65.5 25.299999 80.5 23.5M 35.5 47.5C 50.199997 43.900002 65.5 46.300003 80.5 47.5M 35.5 71.5C 50.199997 74.199997 65.5 72.399994 80.5 71.5M 14.5 17.5C 16.6 17.799999 18.4 17.200001 20.5 17.5C 20.5 17.5 24.400002 17.5 23.5 20.5C 22.900002 22.299999 23.5 24.400002 23.5 26.5C 23.5 26.5 23.5 29.799999 20.5 29.5C 18.4 29.200001 16.299999 28.900002 14.5 29.5C 14.5 29.5 11.8 29.5 11.5 26.5C 11.2 24.400002 11.8 22.599998 11.5 20.5C 11.5 20.5 11.8 18.4 14.5 17.5M 14.5 41.5C 16.6 41.199997 18.4 41.199997 20.5 41.5C 20.5 41.5 23.799999 41.5 23.5 44.5C 23.200001 46.599998 23.5 48.400002 23.5 50.5C 23.5 50.5 23.5 53.199997 20.5 53.5C 18.4 53.5 16.6 53.800003 14.5 53.5C 14.5 53.5 12.1 53.5 11.5 50.5C 11.2 48.400002 11.8 46.599998 11.5 44.5C 11.5 44.5 11.8 42.400002 14.5 41.5M 14.5 65.5C 16.299999 66.100006 18.4 65.800003 20.5 65.5C 20.5 65.5 22.900002 65.5 23.5 68.5C 23.799999 70.600006 24.099998 72.699997 23.5 74.5C 23.5 74.5 23.5 78.100006 20.5 77.5C 18.4 77.199997 16.299999 78.100006 14.5 77.5C 14.5 77.5 11.8 77.5 11.5 74.5C 11.5 72.399994 11.2 70.300003 11.5 68.5C 11.5 68.5 11.5 64.899994 14.5 65.5"></path></g></g></g><g id="g-root-ic_docs_1usfk0ef22zuu-stroke" data-item-order="1000000000" transform="translate(556, 268)"><g id="ic_docs_1usfk0ef22zuu-stroke" fill="none" stroke-linecap="round" stroke-linejoin="round" stroke-miterlimit="4" stroke="#f4f4f4" stroke-width="2" stroke-opacity="1"><g><path d="M 74.5 74.5C 74.5 77.813713 71.813713 80.5 68.5 80.5L 23.5 80.5C 20.186291 80.5 17.5 77.813713 17.5 74.5L 17.5 17.5C 17.5 14.186292 20.186291 11.5 23.5 11.5L 55 11.5L 74.5 31ZM 74.5 31L 61 31C 57.686291 31 55 28.313709 55 25L 55 11.5ZM 62.5 41.5L 29.5 41.5M 62.5 51.010002L 29.5 51.010002M 62.5 60.489998L 29.5 60.489998M 46 70L 29.5 70M 74.5 74.5C 74.800003 77.800003 71.5 79.300003 68.5 80.5C 54.400002 85.300003 37.900002 84.699997 23.5 80.5C 20.200001 79.600006 17.200001 77.800003 17.5 74.5C 18.700001 55.599998 16.299999 36.400002 17.5 17.5C 17.799999 14.2 20.200001 11.8 23.5 11.5C 34 10 45.099998 7.9 55 11.5C 60.100002 19 68.5 24.099998 74.5 31C 76 45.400002 73.899994 60.100002 74.5 74.5M 74.5 31C 70.300003 29.5 65.199997 29.799999 61 31C 57.699997 31.900002 53.800003 28 55 25C 56.5 20.799999 56.5 15.7 55 11.5C 61.600002 18.1 70.600006 22.599998 74.5 31M 62.5 41.5C 51.699997 40.300003 40.599998 41.800003 29.5 41.5M 62.5 51.099998C 51.699997 48.699997 40.599998 51.699997 29.5 51.099998M 62.5 60.399998C 51.699997 57.699997 40 57.699997 29.5 60.399998M 46 70C 40.599998 70.300003 34.900002 69.699997 29.5 70"></path></g></g></g><g id="g-root-tx_onboardi_qp287if2a1oi-stroke" data-item-order="1000000000" transform="translate(88.00003051757812, 435)"></g><g id="g-root-tx_referenc_4il6oef2a0wc-stroke" data-item-order="1000000000" transform="translate(448.0000305175781, 435)"></g><g id="g-root-tx_theemplo_htf7ymf2a2h7-stroke" data-item-order="1000000000" transform="translate(64.00003051757812, 495)"></g><g id="g-root-tx_theemplo_2rojyf2a1ol-stroke" data-item-order="1000000000" transform="translate(376.0000305175781, 519)"></g></g></g></svg>